SplineFontDB: 3.0
FontName: KleiBookIta
FullName: Klei Book Italic
FamilyName: Klei
Weight: Book
Copyright: Copyright (c) 2015, Joseph Steck, Rocketroom, LLC. All rights reserved.
UComments: "For my beloved Alisa +ACIA-Clay+ACIA Steck+AAoA-2015-02-14: Created with FontForge (http://fontforge.org)"
Version: 001.000
ItalicAngle: 0
UnderlinePosition: -100
UnderlineWidth: 50
Ascent: 768
Descent: 232
InvalidEm: 0
LayerCount: 2
Layer: 0 0 "Back" 1
Layer: 1 0 "Fore" 0
PreferredKerning: 4
XUID: [1021 610 -1734517455 9502657]
FSType: 0
OS2Version: 3
OS2_WeightWidthSlopeOnly: 0
OS2_UseTypoMetrics: 1
CreationTime: 1424325067
ModificationTime: 1538352217
PfmFamily: 17
TTFWeight: 400
TTFWidth: 5
LineGap: 90
VLineGap: 0
Panose: 2 0 5 3 0 0 0 0 0 0
OS2TypoAscent: 0
OS2TypoAOffset: 1
OS2TypoDescent: 0
OS2TypoDOffset: 1
OS2TypoLinegap: 90
OS2WinAscent: 0
OS2WinAOffset: 1
OS2WinDescent: 0
OS2WinDOffset: 1
HheadAscent: 0
HheadAOffset: 1
HheadDescent: 0
HheadDOffset: 1
OS2Vendor: 'PfEd'
OS2CodePages: 20000001.00000000
OS2UnicodeRanges: 00000005.00000000.00000000.00000000
Lookup: 4 0 1 "'liga' Standard Ligatures in Latin lookup 0" { "'liga' ffl"  "'liga' ffi"  "'liga' fi"  "'liga' ff"  "'liga' fl"  } ['liga' ('DFLT' <'dflt' > 'latn' <'dflt' > ) ]

StartChar: s
Encoding: 115 115 0
GlifName: s
Width: 398
VWidth: 0
Flags: W
HStem: -11.2754 30.3506<77.9177 191.23> 485.125 26.875<200.453 283.448>
VStem: -10.8848 65.7412<36.2419 121.72> 67.6855 87.5732<355.149 438.8> 252.292 88.1953<75.4629 176.453>
LayerCount: 2
Fore
SplineSet
54.8564453125 78 m 4
 54.8564453125 45.513671875 78.857421875 19.0751953125 133.836914062 19.0751953125 c 4
 186.237304688 19.0751953125 252.291992188 59.3037109375 252.291992188 127.981445312 c 4
 252.291992188 169.352539062 199.114257812 208.862304688 164.416992188 237.578125 c 4
 134.16015625 262.506835938 67.685546875 315.3203125 67.685546875 374.374023438 c 4
 67.685546875 459.349609375 164.455078125 512 257.71484375 512 c 4
 312.534179688 512 365 476.629882812 365 455 c 4
 365 430.409179688 350.553710938 408.974609375 329.71484375 408.974609375 c 4
 288.556640625 408.974609375 308.926757812 485.125 252.615234375 485.125 c 4
 193.180664062 485.125 155.258789062 443.341796875 155.258789062 402.158203125 c 4
 155.258789062 360.53125 213.481445312 320.8515625 242.448242188 296.221679688 c 5
 278.306640625 263.22265625 340.487304688 205.916992188 340.487304688 149.68359375 c 4
 340.487304688 35.3046875 215.241210938 -11.275390625 131.2265625 -11.275390625 c 4
 24.0244140625 -11.275390625 -10.884765625 55.5205078125 -10.884765625 87.8251953125 c 4
 -10.884765625 108.083984375 0.2958984375 139.974609375 30.615234375 139.974609375 c 4
 45.8798828125 139.974609375 65.4296875 127.028320312 65.4296875 110 c 4
 65.4296875 97.2109375 54.8564453125 84.95703125 54.8564453125 78 c 4
EndSplineSet
Validated: 1
EndChar

StartChar: W
Encoding: 87 87 1
GlifName: W_
Width: 930
VWidth: 0
Flags: W
HStem: -9 21G<256.847 266.188> 710 20<103.5 124.92 248.853 292.309 397.045 421.002 520.71 563.602 618.439 648.315 740.057 766.185 887.853 923.238 1006.07 1035.43>
LayerCount: 2
Fore
SplineSet
893.34765625 714 m 0
 884.202148438 714 l 1
 887.852539062 734 l 1
 1038.93066406 734 l 1
 1035.43066406 714 l 1
 1029.96582031 714 l 0
 1022.58203125 714 1013.16796875 712.500976562 1005.71582031 710.27734375 c 0
 990.719726562 705.803710938 982.10546875 685.993164062 971.987304688 669.130859375 c 0
 838.7265625 447.046875 711.232421875 227.250976562 575.057617188 6.4306640625 c 0
 574.9609375 6.271484375 l 1
 574.856445312 6.1171875 l 0
 569.283203125 -2.0791015625 564.583007812 -10 554.63671875 -10 c 0
 545.17578125 -10 539.571289062 -1.28125 538.379882812 8.0712890625 c 1
 537.587890625 13.5009765625 511.436523438 171.447265625 485.30078125 334.997070312 c 1
 292.38671875 24.3037109375 l 1
 285.219726562 13.2607421875 281.295898438 6.515625 281.295898438 6.515625 c 0
 281.176757812 6.3125 l 1
 281.043945312 6.1171875 l 0
 275.25 -2.404296875 270.53125 -9 261.84375 -9 c 0
 251.850585938 -9 244.747070312 -0.3837890625 243.389648438 10.798828125 c 0
 232.376953125 101.474609375 149.243164062 611.651367188 137.1015625 671.193359375 c 0
 133.012695312 691.243164062 131.375976562 702.376953125 125.083007812 706.291015625 c 0
 121.633789062 708.436523438 117.037109375 710 108.965820312 710 c 0
 100 710 l 1
 103.5 730 l 1
 296.045898438 730 l 1
 292.30859375 710 l 1
 286.3828125 710 l 0
 255.720703125 710 235.942382812 699.311523438 235.942382812 669.772460938 c 0
 235.942382812 669.146484375 237.013671875 658.336914062 237.317382812 655.958007812 c 1
 317.001953125 149.841796875 l 1
 475.7109375 400.478515625 l 1
 456.154296875 521.602539062 439.09765625 619.438476562 430 673 c 1
 425 697 420.158203125 710 402.540039062 710 c 0
 393.395507812 710 l 1
 397.044921875 730 l 1
 567.338867188 730 l 1
 563.6015625 710 l 1
 557.67578125 710 l 2
 524.677734375 710 505.004882812 694.303710938 505.004882812 671.64453125 c 0
 505.004882812 671.546875 505.439453125 667.250976562 505.625976562 666.116210938 c 0
 536.21484375 496.51171875 l 1
 639.39453125 654.796875 l 1
 648.995117188 668.915039062 653.515625 676.959960938 653.515625 688.104492188 c 0
 653.515625 697.26953125 643.62109375 710 624.934570312 710 c 0
 614.790039062 710 l 1
 618.439453125 730 l 1
 769.834960938 730 l 1
 766.184570312 710 l 1
 760.611328125 710 l 0
 752.984375 710 745.97265625 709.091796875 739.765625 706.180664062 c 0
 722.594726562 698.127929688 716.104492188 685.76171875 704.465820312 667.162109375 c 1
 559.048828125 440.518554688 l 1
 602.530273438 145.038085938 l 5
 909.747070312 656.606445312 l 0
 919.831054688 673.052734375 925.801757812 680.471679688 925.801757812 691.83984375 c 0
 925.801757812 700.794921875 915.004882812 714 893.34765625 714 c 0
EndSplineSet
EndChar

StartChar: A
Encoding: 65 65 2
GlifName: A_
Width: 685
VWidth: 0
Flags: W
HStem: 0 20<-7.375 19.7693 116.997 135.9 466.969 494.929 627.995 650.9> 305 43<295.787 478.17> 715.977 20G<506.109 518.588>
LayerCount: 2
Fore
SplineSet
515.620117188 735.9765625 m 1
 618.334960938 43.9150390625 l 2
 620.260742188 34.470703125 622.198242188 27.9775390625 627.798828125 23.83984375 c 0
 631.876953125 20.826171875 643.006835938 20 649.434570312 20 c 0
 658.400390625 20 l 1
 650.900390625 0 l 1
 459.46875 0 l 1
 466.96875 20 l 1
 472.434570312 20 l 0
 479.663085938 20 487.946289062 20.970703125 495.2734375 21.8623046875 c 0
 508.890625 24.8349609375 515.201171875 33.1748046875 519.567382812 48.74609375 c 1
 520.487304688 54.162109375 520.848632812 62.2099609375 520.848632812 66.505859375 c 0
 520.848632812 68.1943359375 520.733398438 70.150390625 520.498046875 71.9833984375 c 2
 485.559570312 301.723632812 l 1
 484.979492188 304.012695312 484.782226562 304.598632812 484.651367188 305 c 1
 270.282226562 305 l 0
 268.385742188 305 268.37109375 304.721679688 264.81640625 300.15625 c 1
 118.36328125 76.1044921875 l 1
 107.751953125 60.0078125 102.59765625 53.2099609375 102.59765625 41.8046875 c 0
 102.59765625 35.11328125 107.046875 28.087890625 116.786132812 22.85546875 c 0
 121.258789062 20.453125 127.413085938 20 134.434570312 20 c 0
 141.75 20 l 1
 135.900390625 0 l 1
 -12 0 l 1
 -7.375 20 l 5
 -1.5654296875 20 l 4
 4.458984375 20 13.8369140625 20.376953125 20.0634765625 22.845703125 c 4
 35.4765625 28.95703125 46.486328125 48.3251953125 57.5087890625 65.025390625 c 1
 472.138671875 709.145507812 l 1
 473.166992188 709.920898438 l 0
 487.959960938 721.076171875 493.70703125 718.951171875 506.109375 728.50390625 c 0
 515.620117188 735.9765625 l 1
444.766601562 581.947265625 m 1
 295.787109375 348 l 1
 477.434570312 348 l 0
 477.731445312 348 478 348.032226562 478.178710938 348.048828125 c 1
 477.8828125 350.365234375 477.5078125 352.98828125 477.5078125 352.98828125 c 1
 444.766601562 581.947265625 l 1
EndSplineSet
Validated: 1
EndChar

StartChar: O
Encoding: 79 79 3
GlifName: O_
Width: 735
VWidth: 0
Flags: W
HStem: -11 42<220.834 391.664> 695 39<355.794 544.431>
VStem: 28.1074 101.946<129.91 390.026> 638.391 92.7832<335.64 591.066>
LayerCount: 2
Fore
SplineSet
28.107421875 241.868164062 m 0
 28.107421875 544.681640625 205.05269507 734 471.898633966 734 c 0
 622.143554688 734 731.173828125 643.686523438 731.173828125 473.903320312 c 0
 731.173828125 180.783203125 472.187645149 -11 292.474046497 -11 c 0
 197.598824759 -11 28.107421875 37.09375 28.107421875 241.868164062 c 0
451.275390625 695 m 0
 206.873046875 695 130.053710938 393.399414062 130.053710938 234.334960938 c 0
 130.053710938 52.1669921875 251.831054688 31 307.94140625 31 c 4
 436.057617188 31 638.390625 190.41796875 638.390625 494.999023438 c 0
 638.390625 604.614257812 590.006835938 695 451.275390625 695 c 0
EndSplineSet
Validated: 1
EndChar

StartChar: V
Encoding: 86 86 4
GlifName: V_
Width: 651
VWidth: 0
Flags: W
HStem: 710 20<111.866 135.29 253.463 298.881 620.494 654.003 729.814 766.431>
LayerCount: 2
Fore
SplineSet
293.23046875 710 m 0
 286.124023438 710 273.9921875 708.498046875 267.01171875 706.1796875 c 0
 250.702148438 700.762695312 239.754882812 693.48828125 239.754882812 675.13671875 c 0
 239.754882812 672.383789062 240.986328125 661.352539062 241.495117188 658.024414062 c 0
 322.217773438 153.077148438 l 1
 642.634765625 655.723632812 l 1
 653.754882812 672.455078125 656.801757812 679.115234375 656.801757812 690.947265625 c 0
 656.801757812 701.555664062 647.587890625 710 625.918945312 710 c 0
 616.499023438 710 l 1
 620.494140625 730 l 1
 770.930664062 730 l 1
 766.430664062 710 l 1
 760.965820312 710 l 0
 726.727539062 710 722.828125 691.766601562 705.861328125 666.927734375 c 1
 565.375976562 446.3828125 421.959960938 220.885742188 282.827148438 5.345703125 c 0
 279.751953125 0.486328125 275.290039062 -10 264.25 -10 c 0
 252.989257812 -10 249.793945312 0.23046875 248.811523438 7.6865234375 c 1
 246.780273438 20.2099609375 173.0234375 484.333984375 148.047851562 654.813476562 c 1
 147.067382812 660.583007812 146.041992188 669.588867188 145.043945312 674.478515625 c 0
 141.940429688 689.685546875 141.592773438 699.348632812 135.528320312 704.184570312 c 0
 130.479492188 708.2109375 122.623046875 710 115.965820312 710 c 0
 107 710 l 1
 111.866210938 730 l 1
 304 730 l 1
 298.880859375 710 l 1
 293.23046875 710 l 0
EndSplineSet
EndChar

StartChar: H
Encoding: 72 72 5
GlifName: H_
Width: 788
VWidth: 0
Flags: W
HStem: -0 20<12.5 40.0515 175.06 200.431 487.5 516.058 649.138 675.431> 378 41<249.919 619.987> 710 20<180.5 214.608 338.966 368.344 655.5 683.115 815.914 844.431>
LayerCount: 2
Fore
SplineSet
162.594726562 45.8720703125 m 0
 162.594726562 35.974609375 164.205267276 27.439297719 174.776367188 22.7275390625 c 0
 180.8125 20.037109375 187.8515625 20 195.965820312 20 c 0
 205.321289062 20 l 1
 200.430664062 -0 l 1
 8 0 l 1
 12.5 20 l 1
 17.9658203125 20 l 0
 26.0859375 20 33.072265625 20.9921875 40.39453125 22.78515625 c 1
 56.7919921875 26.1669921875 67.697265625 46.6220703125 70.154296875 57.05078125 c 1
 99.181640625 173.724609375 128.1484375 289.174804688 155.140625 405.70703125 c 0
 176.150390625 495.865234375 197.10546875 583.76171875 216.126953125 673.9765625 c 1
 216.594726562 675.961914062 218.784179688 686.602539062 218.784179688 688.31640625 c 0
 218.784179688 695.697265625 216.201171875 700.779296875 207.245117188 705.250976562 c 0
 201.73046875 708.004882812 193.850585938 710 184.965820312 710 c 0
 176 710 l 1
 180.5 730 l 1
 373.077148438 730 l 1
 368.34375 711 l 1
 362.965820312 711 l 0
 355.471679688 711 347.733398438 710.301757812 338.536132812 708.247070312 c 0
 324 705 314.28515625 688.4765625 310.797851562 674.15625 c 1
 297.755859375 619.3671875 283.809570312 561.075195312 270.770507812 506.297851562 c 1
 263.870117188 479.375976562 255.625976562 445.116210938 249.918945312 420.950195312 c 1
 299.642578125 420.905273438 365.396484375 419 426.724609375 419 c 0
 489.819335938 419 570.6796875 419.998046875 623.403320312 421 c 1
 629.083007812 421 629.583007812 422.756835938 630.069335938 423.876953125 c 1
 691.130859375 677.099609375 l 1
 691.556640625 679.040039062 692.784179688 686.029296875 692.784179688 687.750976562 c 3
 692.784179688 695.1953125 690.828125 699.579101562 683.362304688 705.231445312 c 0
 678.136871548 709.187600579 670.244996632 710 660.965820312 710 c 2
 651.608398438 710 l 1
 655.5 730 l 1
 847.930664062 730 l 1
 844.430664062 710 l 1
 838.965820312 710 l 0
 830.868164062 710 822.810546875 709.99609375 815.57421875 708.223632812 c 1
 799.610351562 704.749023438 788.95703125 685.787109375 785.723632812 674.701171875 c 1
 761.818359375 582.98828125 740.771484375 490.736328125 718.78515625 398.716796875 c 1
 691.7890625 283.149414062 665.80078125 172.615234375 639.793945312 57 c 1
 639.4375 55.4873046875 638.287109375 49.154296875 638.287109375 47.8251953125 c 0
 638.287109375 40.8662109375 640.552734375 27.0458984375 648.776367188 23.7265625 c 0
 656.510742188 20.6044921875 662.8515625 20 670.965820312 20 c 0
 679.930664062 20 l 1
 675.430664062 -0 l 1
 483 0 l 1
 487.5 20 l 1
 492.965820312 20 l 0
 501.0625 20 510 21 516.357421875 22.77734375 c 0
 533.555664062 27.5859375 542.80859375 46.1201171875 545.143554688 56.03515625 c 0
 620 375 l 1
 619.737304688 375.359375 618.669921875 376 617.881835938 376 c 1
 565.236328125 376.000976562 483.372070312 378 421.254882812 378 c 7
 360.084960938 378 292.119140625 376.041992188 243.904296875 376.020507812 c 1
 242.721679688 375.491210938 241.075195312 373.076171875 240.6796875 372.095703125 c 1
 232.918945312 335.678710938 222.957917814 298.200195312 214.485409972 262.6875 c 1
 196.805664062 192.198242188 182.7265625 134.318359375 165.827148438 64.146484375 c 5
 164.55859375 58.884765625 162.594726562 47.107421875 162.594726562 45.8720703125 c 0
EndSplineSet
Validated: 1
EndChar

StartChar: m
Encoding: 109 109 6
GlifName: m
Width: 875
VWidth: 0
Flags: W
HStem: -10.4502 52.3506<674.394 756.394> 0 21G<3.87988 91.7179 313.512 393.238> 465.7 46.75<69.2798 162.445 249.726 374.887 542.333 672.204>
VStem: 110.591 85.8271<412.931 481.371> 632.557 79.3818<42.1785 162.195> 700.255 75.6426<265.038 436.672>
LayerCount: 2
Fore
SplineSet
632.556640625 50.7080078125 m 4xb8
 632.556640625 69.943359375 640.868164062 107.87109375 651.196289062 148.327148438 c 6
 694 331 l 5
 698.206054688 348.541992188 700.254882812 364.53125 700.254882812 378.548828125 c 4
 700.254882812 426.834960938 667.013671875 465.700195312 610.825195312 465.700195312 c 3
 574.998046875 465.700195312 527.670898438 444.16796875 483.229492188 397.08203125 c 1
 482.409179688 392.553710938 480.998046875 387.71875 479.368164062 380.830078125 c 0
 388.463867188 0 l 1
 313.51171875 0 l 1
 395 351 l 1
 397.686523438 362.3046875 398.978515625 373.2421875 398.978515625 383.282226562 c 0
 398.978515625 435.387695312 365.228515625 465.700195312 312.142578125 465.700195312 c 0
 271.837890625 465.700195312 221.013671875 431.275390625 179 390 c 1
 87 0 l 1
 3.8798828125 0 l 1
 92.083984375 376.403320312 l 0
 98.298828125 401.606445312 110.590820312 451.322265625 110.590820312 456.50390625 c 0
 110.590820312 464.768554688 103.516601562 467.94140625 92.791015625 467.94140625 c 0
 78.017578125 467.94140625 60.8271484375 452.96484375 45.75 436.224609375 c 1
 31.2890625 446.997070312 l 1
 48.7333984375 479.260742188 84.4888808297 512.51953125 135.46683982 512.51953125 c 0
 189.423250861 512.51953125 196.41796875 489.666015625 196.41796875 473.075195312 c 0
 196.41796875 465.346679688 195 458.678291027 194 449 c 1
 240.110351562 495.5 286.896484375 512.450195312 344.19140625 512.450195312 c 0
 397.770507812 512.450195312 453.600585938 494.07421875 472.099609375 439.70703125 c 1
 524.212890625 497.655273438 568.930664062 506.522460938 627.0859375 506.522460938 c 0
 702.758789062 506.522460938 775.897460938 449.623046875 775.897460938 357.8125 c 0x74
 775.897460938 344.931640625 774.200195312 331.108398438 770.557617188 316.189453125 c 1
 726.504882812 133.19921875 l 1
 721.275390625 110.8671875 711.938476562 69.92578125 711.938476562 59.572265625 c 0
 711.938476562 50.0869140625 720.422851562 41.900390625 729.786132812 41.900390625 c 0
 741.952148438 41.900390625 760.5546875 46.0390625 782.235351562 62.5498046875 c 1
 794.810546875 51.802734375 l 17
 773.29296875 16.552734375 733.709960938 -10.4501953125 693.94140625 -10.4501953125 c 0
 654.846679688 -10.4501953125 632.556640625 14.5810546875 632.556640625 50.7080078125 c 4xb8
EndSplineSet
Validated: 1
EndChar

StartChar: w
Encoding: 119 119 7
GlifName: w
Width: 725
VWidth: 0
Flags: W
HStem: 437.487 74.1133<585.908 652.746> 458.3 53.7002<54.78 146.139>
VStem: 90.5693 89.3389<218.09 458.296> 326.043 65.623<301.112 437.942> 425.755 30.9082<321.336 428.342> 652.852 36.585<353.909 437.442>
LayerCount: 2
Fore
SplineSet
187.868164062 300.2578125 m 0x7c
 198.793945312 179.140625 215.016601562 104.337890625 224.825195312 74.9833984375 c 1
 244.890625 100.624023438 296.80859375 166.6875 339.532226562 227.291015625 c 1
 334.110351562 275.994140625 326.04296875 337.982421875 326.04296875 385.696289062 c 0
 326.04296875 425.077148438 332.078125 451.6875 344.653320312 460.61328125 c 0
 352.631835938 466.276367188 373.776367188 468.229492188 384.241210938 468.229492188 c 0
 430.895507812 468.229492188 456.663085938 424.685546875 456.663085938 381.561523438 c 0
 456.663085938 339.330078125 431.7421875 283.463867188 413 253 c 1
 424.208984375 158.092773438 447.705078125 109.487304688 456.892578125 83.9189453125 c 1
 495.655273438 134.846679688 652.8515625 340.649414062 652.8515625 412.993164062 c 0
 652.8515625 427.881835938 643.671875 437.487304688 633.765625 437.487304688 c 0
 626.171875 437.487304688 612.55078125 429.73828125 600.233398438 429.73828125 c 0
 578.881835938 429.73828125 566.271484375 453.43359375 566.271484375 469.875 c 0
 566.271484375 495.7421875 585.029296875 511.600585938 613.84375 511.600585938 c 0xbc
 635.141601562 511.600585938 650.04296875 501.353515625 662.759765625 486.928710938 c 0
 681.801757812 465.329101562 689.436523438 438.274414062 689.436523438 410.448242188 c 0
 689.436523438 374.573242188 676.947265625 337.010742188 659.14453125 305.5546875 c 0
 605.248046875 210.328125 530.732421875 126.124023438 445.543945312 4.0107421875 c 0
 440.249023438 -3.7880859375 431.159179688 -11.5498046875 421.23046875 -11.5498046875 c 0
 409.934570312 -11.5498046875 402.565429688 -2.228515625 399.540039062 5.3955078125 c 0
 380.754882812 52.7509765625 364.877929688 87.7275390625 349.153320312 186.866210938 c 1
 310.313476562 130.942382812 259.84765625 65.5654296875 210.012695312 2.87109375 c 0
 204.436523438 -4.1435546875 195.185546875 -11.5498046875 184.796875 -11.5498046875 c 0
 175.024414062 -11.5498046875 168.599609375 -2.5986328125 165.37890625 3.86328125 c 0
 136.977539062 59.1123046875 117.876953125 101.759765625 98.2265625 275.177734375 c 0
 91.189453125 337.283203125 90.5693359375 377.572265625 90.5693359375 403.288085938 c 0
 90.5693359375 423.676757812 91.6875 442.608398438 91.6875 446.797851562 c 0
 91.6875 453.243164062 82.953125 458.299804688 76.9375 458.299804688 c 0
 58.9951171875 458.299804688 39.4619140625 449.248046875 20.01171875 433.29296875 c 1
 8.0908203125 442.97265625 l 1
 27.9287041978 478.335478394 73.585662104 512 128.6875 512 c 0
 163.590820312 512 179.700195312 484.3828125 179.908203125 471.047851562 c 0
 180.296875 446.005859375 179.831054688 389.3671875 187.868164062 300.2578125 c 0x7c
425.754882812 393.47265625 m 3
 425.754882812 407.614257812 413.240234375 430.099609375 398.83203125 438.984375 c 1
 394.580078125 414.743164062 391.666015625 379.548828125 391.666015625 359.234375 c 0
 391.666015625 345.447265625 396.263671875 313.684570312 398.647460938 299.865234375 c 1
 419.50390625 329.986328125 425.754882812 372.88671875 425.754882812 393.47265625 c 3
EndSplineSet
Validated: 1
EndChar

StartChar: x
Encoding: 120 120 8
GlifName: x
Width: 627
VWidth: 0
Flags: W
HStem: -8.75977 42.0557<82.3472 161.247 409.207 516.054> 455.563 54.9395<473.204 549.915> 468.9 43.0996<146.319 247.791>
LayerCount: 2
Fore
SplineSet
129.862304688 33.2958984375 m 0xc0
 142.79296875 33.2958984375 173.306640625 60.0966796875 190.264648438 80.658203125 c 0
 219.516601562 116.127929688 239.512695312 148.26953125 287.564453125 243.892578125 c 1
 268.55078125 330.177734375 218.858639879 424.043509996 203.858398438 449.759765625 c 0
 195.7890625 463.59375 177.27734375 468.900390625 168.209960938 468.900390625 c 0
 148.686523438 468.900390625 128.765625 449.51953125 115.405273438 433.8125 c 1
 105.857421875 442.932617188 l 1
 124.854089128 480.577548809 159.666992188 512 217.177734375 512 c 0xa0
 278.403320312 512 324.004882812 391.25 342.071289062 324.109375 c 1
 389.127929688 398.357421875 406.384385619 426.095703125 446.652494654 465.55859375 c 0
 469.891471505 488.333984375 495.940429688 510.502929688 534.2890625 510.502929688 c 0
 565.540039062 510.502929688 592.350585938 495.806640625 592.350585938 462.34375 c 0
 592.350585938 445.096679688 579.036132812 422.33984375 550.807617188 422.33984375 c 0
 536.200195312 422.33984375 527.19140625 432.077148438 519.353515625 442.06640625 c 0
 512.653320312 450.612304688 508.057617188 455.563476562 501.748046875 455.563476562 c 0
 484.818359375 455.563476562 472.50390625 448.341796875 460.524414062 436.248046875 c 0
 421.588867188 396.940429688 399.607421875 363.420898438 352.361328125 284.388671875 c 1
 352.5078125 282.331054688 353.39453125 278.84765625 353.956054688 276.956054688 c 0
 376.806640625 199.911132812 393.989257812 157.688476562 433.536132812 84.279296875 c 0
 447.006835938 59.2744140625 466.947265625 37 482.020507812 37 c 0
 503.895507812 37 523.233398438 48.3486328125 541.700195312 68.640625 c 1
 553.630859375 60.1171875 l 1
 536.254013294 23.3725803102 508.076171875 -6 455.000976562 -6 c 0
 363.634765625 -6 324.30794655 131.958007812 303.885228096 203.897460938 c 1
 262.071797992 120.766601562 239.602931641 85.6943359375 212.135997143 56.330078125 c 0
 178.863143485 20.759765625 141.706054688 -8.759765625 97.8720703125 -8.759765625 c 0
 66.822265625 -8.759765625 30.703125 9.7529296875 30.703125 38.7001953125 c 0
 30.703125 64.4619140625 47.8671875 86.90234375 74.1669921875 86.90234375 c 0
 118.916992188 86.90234375 102.896484375 33.2958984375 129.862304688 33.2958984375 c 0xc0
EndSplineSet
Validated: 1
EndChar

StartChar: X
Encoding: 88 88 9
GlifName: X_
Width: 652
VWidth: 0
Flags: W
HStem: 0 20<-61.5 -22.0418 56.1383 92.4307 377.5 413.683 542.375 573.431> 710 20<123.156 157.436 272.898 311.431 565.5 593.956 681.429 721.775>
LayerCount: 2
Fore
SplineSet
124.965820312 710 m 0
 118.53125 710 l 1
 123.15625 730 l 1
 315.930664062 730 l 1
 311.430664062 710 l 1
 305.965820312 710 l 0
 278.594726562 710 261.76953125 697.362304688 261.76953125 676.754882812 c 0
 261.76953125 672.033203125 265.49609375 663.0859375 268.47265625 655.580078125 c 0
 363.536132812 439.005859375 l 1
 571.775390625 652.697265625 l 1
 590.625 673.641601562 598.275390625 679.681640625 598.275390625 690.924804688 c 0
 598.275390625 696.442382812 589.810546875 710 570.965820312 710 c 0
 560.534179688 710 l 1
 565.5 730 l 1
 726.400390625 730 l 1
 721.775390625 710 l 1
 715.965820312 710 l 0
 680.87890625 710 668.911132812 689.72265625 647.1171875 666.951171875 c 1
 387.352539062 389.764648438 l 1
 393.21875 375.079101562 l 1
 456.499023438 238.977539062 504.530273438 107.8359375 531.397460938 48.37890625 c 1
 538.915039062 30.70703125 545.719726562 20 569.965820312 20 c 0
 578.930664062 20 l 1
 573.430664062 0 l 1
 372 0 l 1
 377.5 20 l 1
 382.965820312 20 l 2
 405.024414062 20 422.732421875 31.4072265625 422.732421875 49.208984375 c 0
 422.732421875 55.384765625 420.965820312 64.5849609375 417.40234375 74.5634765625 c 1
 314.875976562 322.858398438 l 1
 87.1044921875 76.24609375 l 1
 72.18359375 58.330078125 61.505859375 45.8193359375 58.73828125 40.2294921875 c 0
 56.9580078125 36.6337890625 56.08984375 33.5390625 56.08984375 30.923828125 c 0
 56.08984375 23.30078125 63.4609375 19.75 77.0908203125 19.75 c 0
 80.1142578125 19.75 83.669921875 20 87.9658203125 20 c 0
 97.3173828125 20 l 1
 92.4306640625 0 l 1
 -66 0 l 1
 -61.5 20 l 1
 -56.0341796875 20 l 0
 -20.984375 20 -12.927734375 39.2880859375 9.806640625 63.0419921875 c 1
 287.896484375 366.459960938 l 1
 236.9609375 496.594726562 190.767578125 630.694335938 165 687 c 1
 158.05859375 703.317382812 150.875976562 710 124.965820312 710 c 0
EndSplineSet
EndChar

StartChar: d
Encoding: 100 100 10
GlifName: d
Width: 568
VWidth: 0
Flags: W
HStem: -6.7998 32.3496<165.27 289.65> 485.85 26.0508<282.939 386.508> 729.101 15.3711<453.96 480.428> 754.15 20G<571.493 577.23>
VStem: 40.2793 86.3125<65.6131 297.852> 485.119 98.9424<686.272 764.516>
LayerCount: 2
Fore
SplineSet
447.465820312 49.580078125 m 1
 447.465820312 22.5595703125 l 1
 415.070794029 7.90395050468 379.669800394 -6.7998046875 352.183475043 -6.7998046875 c 0
 331.263425049 -6.7998046875 326.293711403 10.69921875 326.293711403 23.2353515625 c 0
 326.293711403 23.2353515625 257.039560062 -9.9501953125 209.22264059 -9.9501953125 c 0
 113.479492188 -9.9501953125 40.279296875 41.587890625 40.279296875 161.98828125 c 0
 40.279296875 373.969726562 164.479492188 511.900390625 327.388671875 511.900390625 c 0
 366.370117188 511.900390625 401.46484375 503.635742188 432.209960938 475.251953125 c 1
 480.817382812 681.631835938 l 1
 482.422851562 688.053710938 485.119140625 696.342773438 485.119140625 703.811523438 c 0
 485.119140625 710.366210938 484.750637372 718.141655601 481.094726562 721.638671875 c 0
 475.751629787 726.74954502 465.622070312 729.100585938 458.801757812 729.100585938 c 0
 450.584960938 729.100585938 l 1
 453.959960938 744.471679688 l 1
 491.499255775 753.922944746 529.609267516 762.803492901 566.677734375 772.725585938 c 0
 567.420898438 772.958007812 569.760742188 774.150390625 573.224609375 774.150390625 c 0
 581.236328125 774.150390625 584.061523438 766.616210938 584.061523438 762.415039062 c 0
 584.061523438 757.73828125 582.610351562 752.530273438 581.129882812 746.608398438 c 1
 417.791015625 58.6435546875 l 1
 413.71875 41.4677734375 l 1
 447.465820312 49.580078125 l 1
339.7421875 77.509765625 m 1
 409.1171875 374.6875 l 1
 410.484375 381.7890625 413.634765625 396.934570312 413.634765625 402.978515625 c 0
 413.634765625 453.935546875 393.013671875 485.849609375 341.083007812 485.849609375 c 0
 209.849609375 485.849609375 126.591796875 318.9765625 126.591796875 155.94140625 c 0
 126.591796875 78.5302734375 145.483398438 25.5498046875 223.416015625 25.5498046875 c 0
 273.608398438 25.5498046875 332.752929688 60.8544921875 339.7421875 77.509765625 c 1
EndSplineSet
Validated: 1
EndChar

StartChar: f
Encoding: 102 102 11
GlifName: f
Width: 496
VWidth: 0
Flags: W
HStem: -179.2 28.1504<-102.173 -28.924> 447.063 44.9268<104.4 141.121 231.772 349.181> 742.775 26.0498<358.136 426.66>
LayerCount: 2
Fore
SplineSet
360.006835938 474.899414062 m 0
 360.006835938 467.924804688 355.595703125 458.948242188 353 454 c 2
 349.180664062 447.063476562 l 1
 344.467773438 447.063476562 l 0
 338.899414062 447.063476562 265.713867188 450.797851562 227.05859375 451.155273438 c 1
 122.749323872 16.6806640625 l 0
 90.5501109093 -123.77734375 29.687828806 -179.200195312 -89.4501953125 -179.200195312 c 0
 -127.66015625 -179.200195312 -174.852539062 -165.87109375 -201.645507812 -116.751953125 c 1
 -201.645507812 -116.751953125 -205.012695312 -107.977539062 -205.012695312 -105.618164062 c 0
 -205.012695312 -82.9560546875 -172.559570312 -73.849609375 -158.75 -73.849609375 c 0
 -98.630859375 -73.849609375 -130.512695312 -151.049804688 -69.884765625 -151.049804688 c 0
 -8.6220703125 -151.049804688 21.2324445442 -78.98046875 43.0302884697 24.125 c 0
 141.12109375 450.807617188 l 1
 117.453125 450.04296875 98.2587890625 446.942382812 98.1650390625 446.927734375 c 0
 85.34375 444.916015625 l 1
 104.400390625 487.560546875 l 1
 147.881835938 487.560546875 l 1
 149.66796875 494.46875 152.553710938 505.831054688 155.557617188 518.693359375 c 0
 157.815429688 528.568359375 161.029296875 538.916992188 163.194335938 547.333007812 c 1
 210.3515625 708.221679688 298.688476562 768.825195312 417.41796875 768.825195312 c 0
 456.096679688 768.825195312 502.1328125 753.033203125 527.194335938 700.774414062 c 1
 530.298828125 695.022460938 530.107421875 694.452148438 530.107421875 691.188476562 c 0
 530.107421875 667.235351562 497.673828125 656.125 482.517578125 656.125 c 0
 421.875976562 656.125 457.879882812 742.775390625 397.854492188 742.775390625 c 0
 335.973632812 742.775390625 271.920898438 656.279296875 243.078125 537.616210938 c 0
 231.772460938 491.990234375 l 1
 329.66015625 491.990234375 l 0
 346.134765625 491.990234375 360.006835938 487.936523438 360.006835938 474.899414062 c 0
EndSplineSet
EndChar

StartChar: j
Encoding: 106 106 12
GlifName: j
Width: 353
VWidth: 0
Flags: W
HStem: -165.7 52.2998<-115.196 9.10278> 463.3 48.25<155.376 247.494> 610.625 105.6<230.852 301.678>
VStem: 194.666 86.9775<365.175 489.694> 213.804 103.946<626.413 699.374>
LayerCount: 2
Fore
SplineSet
213.803710938 649.872070312 m 0xe8
 213.803710938 687.62109375 244.52734375 716.224609375 274.862304688 716.224609375 c 0
 299.194335938 716.224609375 317.75 698.326171875 317.75 673.22265625 c 0
 317.75 634.525390625 284.307617188 610.625 254.8125 610.625 c 0
 231.2890625 610.625 213.803710938 625.740234375 213.803710938 649.872070312 c 0xe8
281.643554688 472.362304688 m 0xf0
 281.643554688 446.08984375 267.292893626 393.941815161 257.68359375 354.377929688 c 2
 191.643554688 82.474609375 l 1
 188.444335938 67.880859375 184.152681861 53.54296875 180.841574467 39.3583984375 c 1
 167.132300358 -14.115234375 145.881521595 -49.7177734375 93.5121568919 -92.5576171875 c 1
 59.0907829234 -120.572265625 -9.49609375 -165.700195312 -84.3896484375 -165.700195312 c 0
 -105.340820312 -165.700195312 -126.213867188 -161.28515625 -146.975585938 -152.54296875 c 1
 -154.737304688 -149.217773438 -158.037109375 -142.54296875 -158.037109375 -136.325195312 c 0
 -158.037109375 -102.088867188 -115.375 -88.2001953125 -90.5400390625 -88.2001953125 c 0
 -57.6435546875 -88.2001953125 -41.6337890625 -113.400390625 -17.71875 -113.400390625 c 0
 -10.5625 -113.400390625 -0.2451171875 -110.668945312 10.2548828125 -105.739257812 c 0
 67.98828125 -79.30859375 78.5908203125 -41.158203125 95.4208984375 25.6162109375 c 0
 177.505859375 366.48046875 l 1
 183.06640625 389.90234375 194.424804688 436.954101562 194.666015625 448.087890625 c 1
 194.666015625 454.8671875 191.568359375 463.299804688 183.661132812 463.299804688 c 0
 165.909179688 463.299804688 149.69140625 456.166015625 127.072265625 436.73828125 c 0
 112.7890625 448.142578125 l 1
 133.73046875 482.966796875 180.213867188 511.549804688 233.810546875 511.549804688 c 0
 261.176757812 511.549804688 281.643554688 500.650390625 281.643554688 472.362304688 c 0xf0
EndSplineSet
Validated: 1
EndChar

StartChar: g
Encoding: 103 103 13
GlifName: g
Width: 552
VWidth: 0
Flags: W
HStem: -271.65 30.25<78.3279 229.133> 435.302 71.1982<453.461 524.966> 477.2 34.4502<261.376 364.079>
VStem: -40.1611 79.4219<-214.225 -114.375> 43.04 107.746<13.1606 58.3208> 85.8613 85.9043<161.942 359.222> 351.614 73.4717<-139.272 -57.5834> 393.859 73.4736<248.769 436.245>
LayerCount: 2
Fore
SplineSet
143.166015625 -241.400390625 m 0x92
 239.459960938 -241.400390625 351.614257812 -184.094726562 351.614257812 -99.3349609375 c 0
 351.614257812 -41.4746913834 279.37633267 -37.9971881243 206.248046875 -30.384765625 c 1
 117.638671875 -55.5537109375 39.2607421875 -84.0751953125 39.2607421875 -165.913085938 c 0
 39.2607421875 -209.376953125 80.169921875 -241.400390625 143.166015625 -241.400390625 c 0x92
171.765625 249.908203125 m 0xb5
 171.765625 188.44140625 195.081054688 126.799804688 245.572265625 126.799804688 c 0
 346.071289062 126.799804688 393.859375 265.961914062 393.859375 375.750976562 c 0
 393.859375 433.856445312 370.646484375 477.200195312 312.704101562 477.200195312 c 0
 224.872070312 477.200195312 171.765625 351.436523438 171.765625 249.908203125 c 0xb5
425.0859375 -60.328125 m 0xda
 425.0859375 -202.841796875 250.58203125 -271.650390625 133.595703125 -271.650390625 c 0
 48.1591796875 -271.650390625 -40.1611328125 -254.416992188 -40.1611328125 -180.487304688 c 0
 -40.1611328125 -83.6943359375 67.9130859375 -45.6943359375 143.798828125 -23.70703125 c 1
 124.252929688 -21.45703125 107.80078125 -18.57421875 94.583984375 -15.2392578125 c 5
 70.3486328125 -9.71484375 43.0400390625 1.615234375 43.0400390625 24.7060546875 c 0xda
 43.0400390625 69.1845703125 136.724609375 93.3681640625 182.357421875 106.224609375 c 1
 129.580078125 121.1640625 85.861328125 164.924804688 85.861328125 246.74609375 c 0
 85.861328125 409.139648438 199.228515625 511.650390625 326.318359375 511.650390625 c 0xb4
 363.141601562 511.650390625 401.791992188 501.150390625 426.829101562 476.864257812 c 1
 460.046875 497.013671875 485.625 506.5 522.3359375 506.5 c 0
 534.0078125 506.5 539.375 496.3359375 539.375 487.184570312 c 0
 539.375 452.044921875 495.049804688 435.301757812 465.971679688 435.301757812 c 0
 462.96484375 435.301757812 455.294921875 435.705078125 453 436 c 1
 462 418 467.333007812 388.02734375 467.333007812 363.354492188 c 0xd5
 467.333007812 118.680664062 279.971679688 110.384765625 161.947265625 57.4541015625 c 0
 155.673828125 54.640625 150.786132812 49.09375 150.786132812 45.591796875 c 0
 150.786132812 41.376953125 154.837890625 36.904296875 163.77734375 34.6337890625 c 0
 167.948242188 33.5751953125 190.171875 31.0947265625 203.795898438 29.884765625 c 0
 229.811523438 27.5751953125 252.251953125 27.44140625 281.889648438 25.673828125 c 0
 364.228515625 20.763671875 425.0859375 5.2705078125 425.0859375 -60.328125 c 0xda
EndSplineSet
Validated: 1
EndChar

StartChar: q
Encoding: 113 113 14
GlifName: q
Width: 568
VWidth: 0
Flags: W
HStem: -9.59961 35.5996<176.397 298.704> 485.15 27.0996<282.109 379.121>
VStem: 45.793 86.0908<71.6379 305.858>
LayerCount: 2
Fore
SplineSet
514.458984375 521.326171875 m 2
 517.575195312 523.875976562 520.487304688 526 525.032226562 526 c 0
 528.48046875 526 536.983398438 523.669921875 536.983398438 514.6171875 c 0
 536.983398438 509.821289062 535.251953125 502.91796875 533.883789062 497.447265625 c 2
 361.0546875 -232 l 1
 275.153320312 -232 l 1
 340 22 l 1
 306 0 255.228351842 -9.599609375 213.658642293 -9.599609375 c 0
 111.62890625 -9.599609375 45.79296875 40.91796875 45.79296875 173.159179688 c 0
 45.79296875 361.392578125 164.176495912 512.25 337.952847955 512.25 c 0
 372.466802458 512.25 418.630597102 499.359375 451.678710938 470.342773438 c 1
 514.458984375 521.326171875 l 2
131.883789062 184.109375 m 0
 131.883789062 93.5703125 155.384765625 26 228 26 c 0
 263.760742188 26 324 50 352 74 c 1
 427.807617188 404.47265625 l 1
 427.901367188 404.745117188 l 1
 428.224609375 405.774414062 l 1
 428.1328125 405.978515625 l 2
 409.564453125 446.088867188 385.80078125 485.150390625 332.74609375 485.150390625 c 0
 217.819335938 485.150390625 131.883789062 316.310546875 131.883789062 184.109375 c 0
EndSplineSet
Validated: 1
EndChar

StartChar: p
Encoding: 112 112 15
GlifName: p
Width: 555
VWidth: 0
Flags: W
HStem: -12.0254 30.1006<176.935 276.123> 461.925 50.0498<86.8276 169.687> 476.325 35.5<270.847 383.406>
VStem: 421.759 86.0146<198.962 433.09>
LayerCount: 2
Fore
SplineSet
-27 -232 m 1xb0
 114.438476562 373.6484375 l 2
 117.560546875 385.911132812 131.706054688 436.442382812 131.706054688 449.6328125 c 0
 131.706054688 455.958984375 123.841796875 461.924804688 115.383789062 461.924804688 c 0
 99.1796875 461.924804688 78.77734375 452.57421875 59.228515625 434.717773438 c 1
 46.30859375 445.3984375 l 1
 67.5076890681 482.934288973 105.981445312 511.974609375 155.778320312 511.974609375 c 0xd0
 183.595703125 511.974609375 220.219146644 500.829101562 220.219146644 475.575195312 c 0
 220.219146644 473.374023438 219.707274765 467.814453125 219.056173736 461.848632812 c 1
 254.326193649 492.809570312 292.753439308 511.825195312 336.110011157 511.825195312 c 0
 430.596679688 511.825195312 507.7734375 460.614257812 507.7734375 338.23828125 c 0
 507.7734375 113.977539062 377.938476562 -12.025390625 214.728515625 -12.025390625 c 0
 181.11328125 -12.025390625 148.012695312 -1.6552734375 115.056640625 20.3095703125 c 1
 55.2314453125 -232 l 1
 -27 -232 l 1xb0
331.04296875 476.325195312 m 0xb0
 286.865234375 476.325195312 245.110021557 445.1015625 208.303793057 410.388671875 c 1
 138.373046875 118.547851562 l 1
 145.12109375 63.1064453125 165.486328125 18.0751953125 226.037109375 18.0751953125 c 0
 317.509765625 18.0751953125 421.758789062 158.016601562 421.758789062 327.634765625 c 0
 421.758789062 404.7578125 407.213867188 476.325195312 331.04296875 476.325195312 c 0xb0
EndSplineSet
Validated: 1
EndChar

StartChar: o
Encoding: 111 111 16
GlifName: o
Width: 514
VWidth: 0
Flags: W
HStem: -10.375 35.5<139.092 256.722> 475.875 35.5<237.046 348.831>
VStem: 12.6758 85.1455<62.5964 282.951> 389.483 84.418<213.122 435.406>
LayerCount: 2
Fore
SplineSet
473.901367188 349.989257812 m 4
 473.901367188 118.9453125 336.359645084 -10.375 189.682818346 -10.375 c 4
 89.060546875 -10.375 12.67578125 29.427734375 12.67578125 149.85546875 c 4
 12.67578125 351.249023438 150.69292825 511.375 300.655808299 511.375 c 4
 398.828125 511.375 473.901367188 463.053710938 473.901367188 349.989257812 c 4
294.962890625 475.875 m 4
 170.955078125 475.875 97.8212890625 278.885742188 97.8212890625 150.247070312 c 4
 97.8212890625 82.66796875 119.109375 25.125 199.013671875 25.125 c 4
 318.37109375 25.125 389.483398438 215.03125 389.483398438 344.278320312 c 4
 389.483398438 409.455078125 366.75390625 475.875 294.962890625 475.875 c 4
EndSplineSet
Validated: 1
EndChar

StartChar: I
Encoding: 73 73 17
GlifName: I_
Width: 337
VWidth: 0
Flags: W
HStem: 0 21<-4.5 24.0066 156.586 183.431> 710 20<163.5 188.803 320.543 351.431>
LayerCount: 2
Fore
SplineSet
146.122127829 42.3633672294 m 0
 146.122127829 35.0702453787 148.832814326 27.6139267799 156.31640625 24.7265625 c 0
 162.025390625 22.5244140625 170.8515625 21 178.965820312 21 c 0
 187.930664062 21 l 1
 183.430664062 0 l 1
 -9 0 l 1
 -4.5 20 l 1
 0.9658203125 20 l 0
 9.0859375 20 16.099609375 20.8232421875 24.39453125 23.78515625 c 0
 39 29 49.5291512738 42.8542591307 53.154296875 57.0498046875 c 0
 103.431387409 253.927615303 156.576596954 476.961368465 198.135742188 672.014648438 c 0
 198.542977277 673.925961564 199.78515625 680.625976562 199.78515625 682.315429688 c 0
 199.78515625 693.443813053 199 699 189.041992188 705.3046875 c 0
 183.965820312 708.518554688 177.012695312 710 168.965820312 710 c 0
 159 710 l 1
 163.5 730 l 1
 355.930664062 730 l 1
 351.430664062 710 l 1
 345.965820312 710 l 0
 338.295898438 710 327.849609375 709.469726562 320.181640625 707.145507812 c 0
 306.432617188 702.977539062 296.339401581 684.95042722 293.771484375 674.888671875 c 0
 246.320520957 488.963680341 189.551757812 242.545898438 149 59 c 0
 147.855172878 53.8182684531 146.122127829 48.0328039729 146.122127829 42.3633672294 c 0
EndSplineSet
Validated: 1
EndChar

StartChar: y
Encoding: 121 121 18
GlifName: y
Width: 507
VWidth: 0
Flags: W
HStem: 468.925 43.25<65.3543 142.296>
VStem: 410.686 69.3867<418.247 508.871>
LayerCount: 2
Fore
SplineSet
141.455078125 90.76953125 m 0
 141.455078125 139.818359375 138.326171875 205.641601562 131.546875 280.928710938 c 0
 129.301757812 305.682617188 110.629882812 441.793945312 107.91015625 452.95703125 c 0
 105.696289062 462.038085938 97.271484375 468.924804688 90.51171875 468.924804688 c 0
 71.896484375 468.924804688 50.1572265625 451.962890625 36.564453125 433.91796875 c 1
 26.6455078125 442.598632812 l 1
 42.9387532627 475.231356807 75.83203125 512.174804688 128.169921875 512.174804688 c 0
 156.421875 512.174804688 189.86328125 501.551757812 192.555664062 473.2578125 c 0
 194.9140625 448.471679688 210.888110274 344.05078125 213.09259048 297.747070312 c 1
 219.396953557 230.729492188 223.192382812 146.89453125 224.05078125 111.701171875 c 1
 250.98046875 144.600585938 298.513671875 208.766601562 341.047851562 280.232421875 c 0
 390.057617188 364.674804688 404.49609375 411.224609375 405.158203125 415.416992188 c 0
 408.299804688 435.315429688 406.465820312 460.120117188 410.685546875 483.327148438 c 0
 413.834960938 500.65625 431.32421875 512.040039062 447.4765625 512.040039062 c 0
 473.504882812 512.040039062 480.072265625 488.000976562 480.072265625 471.55859375 c 0
 480.072265625 454.361328125 460.310546875 422.709960938 455.1953125 412.196289062 c 0
 435.408203125 371.52734375 438.22265625 371.68359375 380.513671875 273.341796875 c 0
 329.433675134 188.689453125 265.356374447 114.712890625 223.949194947 50.7607421875 c 0
 198.05115799 10.763671875 165.138493675 -44.2646484375 149.139125497 -64.4921875 c 1
 119.079799535 -104.444335938 9.61328125 -251.174804688 -48.6611328125 -251.174804688 c 0
 -62.3154296875 -251.174804688 -65.6064453125 -236.393554688 -65.6064453125 -227.659179688 c 0
 -65.6064453125 -214.192382812 -59.5498046875 -202.30078125 -55.8212890625 -194.84375 c 0
 -55.7509765625 -194.703125 l 1
 -55.673828125 -194.565429688 l 0
 -23.53125 -136.9296875 20.8369140625 -155.727539062 58.0732421875 -116.803710938 c 0
 77.7001953125 -97.0908203125 122.295898438 -31.9599609375 132.48828125 -13.6943359375 c 1
 136.639648438 -3.158203125 141.455078125 46.400390625 141.455078125 90.76953125 c 0
EndSplineSet
Validated: 1
EndChar

StartChar: v
Encoding: 118 118 19
GlifName: v
Width: 493
VWidth: 0
Flags: W
HStem: 437.487 74.1133<324.508 391.484> 458.3 53.25<31.4454 124.901>
VStem: 65.123 88.4824<202.238 458.295> 391.902 37.5342<345.806 436.786>
LayerCount: 2
Fore
SplineSet
161.786132812 300.2578125 m 0x70
 173.06640625 179.934570312 188.852539062 111.33203125 197.879882812 82.3427734375 c 1
 242.78515625 130.936523438 391.90234375 333.982421875 391.90234375 410.85546875 c 0
 391.90234375 425.798828125 381.705078125 437.487304688 371.765625 437.487304688 c 0
 364.171875 437.487304688 351.55078125 428.73828125 339.233398438 428.73828125 c 0
 317.881835938 428.73828125 303.990234375 453.43359375 303.990234375 469.875 c 0
 303.990234375 495.7421875 325.029296875 511.600585938 353.84375 511.600585938 c 0xb0
 375.141601562 511.600585938 390.04296875 501.352539062 402.759765625 486.926757812 c 0
 421.801757812 465.326171875 429.436523438 438.26953125 429.436523438 410.440429688 c 0
 429.436523438 374.563476562 416.947265625 336.998046875 399.14453125 305.540039062 c 0
 345.388671875 210.5546875 279.635742188 120.049804688 183.512695312 2.6826171875 c 0
 177.09765625 -5.3662109375 170.6640625 -11.5498046875 159.4921875 -11.5498046875 c 0
 149.3359375 -11.5498046875 142.658203125 -2.5986328125 139.310546875 3.86328125 c 0
 109.607421875 59.45703125 92.861328125 101.903320312 73.2265625 275.177734375 c 0
 66.748046875 332.358398438 65.123046875 371.061523438 65.123046875 396.931640625 c 0
 65.123046875 421.385742188 65.6875 441.232421875 65.6875 445.828125 c 0
 65.6875 452.129882812 53.7666015625 458.299804688 46.9375 458.299804688 c 0
 29.8359375 458.299804688 13.7880859375 451.6953125 -5.98828125 433.29296875 c 1
 -15.9091796875 442.97265625 l 1
 3.7470703125 477.78515625 52.1887981891 511.549804688 102.6875 511.549804688 c 0
 147.114257812 511.549804688 154.588867188 478.427734375 154.588867188 465 c 0
 154.588867188 459.711914062 153.60546875 454.484375 153.60546875 454.463867188 c 0
 153.60546875 424.587890625 154.935546875 373.336914062 161.786132812 300.2578125 c 0x70
EndSplineSet
Validated: 1
EndChar

StartChar: u
Encoding: 117 117 20
GlifName: u
Width: 541
VWidth: 0
Flags: W
HStem: -9.59961 37.5996<128.54 254.126> -7.5 21G<320.124 346.835> 457.75 54.25<62.9304 130.818>
VStem: 28.1592 82.1641<42.2435 208.6> 101.809 87.8848<357.906 486.893>
LayerCount: 2
Fore
SplineSet
33.5322265625 142.458984375 m 1xb0
 87.2333984375 365.331054688 l 2
 92.4365234375 388.559570312 101.573242188 426.71875 101.80859375 437.580078125 c 1
 101.80859375 449.328125 88.7119140625 457.75 80.052734375 457.75 c 0
 62.0771484375 457.75 43.9072265625 452.329101562 26.126953125 433.743164062 c 1
 16.2060546875 443.422851562 l 1
 36.0310880535 478.533964168 83.369140625 512 133.953125 512 c 0
 159.8359375 512 189.48828125 504.34375 189.693359375 468.419921875 c 1xa8
 189.693359375 441.681640625 175.084960938 393.461914062 167.029296875 353.694335938 c 1
 119.296875 156.0859375 l 1
 116.604492188 144.970703125 110.323242188 119.140625 110.323242188 105.954101562 c 0
 110.323242188 46.357421875 135.903320312 28 182.877929688 28 c 0xb0
 215.264648438 28 261.458984375 38.705078125 307.6328125 68.3056640625 c 1
 412.232421875 516.799804688 l 1
 490.659179688 516.799804688 l 1
 381 37 l 5
 416.297851562 46.31640625 l 1
 418.438476562 22.341796875 l 1
 386.944021275 7.63778498935 361.285516956 -7.5 332.383789062 -7.5 c 0x70
 307.864257812 -7.5 301.851089342 13.646484375 301.851089342 26.1689453125 c 0
 301.851089342 28.837890625 302.074444726 32.4892578125 302.194952747 33.8994140625 c 1
 256.020642285 5.80859375 216.677889985 -9.599609375 159.473979007 -9.599609375 c 0
 94.6533203125 -9.599609375 28.1591796875 20.7529296875 28.1591796875 100.477539062 c 0
 28.1591796875 113.303710938 29.8623046875 127.17578125 33.5322265625 142.458984375 c 1xb0
EndSplineSet
Validated: 1
EndChar

StartChar: n
Encoding: 110 110 21
GlifName: n
Width: 533
VWidth: 0
Flags: W
HStem: -9.4502 48.3506<383.711 468.788> 0.200195 21G<6.4248 93.7157> 466.75 45.7002<72.7279 164.594 252.868 373.265>
VStem: 111.912 85.7962<409.541 481.395> 343.859 77.9258<39.0049 154.062> 406.295 81.2002<296.441 430.442>
LayerCount: 2
Fore
SplineSet
197.708269762 469.471679688 m 0x74
 197.708269762 463.899414062 197.439593841 457.325195312 196.045579163 449.360351562 c 1
 231.012716813 480.686523438 270.838867188 512.4609375 340.124023438 512.4609375 c 0
 422.14453125 512.4609375 487.495117188 446.782226562 487.495117188 359.705078125 c 0x74
 487.495117188 347.25390625 486.916992188 337.942382812 483.522460938 323.55859375 c 2
 438.35546875 133.19140625 l 1
 433.08984375 110.706054688 421.78515625 67.779296875 421.78515625 57.5732421875 c 0
 421.78515625 49.130859375 432.178710938 38.900390625 440.631835938 38.900390625 c 0
 455.545898438 38.900390625 475.353515625 46.00390625 494.08203125 64.5498046875 c 1
 507.784179688 54.0185546875 l 0
 487.086914062 19.2236328125 450.008789062 -9.4501953125 399.594726562 -9.4501953125 c 0
 367.827148438 -9.4501953125 343.859375 12.3251953125 343.859375 46.9853515625 c 4xb8
 343.859375 72.5009765625 352.204101562 104.310546875 361.05859375 143.717773438 c 5
 400 310 l 6
 402.227539062 319.38671875 406.294921875 335.491210938 406.294921875 343.853515625 c 4
 406.294921875 409.473632812 382.262695312 465.5 319.82421875 465.5 c 0
 270.77734375 465.5 224.5234375 432.876953125 180.775390625 389.739257812 c 1
 89.00390625 0.2001953125 l 1
 6.4248046875 0.2001953125 l 1
 93.6865234375 375.208984375 l 0
 100.561523438 402.556640625 111.912109375 447.34765625 111.912109375 457.260742188 c 0
 111.912109375 462.657226562 103.516601562 466.75 97.1123046875 466.75 c 0
 83.0126953125 466.75 62.11328125 458.094726562 47.1875 434.060546875 c 1
 34.791015625 445.322265625 l 1
 54.7491969431 480.669189818 85.3837890625 512.450195312 141.553710938 512.450195312 c 0
 187.633789062 512.450195312 197.708269762 493.318359375 197.708269762 469.471679688 c 0x74
EndSplineSet
Validated: 1
EndChar

StartChar: b
Encoding: 98 98 22
GlifName: b
Width: 549
VWidth: 0
Flags: W
HStem: -3.65039 23.2734<2.94727 33.0316 180.92 269.462> 484.4 27.5<273.122 377.032> 728.95 16.3037<164.972 189.677> 754 20G<279.792 284.164>
VStem: 196.562 97.3359<687.362 765.301> 425.996 86.3154<193.634 434.78>
LayerCount: 2
Fore
SplineSet
291.345703125 745.498046875 m 0
 227.874023438 480.833984375 l 1
 260.973632812 501.122070312 292.788522102 511.900390625 336.319614781 511.900390625 c 0
 433.860351562 511.900390625 512.311523438 470.563476562 512.311523438 329.053710938 c 0
 512.311523438 134.735351562 394.1015625 -9.9501953125 210.793945312 -9.9501953125 c 0
 173.442382812 -9.9501953125 143.903320312 -0.8251953125 113.66796875 22.7724609375 c 1
 87.5615234375 3.890625 63.28515625 -3.650390625 6.4267578125 -3.650390625 c 0
 -2.2001953125 -3.650390625 l 1
 2.947265625 19.623046875 l 1
 8.626953125 19.623046875 l 0
 28.5478515625 19.623046875 41.044921875 36.0703125 43.6064453125 46.9453125 c 0
 192.89453125 687.578125 l 0
 193.9765625 692.010742188 196.561523438 703.323242188 196.561523438 707.165039062 c 0
 196.561523438 715.987304688 194.419035045 722.47148418 189.81640625 725.48828125 c 0
 186.9140625 727.390625 179.693359375 728.950195312 170.850585938 728.950195312 c 0
 161.565429688 728.950195312 l 1
 164.971679688 745.25390625 l 1
 269.3671875 770.701171875 l 0
 271.318359375 771.208007812 277.185546875 774 282.3984375 774 c 0
 285.928710938 774 293.897460938 770.192382812 293.897460938 760.41015625 c 0
 293.897460938 755.986328125 292.879882812 751.799804688 291.345703125 745.498046875 c 0
217.281248616 436.125 m 1
 136.790039062 98.70703125 l 2
 136.381835938 94.205078125 136.291992188 91.970703125 136.291992188 88.5751953125 c 0
 136.291992188 44.7734375 166.38671875 25.150390625 232.521484375 25.150390625 c 0
 353.276367188 25.150390625 425.99609375 174.23828125 425.99609375 338.88671875 c 4
 425.99609375 415.890625 404.327148438 484.400390625 328.051757812 484.400390625 c 0
 292.197265625 484.400390625 253.908835884 463.948242188 217.281248616 436.125 c 1
EndSplineSet
Validated: 1
EndChar

StartChar: h
Encoding: 104 104 23
GlifName: h
Width: 587
VWidth: 0
Flags: W
HStem: -9.97461 53.582<386.683 468.741> -0.325195 21G<7.58008 94.8125> 472.375 39.5498<266.765 376.478> 728.899 16.3818<141.146 166.667> 753.949 20G<256.441 259.28>
VStem: 173.637 96.9648<692.138 768.104> 342.131 84.0537<26.7208 155.038> 405.133 84.5205<249.73 438.553>
LayerCount: 2
Fore
SplineSet
342.130859375 44.2265625 m 1xbe
 342.130859375 70.5517578125 350.697265625 100.813476562 360.387695312 140.296875 c 2
 401 315 l 2
 403.803710938 326.7578125 405.1328125 340.994140625 405.1328125 351.494140625 c 0
 405.1328125 420.54296875 386.3203125 472.375 328.75390625 472.375 c 0
 298.284179688 472.375 247.327000727 451.02734375 182.731689975 388.499023438 c 1
 90.044921875 -0.3251953125 l 1
 7.580078125 -0.3251953125 l 1
 168.915039062 685.568359375 l 1
 170.030273438 690.30078125 173.63671875 705.86328125 173.63671875 709.423828125 c 0
 173.63671875 718.061523438 171.964453291 721.38431891 166.797851562 725.438476562 c 0
 164.168708318 727.501527241 151.498046875 728.899414062 146.591796875 728.899414062 c 0
 137.525390625 728.899414062 l 1
 141.146484375 745.28125 l 1
 244.926757812 770.649414062 l 0
 247.470703125 771.307617188 255.33203125 773.94921875 257.55078125 773.94921875 c 0
 261.008789062 773.94921875 270.6015625 772.836914062 270.6015625 763.370117188 c 0
 270.6015625 759.028320312 269.639648438 754.01171875 268.033203125 747.422851562 c 0
 196.415039062 446.698242188 l 1
 246.528320312 496.115234375 292.073242188 511.924804688 344.400390625 511.924804688 c 0
 411.215820312 511.924804688 489.653320312 455.934570312 489.653320312 358.564453125 c 0x7d
 489.653320312 345.8046875 488.028320312 332.15625 484.53515625 317.424804688 c 2
 438.754882812 129.737304688 l 2
 433.5078125 107.336914062 426.184570312 69.39453125 426.184570312 59.0751953125 c 0
 426.184570312 47.7861328125 434.286132812 43.607421875 443.005859375 43.607421875 c 0
 457.61328125 43.607421875 482.567382812 52.3388671875 495.482421875 65.0244140625 c 1
 509.981445312 52.1572265625 l 0
 489.377929688 19.888671875 446.61328125 -9.974609375 402.1875 -9.974609375 c 4
 371.178710938 -9.974609375 342.399414062 9.8310546875 342.130859375 44.2265625 c 1xbe
EndSplineSet
Validated: 1
EndChar

StartChar: t
Encoding: 116 116 24
GlifName: t
Width: 335
VWidth: 0
Flags: W
HStem: -9.875 52.9502<78.043 164.565> 455.86 38.3457<62.5062 126.986> 464.151 42.8486<222.847 296.702>
VStem: 36.6846 82.4502<43.6596 161.873>
LayerCount: 2
Fore
SplineSet
36.6845703125 50.6923828125 m 4xb0
 36.6845703125 77.044921875 49.32421875 124.420898438 58.9599609375 164.037109375 c 4
 126.986328125 454.768554688 l 5
 114.24609375 455.146484375 77.1911494517 454.635818368 70.017578125 455.860351562 c 4
 63.1181640625 457.038085938 62.361328125 467.041992188 62.361328125 470.23046875 c 7
 62.361328125 480.282226562 63.814453125 494.206054688 76.7998046875 494.206054688 c 4xd0
 81.46875 494.206054688 116.172851562 494.265625 135.778320312 495.001953125 c 5
 143.923828125 521.263671875 160.871485578 608.192220536 170.677734375 637.935546875 c 4
 175.545898438 652.701171875 238.799804688 653.483398438 238.799804688 653.483398438 c 4
 246.366210938 653.483398438 253.185546875 647.461914062 253.185546875 637.654296875 c 4
 253.185546875 633.137695312 252.380859375 627.778320312 250.833007812 620.814453125 c 4
 245.025390625 597.669921875 229.783203125 534.560546875 222.846679688 505.974609375 c 5
 252.671875 506.147460938 271.438476562 507 281.549804688 507 c 4
 294.97265625 507 306.974609375 503.70703125 306.974609375 491.404296875 c 4
 306.974609375 483.935546875 304.779296875 478.813476562 301.46484375 472.53125 c 5
 296.702148438 464.151367188 l 5
 292.215820312 464.151367188 l 4
 287.900390625 464.151367188 241.41796875 465.071289062 213.3984375 465.192382812 c 5
 187.15625 358.36328125 159.8671875 243.146484375 134.704101562 136.407226562 c 4
 129.37109375 113.356445312 119.134765625 74 119.134765625 63.2548828125 c 4
 119.134765625 55.0810546875 124.828125 43.0751953125 137.982421875 43.0751953125 c 4
 159.130859375 43.0751953125 181.060546875 52.447265625 195.094726562 69.150390625 c 5
 205.431640625 58.7294921875 l 5
 183.123914945 18.6175679969 146.99609375 -9.875 93.78515625 -9.875 c 4
 62.30078125 -9.875 36.6845703125 15.63671875 36.6845703125 50.6923828125 c 4xb0
EndSplineSet
Validated: 1
EndChar

StartChar: z
Encoding: 122 122 25
GlifName: z
Width: 495
VWidth: 0
Flags: W
HStem: -9.93945 52.001<172.995 372.825> 11.2451 61.0537<107.781 228.401> 430.436 55.4795<213.559 406.715> 455.265 47.085<132.846 303.85>
VStem: 73.8242 63.2275<401.716 445.987> 368.033 70.0234<52.0348 101.712>
LayerCount: 2
Fore
SplineSet
73.82421875 431.359375 m 0x1c
 73.82421875 456.456054688 106.17578125 502.349609375 204.158203125 502.349609375 c 0x1c
 280.129882812 502.349609375 279.241210938 485.915039062 355.450195312 485.915039062 c 0
 408.432617188 485.915039062 441.984375 502.540039062 461.89453125 502.540039062 c 0
 473.021484375 502.540039062 478.028320312 498.916015625 478.028320312 497 c 0
 478.028320312 485.89453125 465.36328125 475.7109375 458.512695312 467.6875 c 0
 437.013671875 442.509765625 342.419921875 334.583007812 263.279296875 244.919921875 c 0
 210.23046875 184.818359375 140.036132812 111.495117188 107.78125 72.298828125 c 1x6c
 174.020507812 71.6201171875 232.030273438 42.0615234375 294.926757812 42.0615234375 c 0
 311.598632812 42.0615234375 353.008789062 47.259765625 373.4921875 51.7294921875 c 1
 369.481445312 58.28125 368.033203125 62.3173828125 368.033203125 68.9951171875 c 0
 368.033203125 86.1025390625 382.094726562 104.583007812 402.459960938 104.583007812 c 0
 422.27734375 104.583007812 438.056640625 88.2490234375 438.056640625 67.8681640625 c 0
 438.056640625 6.66796875 362.21484375 -9.939453125 283.572553615 -9.939453125 c 0x8c
 204.640345605 -9.939453125 169.915880173 11.2451171875 96.0546875 11.2451171875 c 0
 54.94140625 11.2451171875 18.060546875 -9.607421875 -4.693359375 -9.607421875 c 0
 -12.048828125 -9.607421875 -19.2001953125 -3.9609375 -19.2001953125 4.888671875 c 0
 -19.2001953125 10.318359375 -16.4296875 14.0966796875 -14.8544921875 16.0771484375 c 0
 27.8720703125 69.7958984375 147.076171875 177.71484375 224.592773438 264.540039062 c 0
 281.681640625 328.485351562 339.255859375 392.987304688 369.62109375 432.336914062 c 1
 358.814453125 430.890625 350.720703125 430.435546875 341.4609375 430.435546875 c 0x6c
 280.556640625 430.435546875 238.677734375 455.264648438 172.233398438 455.264648438 c 0
 154.9296875 455.264648438 140.893554688 450.4765625 131.891601562 446.272460938 c 1
 135.462890625 440.130859375 137.051757812 437.201171875 137.051757812 432.014648438 c 0
 137.051757812 417.13671875 124.924804688 399.728515625 104.145507812 399.728515625 c 0
 83.697265625 399.728515625 73.82421875 418.204101562 73.82421875 431.359375 c 0x1c
EndSplineSet
Validated: 1
EndChar

StartChar: l
Encoding: 108 108 26
GlifName: l
Width: 298
VWidth: 0
Flags: W
HStem: -9.65039 53.4229<70.0054 154.322> 753.851 20G<261.36 265.696>
VStem: 27.3105 83.4492<44.4988 154.222> 176.105 97.8506<690.367 765.46>
LayerCount: 2
Fore
SplineSet
27.310546875 48.34375 m 0
 27.310546875 74.0615234375 36.111328125 106.390625 45.4453125 145.969726562 c 2
 172.18359375 687.592773438 l 1
 173.474609375 693.1875 176.10546875 706.09765625 176.10546875 710.06640625 c 0
 176.10546875 718.6875 172.469830456 723.013942467 168.46875 725.489257812 c 0
 164.250976562 728.098632812 151.877929688 728.900390625 147.5 728.900390625 c 0
 138.701171875 728.900390625 l 1
 144.782226562 745.254882812 l 1
 255.849609375 772.62890625 l 0
 257.994140625 773.181640625 259.969726562 773.850585938 262.75 773.850585938 c 0
 268.641601562 773.850585938 273.956054688 768.831054688 273.956054688 762.08984375 c 0
 273.956054688 758.016601562 273.03125 753.453125 271.619140625 747.419921875 c 1
 125.33984375 134.869140625 l 1
 120.141601562 112.010742188 110.759765625 70.9296875 110.759765625 60.51171875 c 0
 110.759765625 46.61328125 125.264648438 43.7724609375 136.767578125 43.7724609375 c 0
 153.176757812 43.7724609375 173.780273438 57.3916015625 188.484375 68.4208984375 c 1
 197.07421875 58.9345703125 l 1
 175.404319156 20.4275607045 136.083984375 -9.650390625 85.412109375 -9.650390625 c 0
 54.5986328125 -9.650390625 27.310546875 13.091796875 27.310546875 48.34375 c 0
EndSplineSet
Validated: 1
EndChar

StartChar: r
Encoding: 114 114 27
GlifName: r
Width: 427
VWidth: 0
Flags: W
HStem: -0.200195 21G<31.5 118.797> 442.138 59.8418<275.965 388.717> 460.95 51.25<94.0338 170.376>
VStem: 136.207 87.0254<406.085 486.868>
LayerCount: 2
Fore
SplineSet
31.5 -0.2001953125 m 1xd0
 119.7421875 371.736328125 l 2
 126.060486783 398.36765194 135.96484375 438.637695312 136.20703125 447.768554688 c 1
 136.20703125 454.544921875 128.109375 460.950195312 122.451171875 460.950195312 c 0
 105.557617188 460.950195312 92.142578125 456.78125 70.9443359375 439.388671875 c 9
 56.9580078125 449.791992188 l 1
 75.232421875 482.154296875 114.231445312 512.200195312 155.205078125 512.200195312 c 0xb0
 185.546875 512.200195312 223.232421875 501.033203125 223.232421875 472.702148438 c 0
 223.232421875 462.627929688 221.504882812 452.734375 220.908203125 445.923828125 c 1
 258.504882812 473.274414062 306.508789062 501.979492188 358.901367188 501.979492188 c 0
 366.583984375 501.979492188 419.856445312 501.069335938 419.856445312 474.724609375 c 0
 419.856445312 437.756835938 381.609375 420.895507812 358.901367188 420.895507812 c 0
 330.267578125 420.895507812 315.197265625 442.137695312 294.359375 442.137695312 c 0
 260.348632812 442.137695312 217.134765625 395.041992188 203.71484375 375.08984375 c 1
 114.016601562 -0.2001953125 l 1
 31.5 -0.2001953125 l 1xd0
EndSplineSet
EndChar

StartChar: k
Encoding: 107 107 28
GlifName: k
Width: 529
VWidth: 0
Flags: W
HStem: -9.9248 49.3496<382.535 462.709> 0.724609 21G<17.4297 104.561> 288.775 37.4492<180.12 202.407> 460.626 51.3594<383.637 422.009> 728.899 16.2754<150.826 175.859> 753.85 20G<265.882 271.55>
VStem: 183.198 96.2783<686.834 765.52>
LayerCount: 2
Fore
SplineSet
150.826171875 745.174804688 m 1x7e
 249.814453125 769.4453125 l 2
 253.661132812 770.65234375 263.7890625 773.849609375 267.974609375 773.849609375 c 0
 275.125 773.849609375 279.4765625 768.454101562 279.4765625 762.584960938 c 0
 279.4765625 759.196289062 278.783203125 750.747070312 277.975585938 747.43359375 c 0
 180.833984375 341.905273438 l 1
 180.3515625 339.63671875 180.116210938 337.396484375 180.116210938 335.762695312 c 0
 180.116210938 327.03125 185.065429688 326.34375 192.201171875 326.224609375 c 1
 203.754882812 329.584960938 267.768887361 389.951171875 305.35519334 424.017578125 c 0
 327.027791781 443.661132812 339.812073191 454.358398438 357.278565253 469.197265625 c 0
 392.952148438 500.57421875 416.866210938 511.985351562 437.831054688 511.985351562 c 0
 464.493164062 511.985351562 486.578125 495.091796875 486.578125 469.62890625 c 0
 486.578125 444.950195312 462.700195312 432.106445312 441.63671875 432.106445312 c 0
 427.424804688 432.106445312 419.364257812 439.71484375 411.517578125 450.296875 c 0
 406.44140625 457.14453125 403.741210938 460.533203125 403.545898438 460.625976562 c 1
 402.134765625 460.625976562 392.9453125 454.26953125 380.1328125 442.747070312 c 1
 346.383789062 411.89453125 l 1
 328.748046875 395.155273438 286.319335938 355.065429688 263 332 c 1
 267.401367188 313.619140625 304.705075089 244.208704326 329.479884377 197.758789062 c 0
 356.091934995 147.864257812 389.774414062 85.8876953125 397.836914062 70.72265625 c 0
 402.627929688 61.7109375 414.201171875 39.4248046875 432.243164062 39.4248046875 c 0
 450.323242188 39.4248046875 468.458984375 46.884765625 486.0703125 63.095703125 c 1
 501.66015625 51.609375 l 1
 481.991210938 18.6572265625 437.931640625 -9.9248046875 399.748046875 -9.9248046875 c 0xbe
 365.321289062 -9.9248046875 340.46451238 8.9736328125 320.872665948 40.892578125 c 0
 311.765486169 55.728515625 289.328424003 97.685546875 245.787184185 182.928710938 c 0
 204.996769057 262.7890625 201.47836885 288.775390625 177.794515102 288.775390625 c 0
 173.897513459 288.775390625 170.161287768 287.797851562 167.673928188 286.424804688 c 1
 99.810546875 0.724609375 l 1
 17.4296875 0.724609375 l 1
 177.935546875 685.534179688 l 1
 179.385742188 692.022460938 183.198242188 704.999023438 183.198242188 709.533203125 c 3
 183.198242188 717.684570312 180.651367188 721.4140625 176.1015625 724.518554688 c 0
 171 728 160.708984375 728.899414062 156.731445312 728.899414062 c 0
 147.384765625 728.899414062 l 1
 150.826171875 745.174804688 l 1x7e
EndSplineSet
Validated: 1
EndChar

StartChar: e
Encoding: 101 101 29
GlifName: e
Width: 512
VWidth: 0
Flags: W
HStem: -10.4502 47.6504<155.909 306.047> 480.866 31.584<253.931 359.565>
VStem: 16.6162 93.7666<88.9897 229.396> 385.336 85.2803<354.066 462.292>
LayerCount: 2
Fore
SplineSet
470.616210938 427.643554688 m 0
 470.616210938 257.020507812 198.217773438 250.301757812 113.850585938 231.783203125 c 1
 111.53515625 217.758789062 110.3828125 197.096679688 110.3828125 183.983398438 c 0
 110.3828125 105.862304688 141.287109375 37.2001953125 220.990234375 37.2001953125 c 0
 272.364257812 37.2001953125 338.451171875 58.8388671875 395.930664062 97.9580078125 c 1
 398.66015625 90.853515625 398.844726562 83.2421875 398.844726562 74.4853515625 c 0
 398.844726562 72.1357421875 398.254882812 70.2080078125 396.813476562 68.958984375 c 0
 331.780273438 14.5322265625 272.147460938 -10.4501953125 188.815429688 -10.4501953125 c 0
 86.4716796875 -10.4501953125 16.6162109375 48.7646484375 16.6162109375 165.73046875 c 0
 16.6162109375 396.784179688 164.237304688 512.450195312 320.999023438 512.450195312 c 0
 406.09375 512.450195312 470.616210938 486.993164062 470.616210938 427.643554688 c 0
311.798828125 480.866210938 m 0
 236.678710938 480.866210938 134.985351562 400.892578125 108.658203125 264.61328125 c 1
 206.739257812 282.836914062 385.3359375 286.1875 385.3359375 407.684570312 c 0
 385.3359375 447.35546875 362.000976562 480.866210938 311.798828125 480.866210938 c 0
EndSplineSet
EndChar

StartChar: c
Encoding: 99 99 30
GlifName: c
Width: 482
VWidth: 0
Flags: W
HStem: -10.4248 48.0996<159.875 304.881> 484.325 27.0996<258.84 339.048>
VStem: 13.6279 92.7432<96.8938 302.601>
LayerCount: 2
Fore
SplineSet
313.125976562 511.424804688 m 0
 366.291992188 511.424804688 426.956054688 494.00390625 464.177734375 427.225585938 c 0
 466.111328125 424.323242188 467.709960938 420.9765625 467.709960938 416.657226562 c 0
 467.709960938 391.821289062 429.676757812 380.875 413.047851562 380.875 c 0
 344.816160926 380.875 379.072265625 484.325195312 303.639648438 484.325195312 c 4
 220.337890625 484.325195312 106.37109375 342.743164062 106.37109375 195.65625 c 0
 106.37109375 112.196289062 140.448242188 37.6748046875 229.961914062 37.6748046875 c 0
 271.373046875 37.6748046875 331.600585938 54.650390625 385.69140625 96.138671875 c 1
 397.208007812 72.3486328125 l 1
 330.063497495 11.6937916896 269.00427629 -10.4248046875 188.380291794 -10.4248046875 c 0
 87.4697265625 -10.4248046875 13.6279296875 38.0185546875 13.6279296875 174.26953125 c 0
 13.6279296875 371.377929688 143.362304688 511.424804688 313.125976562 511.424804688 c 0
EndSplineSet
Validated: 1
EndChar

StartChar: a
Encoding: 97 97 31
GlifName: a
Width: 555
VWidth: 0
Flags: W
HStem: -7.27539 45.3506<159.337 299.933> 481.375 30.0498<260.435 381.39> 483.09 20G<498.714 507.46>
VStem: 22.2217 92.3555<87.6545 301.441>
LayerCount: 2
Fore
SplineSet
437.255859375 52.537109375 m 1xb0
 437.255859375 21.8349609375 l 1
 412.203520104 5.65340763733 390.296875 -7.275390625 362.446289062 -7.275390625 c 0
 338.598632812 -7.275390625 328.05078125 11.8076171875 325.30078125 28.58984375 c 1
 286.704101562 3.9091796875 245.325164588 -10.4248046875 195.945495333 -10.4248046875 c 0
 80.49609375 -10.4248046875 22.2216796875 52.966796875 22.2216796875 166.870117188 c 0
 22.2216796875 377.188476562 155.980349826 511.424804688 320.352343548 511.424804688 c 0xd0
 359.701735201 511.424804688 395.243154536 503.09765625 424.61328125 474.8515625 c 1
 426.954101562 485.383789062 l 1
 431.647460938 486.13671875 l 2
 459.358653117 490.581028316 485.346679688 496.211914062 512.081054688 503.08984375 c 1
 409.826171875 60.4814453125 l 0
 406.041992188 44.5205078125 l 1
 416.26171875 47.068359375 426.9296875 49.796875 437.255859375 52.537109375 c 1xb0
330.400390625 75.072265625 m 1
 401.604492188 374.280273438 l 1
 401.977539062 380.764648438 407.143554688 399.67578125 407.143554688 405.515625 c 0
 407.143554688 451.375 385.390625 481.375 322.947265625 481.375 c 0
 206.62109375 481.375 114.577148438 349.806640625 114.577148438 169.764648438 c 0
 114.577148438 121.276367188 141.372070312 38.0751953125 213.381835938 38.0751953125 c 0
 258.192382812 38.0751953125 323.655273438 61.7802734375 330.400390625 75.072265625 c 1
EndSplineSet
Validated: 1
EndChar

StartChar: i
Encoding: 105 105 32
GlifName: i
Width: 306
VWidth: 0
Flags: W
HStem: -9.22461 53.3496<84.0889 173.134> 462.825 50.25<100.218 186.651> 610.625 105.6<171.141 241.967>
VStem: 47 85.6709<44.6319 158.852> 136.897 84.9766<364.768 491.389> 154.093 103.946<626.413 699.374>
LayerCount: 2
Fore
SplineSet
221.874023438 474.575195312 m 1xf8
 221.874023438 447.422851562 206.903320312 394.032226562 197.709960938 354.940429688 c 2
 145.556640625 133.36328125 l 0
 139.412109375 108.681640625 132.670898438 75.16796875 132.670898438 61.537109375 c 0
 132.670898438 53.3896484375 137.98046875 44.125 146.846679688 44.125 c 0
 163.311523438 44.125 185.903320312 52.228515625 206.724609375 67.845703125 c 1
 217.3125 58.359375 l 1
 195.612304688 19.783203125 149.697265625 -9.224609375 101.001953125 -9.224609375 c 0
 67.17578125 -9.224609375 47 15.310546875 47 48.189453125 c 0
 47 69.650390625 54.8779296875 104.639648438 65.16015625 143.9453125 c 0
 113.484375 350.796875 l 1
 118.776367188 375.711914062 136.663085938 442.875 136.897460938 452.654296875 c 1
 136.897460938 459.403320312 131.799804688 462.825195312 126.141601562 462.825195312 c 0
 107.993164062 462.825195312 94.4931640625 455.455078125 77.2158203125 438.817382812 c 1
 63.294921875 449.497070312 l 1
 86.7685546875 486.53515625 115.239257812 513.075195312 173.041015625 513.075195312 c 0
 200.26171875 513.075195312 221.678710938 502.29296875 221.874023438 474.575195312 c 1xf8
154.092773438 649.872070312 m 4xf4
 154.092773438 687.62109375 184.81640625 716.224609375 215.151367188 716.224609375 c 4
 239.483398438 716.224609375 258.0390625 698.326171875 258.0390625 673.22265625 c 4
 258.0390625 634.525390625 224.596679688 610.625 195.1015625 610.625 c 4
 171.578125 610.625 154.092773438 625.740234375 154.092773438 649.872070312 c 4xf4
EndSplineSet
EndChar

StartChar: period
Encoding: 46 46 33
GlifName: period
Width: 212
VWidth: 0
Flags: W
HStem: -18 116<53.4167 124.73>
VStem: 33 112.573<3.13898 77.5819>
LayerCount: 2
Fore
SplineSet
101.313476562 98 m 4
 127.765676349 98 145.573242188 77.3360224183 145.573242188 51.5625 c 4
 145.573242188 12.0323881482 109.517249705 -18 77.3134765625 -18 c 4
 50.2136563003 -18 33 2.47535386892 33 27.9921875 c 4
 33 67.6212828652 67.8646279766 98 101.313476562 98 c 4
EndSplineSet
Validated: 1
EndChar

StartChar: comma
Encoding: 44 44 34
GlifName: comma
Width: 170
VWidth: 0
Flags: W
HStem: -86 26<-7.25914 24.7019>
VStem: 45.2598 93.0498<-24.3086 71.7804>
LayerCount: 2
Fore
SplineSet
93 98 m 0
 121.061787138 98 138.309570312 76.0868374636 138.309570312 51.943359375 c 0
 138.309570312 -30.6464298108 71.2245974935 -86 17 -86 c 0
 3.15033771014 -86 -4.15397500831 -81.7987180503 -5.99438256119 -80.7948593851 c 1
 -7.27921785403 -80.0940401344 l 1
 -17.3262379212 -60 l 1
 -6 -60 l 0
 8.0722045076 -60 45.259765625 -41.2989521176 45.259765625 -23.900390625 c 0
 45.259765625 -21.2115142793 43.9464475704 -17.9750205247 42.1993719516 -14.935237114 c 1
 32.2250330412 -2.21059497005 20.41015625 4.8390132747 20.41015625 24.8505859375 c 0
 20.41015625 65.4930102274 58.77092395 98 93 98 c 0
EndSplineSet
Validated: 1
EndChar

StartChar: D
Encoding: 68 68 35
GlifName: D_
Width: 817
VWidth: 0
Flags: W
HStem: -3 37<196.079 421.177> 0 20<47.5 91.0176> 692 38<348.152 570.499> 710 20<216.006 240.209>
VStem: 688.703 96.2871<324.679 580.834>
LayerCount: 2
Fore
SplineSet
219.513671875 710 m 2x58
 210.291015625 710 l 1
 216.005859375 730 l 1x58
 356.358390284 730 l 0
 406.666711938 730 457.070468616 731 506.546998695 731 c 0
 663.759624858 731 784.990234375 641.958007812 784.990234375 467.926757812 c 0
 784.990234375 170.607421875 559.869057943 -3 322.411650027 -3 c 0
 314.182137237 -3 l 0xa8
 302.892676211 -3 281.303264668 -2.0537109375 279.992288814 -1.99609375 c 1
 276.639003452 -1.9248046875 186.074179598 0 170.165663419 0 c 0
 43 0 l 1
 47.5 20 l 1
 52.9658203125 20 l 0
 61.0859375 20 68.072265625 20.9921875 75.39453125 22.78515625 c 1
 91.79296875 26.1669921875 98.6962890625 36.6171875 101.15625 47.056640625 c 1
 130.180664062 162.741210938 157 268 188.897460938 402.796875 c 24
 214 509 230.39453125 584.759765625 251 676 c 1
 251.466796875 677.926757812 252.669921875 685.614257812 252.669921875 687.3125 c 0
 252.669921875 697.58203125 249.868164062 705.674804688 240.49609375 708.223632812 c 0
 234.384765625 709.885742188 228.014648438 710 219.513671875 710 c 2x58
348.125976562 685.872070312 m 1
 345.055664062 670.779296875 l 1
 295.592773438 464.930664062 196.873046875 45.30859375 196.873046875 45.30859375 c 1
 196.16015625 41.693359375 195.751953125 38.42578125 195.751953125 36.5869140625 c 0
 195.751953125 34.8671875 196.071289062 34.12890625 196.071289062 34.126953125 c 1
 196.208007812 34.037109375 198.409179688 33.30859375 201.356445312 33.0029296875 c 1
 282.361328125 34 l 1
 300.923828125 34 l 0
 554.946289062 34 688.703125 250.383789062 688.703125 480.3828125 c 0
 688.703125 636.278320312 591.013671875 692 462.255859375 692 c 0
 355.444335938 692 l 0xa8
 352.2578125 692 348.63671875 688.787109375 348.125976562 685.872070312 c 1
EndSplineSet
Validated: 1
EndChar

StartChar: N
Encoding: 78 78 36
GlifName: N_
Width: 809
VWidth: 0
Flags: W
HStem: -9 21G<607.969 617.823> 0 20<-7.5 20.0339 117.051 143.431> 710 20<160.5 186.778 699.5 724.788 819.891 848.775>
LayerCount: 2
Fore
SplineSet
725.78515625 398.501953125 m 0x60
 696.498046875 267.174804688 665.53125 136.99609375 632.563476562 5.68359375 c 0
 630.178710938 -3.814453125 621.52734375 -9 614.118164062 -9 c 0xa0
 601.8203125 -9 597.53515625 3.46484375 597.53515625 3.46484375 c 1
 472.467773438 207.393554688 360.029296875 404.072265625 236.81640625 606.537109375 c 1
 224.966796875 555.833007812 214.516601562 510.055664062 202.782226562 460.41015625 c 1
 133.79296875 160.456054688 l 1
 125.817382812 124.564453125 115.688476562 88.8876953125 107.879882812 53.845703125 c 1
 107.787109375 53.001953125 106.547851562 46.357421875 106.547851562 43.662109375 c 0
 106.547851562 36.646484375 107.521484375 25.326171875 116.776367188 22.7626953125 c 0
 122.596018592 21.15073109 130.90625 20 138.965820312 20 c 0
 147.930664062 20 l 1
 143.430664062 0 l 1
 -12 0 l 1
 -7.5 20 l 1
 -2.0341796875 20 l 0
 6.0859375 20 12.6845703125 20.703125 20.39453125 22.78515625 c 0
 36 27 47.63671875 48.3037109375 51.1513671875 59.974609375 c 1
 51.1513671875 59.974609375 103.826171875 267.271484375 134.140625 399.83203125 c 0
 158.715820312 507.296875 195.08984375 673.870117188 195.08984375 673.870117188 c 1
 195.08984375 673.870117188 197.877929688 685.6328125 197.877929688 687.350585938 c 0
 197.877929688 696.392578125 195.625 699.377929688 187.041992188 705.3046875 c 0
 181.459960938 709.159179688 172.984375 710 164.965820312 710 c 0
 156 710 l 1
 160.5 730 l 1
 271.932617188 730 l 1
 615.345703125 159.48046875 l 5
 735.090820312 676.33984375 l 1
 735.090820312 676.33984375 736.78515625 683.807617188 736.78515625 685.30859375 c 0
 736.78515625 692.943359375 735.638671875 701.533203125 725.041992188 706.26953125 c 0
 719.6640625 708.672851562 711.984375 710 703.965820312 710 c 0
 694.747070312 710 l 1
 699.5 730 l 1
 852.400390625 730 l 1
 848.775390625 710 l 1
 842.965820312 710 l 0
 835.034179688 710 826.431640625 709.266601562 819.568359375 707.221679688 c 0
 804.708984375 702.794921875 794.9921875 686.876953125 791.723632812 675.663085938 c 1
 767.809570312 583.8515625 746.383789062 490.869140625 725.78515625 398.501953125 c 0x60
EndSplineSet
EndChar

StartChar: L
Encoding: 76 76 37
GlifName: L_
Width: 558
VWidth: 0
Flags: W
HStem: 0 19.4121<-4.5 21.1362 155.824 327.157> 710 20<160.5 185.981 316.471 348.431>
LayerCount: 2
Fore
SplineSet
145.602539062 43.2099609375 m 0
 145.602539062 35.517578125 149.955078125 29.1142578125 161.645507812 27.8935546875 c 0
 181.518554688 25.9345703125 190.861328125 25 211.538085938 25 c 0
 274.3671875 25 326.498046875 26.0634765625 371.635742188 35.80078125 c 1
 432.107421875 50.2509765625 462.080078125 90.0244140625 487.54296875 148.783203125 c 0
 489.248046875 152.71875 l 1
 510.057617188 154.64453125 l 1
 455.931640625 0 l 1
 -12 0 l 1
 -4.5 19.412109375 l 1
 0.9658203125 19.412109375 l 0
 10.970703125 19.412109375 12.4501953125 19.4462890625 21.5576171875 21.232421875 c 1
 37.6494140625 24.5537109375 47.701171875 46.0654296875 50.15625 56.4921875 c 1
 79.171875 172.241210938 107.682617188 287.834960938 134.829101562 403.47265625 c 0
 156.506680096 495.814087534 176.1171875 585.736328125 196.1328125 676.982421875 c 1
 196.586914062 678.912109375 197.78515625 685.602539062 197.78515625 687.299804688 c 0
 197.78515625 694.688476562 196.202148438 701.775390625 186.245117188 706.25 c 0
 180.623348996 708.776377193 174.850585938 710 166.965820312 710 c 0
 156.205078125 710 l 1
 160.5 730 l 1
 352.930664062 730 l 1
 348.430664062 710 l 1
 342.965820312 710 l 2
 331.360351562 710 323.677734375 709.326171875 316.116210938 706.395507812 c 0
 303.098632812 701.350585938 293.126953125 683.909179688 290.775390625 673.931640625 c 1
 265.749023438 581.76171875 247.869546051 490.750182862 226.783203125 398.756835938 c 0
 200.680660324 284.879323657 174.844726562 174.672851562 149.235351562 60.9912109375 c 1
 148.79296875 59.294921875 145.602539062 44.7763671875 145.602539062 43.2099609375 c 0
EndSplineSet
Validated: 1
EndChar

StartChar: M
Encoding: 77 77 38
GlifName: M_
Width: 790
VWidth: 0
Flags: W
HStem: 0 20<-11.1094 19.3445 112.455 136.821 501.891 530.411 665.38 690.821> 710 20<156.547 190.719 828.18 858.166>
LayerCount: 2
Fore
SplineSet
653.611328125 45.3115234375 m 0
 653.611328125 38.341796875 654.73046875 27.7734375 665.053710938 23.75390625 c 0
 671.981445312 21.056640625 681.336914062 20 689.356445312 20 c 0
 695.321289062 20 l 1
 690.821289062 0 l 1
 497.390625 0 l 1
 501.890625 20 l 1
 507.356445312 20 l 0
 515.4765625 20 522.797851562 20.4765625 530.78515625 22.8232421875 c 0
 545 27 558.083984375 46.9521484375 560.549804688 57.6357421875 c 1
 576.552734375 121.6484375 592.755859375 185.66796875 608.541015625 249.598632812 c 0
 628.547851562 330.627929688 646.629882812 414.581054688 666.268554688 496.600585938 c 1
 673.669921875 526.684570312 679.056640625 558.48046875 685.431640625 586.043945312 c 1
 390.172851562 149.015625 l 1
 387.021484375 144.463867188 378.374023438 129 365.541015625 129 c 0
 354.709960938 129 344.608398438 141.337890625 343.038085938 149.571289062 c 0
 343.038085938 149.571289062 250.69140625 482.498046875 226.603515625 587.666992188 c 1
 103.216796875 59.564453125 l 1
 102.733398438 56.5595703125 101.002929688 46.375 100.978515625 46.0947265625 c 1
 101.245117188 36.9267578125 101.715820312 29.51171875 112.166992188 23.7626953125 c 0
 118.266601562 20.4072265625 127.2421875 20 135.356445312 20 c 0
 141.610351562 20 l 1
 136.821289062 0 l 1
 -15.609375 0 l 1
 -11.109375 20 l 1
 -5.6435546875 20 l 0
 2.4765625 20 10.3603515625 20.4921875 19.78515625 22.78515625 c 0
 33 26 44.1181640625 48.12890625 46.62890625 60.306640625 c 1
 101.54296875 263.736328125 141.583984375 466.649414062 191.573242188 673.288085938 c 1
 192.404296875 676.434570312 194.181640625 686.478515625 194.181640625 687.596679688 c 0
 194.181640625 706.055219971 180.318780605 710 160.356445312 710 c 2
 151.921875 710 l 1
 156.546875 730 l 1
 298.95703125 730 l 1
 430.466796875 273.084960938 l 1
 732.692382812 730 l 1
 862.791015625 730 l 1
 858.166015625 710 l 1
 852.356445312 710 l 0
 844.379882812 710 836.267578125 708.004882812 827.782226562 706.1796875 c 0
 813 703 804.576171875 688.1015625 801.169921875 674.920898438 c 0
 785.501741171 614.292046671 774 564 757.1796875 492.768554688 c 24
 718 321 691.169921875 204.875976562 655.23828125 59.24609375 c 1
 655.23828125 59.24609375 653.611328125 47.33203125 653.611328125 45.3115234375 c 0
EndSplineSet
EndChar

StartChar: slash
Encoding: 47 47 39
GlifName: slash
Width: 552
VWidth: 0
Flags: W
LayerCount: 2
Fore
SplineSet
21.1682785364 -112.333875658 m 2
 188.046916598 180.490756996 317.11100051 428.12682613 449.365144058 697.881310098 c 0
 450.158920985 699.500351132 l 1
 451.636118419 700.534403075 l 0
 473.220650768 715.643776467 491.047095149 722.799804688 505 722.799804688 c 0
 518.043130031 722.799804688 528.552836497 714.983115523 528.552836497 701.264295592 c 0
 528.552836497 698.67563339 528.211138674 696.000591437 527.570705472 693.225645591 c 0
 527.344855552 692.247055951 l 1
 526.852976681 691.371441284 l 0
 380.54985999 430.930990785 121.600507815 -69.1057425358 116.648328513 -78.6709109339 c 1
 96.5982534599 -133.387172522 63.0032764508 -110.087459747 29.6699449618 -122.368203761 c 0
 11.6706292268 -128.999553797 l 1
 21.1682785364 -112.333875658 l 2
EndSplineSet
Validated: 1
EndChar

StartChar: S
Encoding: 83 83 40
GlifName: S_
Width: 538
VWidth: 0
Flags: W
HStem: -10 40<119.24 276.365> 706 36<311.083 444.553>
VStem: -13.9883 77.8496<84.6186 166.989> 131.27 94.5691<506.901 613.402> 383.903 92.3176<147.468 271.139>
LayerCount: 2
Fore
SplineSet
63.861328125 166.626953125 m 4
 63.861328125 114.073242188 89.2958984375 30 186.638671875 30 c 4
 295.51953125 30 383.903068479 109.685546875 383.903068479 202.548828125 c 4
 383.903068479 264.198242188 331.8984375 317.314453125 271.63671875 365.1640625 c 4
 208.815429688 415.045898438 131.269655037 463.823242188 131.269655037 535.592773438 c 4
 131.269655037 645.251953125 251.555643212 742 396.187846632 742 c 4
 474.705078125 742 556.034179688 715.724609375 556.034179688 688.426757812 c 4
 556.034179688 687.435546875 556.170898438 686.548828125 555.71875 684.508789062 c 5
 552.732421875 670.576171875 527.025390625 608 508.87890625 608 c 4
 480.227539062 608 487.413085938 706 383.212890625 706 c 4
 285.538085938 706 225.838786938 624.690429688 225.838786938 558.649414062 c 4
 225.838786938 507.936523438 278.014648438 479.572265625 332.76953125 435.62890625 c 4
 406.069335938 376.801757812 476.220703125 320.463867188 476.220703125 243.133789062 c 4
 476.220703125 140.840820312 412.83950342 75.7861328125 356.644241047 37.41015625 c 4
 311.699657121 6.53125 229.526463992 -10 182.106771601 -10 c 4
 52.0791015625 -10 -13.98828125 66.662109375 -13.98828125 114.758789062 c 4
 -13.98828125 118.158203125 -13.666015625 121.357421875 -12.9404296875 124.579101562 c 5
 -7.3759765625 147.94921875 30.1435546875 196 52.87890625 196 c 4
 53.1416015625 196 65.0751953125 196.844726562 65.0751953125 186.40234375 c 4
 65.0751953125 184.831054688 65.015625 185.181640625 64.65234375 182.564453125 c 5
 64.28125 179.149414062 63.861328125 172.104492188 63.861328125 166.626953125 c 4
EndSplineSet
Validated: 1
EndChar

StartChar: T
Encoding: 84 84 41
GlifName: T_
Width: 653
VWidth: 0
Flags: W
HStem: 0 20<131.242 163.514 292.212 319.861> 705 25<170.069 328.478 437.847 629.534>
VStem: 73 22.7549<600 618.932> 637.271 45.9092<649.136 732.314>
LayerCount: 2
Fore
SplineSet
300.965820312 705 m 0
 268.211914062 705 212.614257812 701.993164062 183.30078125 697.112304688 c 0
 142.763671875 689.390625 103 628 95.7548828125 600 c 1
 73 600 l 1
 120.619140625 728.787109375 l 2
 122.997724715 733.571461388 127.548881293 736 132.051757812 736 c 0
 139.1875 736 151.857421875 734 158.154296875 734 c 1
 192.384765625 732.993164062 288.60052897 730 405.728555004 730 c 1
 509.462819862 731 549.227539062 731.993164062 633.926757812 735 c 1
 636.973632812 735 659.978515625 737 667.051757812 737 c 0
 669.971679688 737 683.1796875 735.201171875 683.1796875 727.971679688 c 0
 683.1796875 724.999023438 682.224609375 721.821289062 681.829101562 720.25 c 1
 650 600 l 1
 629.752929688 599.504882812 l 1
 631.28515625 607.915039062 637.270507812 632.366210938 637.270507812 655.0078125 c 0
 637.270507812 683.51953125 633.463867188 695.9453125 617.338867188 699.211914062 c 0
 594.165039062 703.90625 565.83203125 705 508.865234375 705 c 0
 492.561523438 705 474.904296875 704 456.984375 704 c 0
 438.446289062 704 431.620117188 681.23046875 428.8515625 669.90625 c 1
 399.767578125 555.204101562 377.923074397 461.960495818 348.3125 327.142578125 c 0
 325 221 311 166 284.883789062 58.9921875 c 0
 284.3671875 56.875 283.232421875 49.376953125 283.232421875 47.6806640625 c 0
 283.232421875 40.162109375 283.874023438 29.80078125 291.974609375 24.6953125 c 0
 296.951171875 21.55859375 307.032226562 20 315.051757812 20 c 0
 323.811523438 20 l 1
 319.861328125 0 l 1
 126.6171875 0 l 1
 131.2421875 20 l 1
 137.051757812 20 l 2
 145.266601562 20 155.681640625 21.466796875 163.900390625 25.6044921875 c 0
 176.672851562 32.0341796875 186.888671875 46.083984375 189.243164062 56.076171875 c 1
 212.25 147.188476562 234.24609375 239.232421875 256.2265625 330.233398438 c 1
 334.3984375 673.880859375 l 1
 335.181640625 677.580078125 338.021484375 689 338.021484375 692.33203125 c 3
 338.021484375 700.067382812 332.772460938 703.365234375 328.708984375 704.131835938 c 1
 323.84765625 704.896484375 314.359375 705 300.965820312 705 c 0
EndSplineSet
Validated: 1
EndChar

StartChar: Q
Encoding: 81 81 42
GlifName: Q_
Width: 770
VWidth: 0
Flags: W
HStem: -147 45<362.302 494.244> 694 39<370.858 555.648>
VStem: 30.1045 103.056<124.392 383.8> 212.638 117.079<-73.4651 -13.4998> 650.553 94.0166<327.256 584.795>
LayerCount: 2
Fore
SplineSet
463.475585938 694 m 0
 216.571289062 694 133.16015625 385.0078125 133.16015625 220.567382812 c 0
 133.16015625 32.1767578125 258.154030257 20 315.188504895 20 c 0
 446.257108628 20 650.552734375 168.624023438 650.552734375 487.700195312 c 0
 650.552734375 601.044921875 604.65234375 694 463.475585938 694 c 0
30.1044921875 236.560546875 m 0
 30.1044921875 543.561523438 247.501825801 733 480.053154239 733 c 0
 632.0625 733 744.569335938 641.9453125 744.569335938 470.434570312 c 0
 744.569335938 172.004882812 509.537401617 7.3466796875 334.574993752 -14.455078125 c 1
 331.06819869 -22.8681640625 329.716799617 -29.6416015625 329.716799617 -36.5087890625 c 0
 329.716799617 -72.5732421875 375.999450658 -102 464.597093363 -102 c 0
 471.14680041 -102 479.471539448 -101 488.296386706 -101 c 0
 495.7718474 -101 l 1
 494.244353883 -142.5 l 1
 487.819422328 -142.979492188 l 0
 461.074198238 -144.975585938 437.216923022 -147 414.107294502 -147 c 0
 298.478651581 -147 212.638144736 -114.555664062 212.638144736 -36.1181640625 c 0
 212.638144736 -27.720703125 213.893949682 -17.8798828125 215.773632085 -9.2919921875 c 1
 131.657226562 9.8544921875 30.1044921875 76.3291015625 30.1044921875 236.560546875 c 0
EndSplineSet
Validated: 1
EndChar

StartChar: P
Encoding: 80 80 43
GlifName: P_
Width: 622
VWidth: 0
Flags: W
HStem: 0 20<30.625 56.5261 192.414 218.057> 275 43<268.833 402.56> 700 32<328.894 480.729> 710 20<198.596 225.019>
VStem: 552.987 86.5742<461.958 647.224>
LayerCount: 2
Fore
SplineSet
181.040039062 43.3056640625 m 0xe8
 181.040039062 37.8525390625 181.856445312 27.16015625 192.124023438 22.7255859375 c 0
 198.26953125 20.0712890625 206.737304688 20 215.137695312 20 c 0
 222.901367188 20 l 1
 218.056640625 0 l 1
 26 0 l 1
 30.625 20 l 1
 34.4345703125 20 l 0
 42.53125 20 49.6484375 20.0185546875 56.8642578125 21.78515625 c 1
 73.087890625 25.130859375 86.095703125 46.3203125 88.625 57.056640625 c 1
 117.631835938 172.669921875 140.753174076 267.288832686 171.567382812 401.788085938 c 0
 195.08654419 504.44558623 231.845703125 664.220703125 231.845703125 664.220703125 c 1
 232.650390625 667.82421875 236.196289062 683.216796875 236.196289062 687.049804688 c 0
 236.196289062 697.232421875 233.211914062 702.322265625 225.221679688 707.345703125 c 0
 221 710 210.784179688 710 202.514648438 710 c 0
 193.751953125 710 l 1
 198.596150843 730 l 1
 229.566395914 730 l 0xd8
 291.746328409 730 358.235208679 732 419.691741183 732 c 0
 543.51171875 732 639.561523438 687.30859375 639.561523438 567.904296875 c 0
 639.561523438 369.966796875 459.546875 275 322.331054688 275 c 0
 310.46484375 275 298.801757812 275.030273438 288.361328125 277.03515625 c 0
 278.362497113 278.955238568 268.825195312 285.434570312 268.825195312 296.67578125 c 0
 268.825195312 310.155273438 279.768575092 318 294.279296875 318 c 0
 418.993164062 318 552.987304688 391.884765625 552.987304688 575.352539062 c 0
 552.987304688 659.185546875 494.009765625 700 379.172851562 700 c 0
 332.376953125 700 l 1
 307.514648438 600.432617188 284.639424381 493.704814715 262.661132812 394.677734375 c 0
 237.410322929 280.905743901 210.634467132 166.669921875 182.640767584 52.0146484375 c 1
 182.213626775 50.267578125 181.040039062 44.796875 181.040039062 43.3056640625 c 0xe8
EndSplineSet
Validated: 1
EndChar

StartChar: R
Encoding: 82 82 44
GlifName: R_
Width: 669
VWidth: 0
Flags: W
HStem: 0 20<7.5 38.1204 170.045 195.252 507.092 602.87> 362.555 22.4453<238.084 330.605> 700 34<306.432 462.823> 710 20<175.545 210.186>
VStem: 435.584 100.902<25.1491 234.04> 449.715 98.5098<84.0253 301.369> 515.969 89.6348<497.807 659.607>
LayerCount: 2
Fore
SplineSet
156.661132812 41.1982421875 m 0xe4
 156.661132812 34.1015625 158.135742188 26.55859375 169.75390625 22.7626953125 c 0
 175.936523438 20.7431640625 183.299804688 20 191.729492188 20 c 0
 200.043945312 20 l 1
 195.251953125 0 l 1
 3 0 l 1
 7.5 20 l 1
 12.9658203125 20 l 0
 21.0859375 20 32.6357421875 21.8037109375 38.39453125 23.78515625 c 0
 51.5556640625 28.3125 62.697265625 46.6220703125 65.154296875 57.05078125 c 1
 95.1806640625 173.720703125 123.393544253 288.891796191 150.196289062 405.701171875 c 0
 169.98046875 491.922851562 189.739257812 576.056640625 208.426757812 662.19140625 c 1
 209.24609375 665.864257812 213.6484375 683.500976562 213.6484375 688.032226562 c 0
 213.6484375 699.7265625 207.973632812 703.561523438 201.305664062 706.212890625 c 0
 195.032226562 708.708007812 188.166015625 710 180.067382812 710 c 0
 170.752929688 710 l 1
 175.544921875 730 l 1
 208.158281611 730 l 0xd4
 270.181692107 730 336.669335254 734 398.28589182 734 c 0
 520.603515625 734 605.603515625 691.567382812 605.603515625 588.39453125 c 0xe2
 605.603515625 459.518554688 533.1484375 392.076171875 419.185602814 366.200195312 c 1
 496.819335938 350.635742188 548.224609375 301.362304688 548.224609375 234.170898438 c 0xe4
 548.224609375 231.372070312 548.133789062 228.547851562 547.952148438 225.698242188 c 0
 544.349609375 169.302734375 539.627929688 138.368164062 536.951171875 97.251953125 c 0
 536.63671875 92.4140625 536.485351562 87.94921875 536.485351562 83.83203125 c 0
 536.485351562 48.8547084105 546.41015625 21.9287109375 569.6875 21.9287109375 c 0
 581.098632812 21.9287109375 597.489257812 25.5888671875 602.834960938 28.2607421875 c 1
 604.264648438 9.388671875 l 0
 580.817382812 1.232421875 555.786132812 -4.916015625 516.97265625 -5 c 1
 463.219170326 -5 435.58354102 35.599609375 435.58354102 78.4169921875 c 0xe8
 435.58354102 80.044921875 435.616008166 82.564453125 435.694132238 84.3046875 c 0
 437.785219395 130.469726562 444.687531833 208.96484375 448.188910669 243.676757812 c 0
 448.543005486 247.182617188 449.71484375 258.548828125 449.71484375 261.783203125 c 0
 449.71484375 337.846679688 352.625 353.592773438 233.491210938 362.5546875 c 1
 159.188476562 52.4609375 l 0
 158.83203125 50.9384765625 156.661132812 42.5126953125 156.661132812 41.1982421875 c 0xe4
244.413085938 412.788085938 m 0
 242.234375 403.102539062 240.110351562 393.942382812 238.083984375 385.081054688 c 1
 247.124023438 385.049804688 254.818359375 385 263.30078125 385 c 0
 397.565429688 385 515.96875 444.325195312 515.96875 591.836914062 c 0
 515.96875 676.391601562 459.223632812 700 349.766601562 700 c 0
 310.017578125 700 l 1xe2
 284.137695312 600.743164062 266.579101562 511.3203125 244.413085938 412.788085938 c 0
EndSplineSet
EndChar

StartChar: U
Encoding: 85 85 45
GlifName: U_
Width: 744
VWidth: 0
Flags: W
HStem: -9.65527 45<213.403 432.767> 710 20<119.156 144.123 276.991 306.432 647.5 672.715 769.912 795.432>
VStem: 52.5527 96.0811<106.499 325.037>
LayerCount: 2
Fore
SplineSet
156.08203125 689.020507812 m 0
 156.08203125 697.96484375 151.311523438 703.619140625 144.364257812 706.220703125 c 0
 139.280273438 708.125 130.591796875 710 123.965820312 710 c 2
 113.53125 710 l 1
 119.15625 730 l 1
 310.931640625 730 l 1
 306.431640625 710 l 1
 300.965820312 710 l 2
 293.016601562 710 285.58984375 709.069335938 276.569335938 706.223632812 c 0
 260.166992188 701.048828125 251.540039062 686.0859375 247.965820312 672.73046875 c 0
 245.374023438 664.49609375 245.102575354 662.131083862 242.782226562 652.41015625 c 0
 224.774414062 576.967773438 166.216796875 319.125 166.158203125 318.899414062 c 0
 154.131835938 267.598632812 148.633789062 228.087890625 148.633789062 192.962890625 c 0
 148.633789062 87.0966796875 198.290039062 35.3447265625 318.63671875 35.3447265625 c 4
 476.4609375 35.3447265625 550.278320312 115.833984375 597.494140625 308.358398438 c 0
 604.784179688 338.7890625 675.912859592 645.788315194 683.166992188 676.092773438 c 0
 683.772546278 678.622502306 685.0625 687.266601562 685.0625 688.861328125 c 0
 685.0625 695.078125 680.563476562 701.1015625 673.04296875 705.3046875 c 0
 666.079101562 709.197265625 657.012695312 710 648.965820312 710 c 2
 642.70703125 710 l 1
 647.5 730 l 1
 799.931640625 730 l 1
 795.431640625 710 l 1
 789.965820312 710 l 2
 781.869140625 710 776.810546875 709.99609375 769.57421875 708.221679688 c 0
 752.768554688 704.557617188 741.981963862 688.589840143 738.728515625 675.663085938 c 0
 732.376953125 650.426757812 707.132379417 541.393649748 686.78515625 454.206054688 c 0
 667.784179688 372.787109375 656.16015625 313.380859375 647 279 c 0
 586.87890625 52.9677734375 450.748046875 -9.6552734375 310.362304688 -9.6552734375 c 0
 192.599609375 -9.6552734375 52.552734375 37.7685546875 52.552734375 206.389648438 c 0
 52.552734375 232.952148438 60.0185546875 262.327148438 67.5400390625 294.982421875 c 2
 154.162109375 675.131835938 l 2
 154.748372466 677.704708759 156.08203125 686.897460938 156.08203125 689.020507812 c 0
EndSplineSet
Validated: 1
EndChar

StartChar: J
Encoding: 74 74 46
GlifName: J_
Width: 286
VWidth: 0
Flags: W
HStem: 710 20<145.057 181.021 301.829 332.331>
LayerCount: 2
Fore
SplineSet
183.684570312 690.3203125 m 0
 183.684570312 698.552734375 179.654296875 703.998046875 171.528320312 706.985351562 c 0
 164.166992188 709.69140625 158.680664062 710 148.866210938 710 c 0
 140.034179688 710 l 1
 145.056640625 730 l 1
 337.831054688 730 l 1
 332.331054688 710 l 1
 326.866210938 710 l 0
 318.813476562 710 309 709 301.474609375 707.21484375 c 0
 285.590820312 703.447265625 277.987304688 684.641601562 275.674804688 674.778320312 c 1
 260.67578125 614.735351562 238.735351562 520.0546875 216.689453125 422.846679688 c 0
 176.580078125 245.994140625 131.247070312 60.6416015625 125.889648438 37.9873046875 c 1
 90.765625 -99.2529296875 -16.2001953125 -175 -177.91015625 -179.99609375 c 0
 -187 -180.288085938 l 1
 -178.029296875 -141.413085938 l 1
 -174.0703125 -140.2734375 l 0
 -41.9912109375 -103.340820312 3.0341796875 -66.12890625 42.2802734375 84.91015625 c 1
 49.7470703125 112.346679688 100.340820312 318.154296875 133.686523438 467.431640625 c 0
 151.9609375 549.239257812 169.032226562 621.821289062 181.032226562 676.905273438 c 1
 181.484375 678.83203125 183.684570312 688.555664062 183.684570312 690.3203125 c 0
EndSplineSet
EndChar

StartChar: plus
Encoding: 43 43 47
GlifName: plus
Width: 395
VWidth: 0
Flags: W
HStem: 271.275 55.1992<51.593 163.649 233.998 345.645>
VStem: 50.2402 296.893<271.448 326.475>
LayerCount: 2
Fore
SplineSet
189.856605733 143.601592052 m 2
 187.394286775 131.287706724 170.78672442 129.674804688 160.962890625 129.674804688 c 0
 153.908500157 129.674804688 132.896484375 131.776303611 132.896484375 143.415039062 c 0
 132.896484375 146.788948059 134.937404498 153.6669686 135.158380199 154.484562183 c 0
 145.615127487 193.173745885 154.610363593 232.026001613 163.649414062 271.275390625 c 1
 60.814453125 271.275390625 l 1
 51.864467176 274.856781258 50.240234375 284.2578125 50.240234375 291.978515625 c 0
 50.240234375 304.599609375 54.642578125 326.474609375 70.662109375 326.474609375 c 0
 172.512695312 326.474609375 l 0
 174.58984375 326.474609375 175.243164062 327.815429688 176.268554688 330.826171875 c 1
 202.284226172 444.477749687 l 1
 205.99950216 445.716047027 l 0
 215.724209692 448.957281194 224.742411866 451.325195312 233.412109375 451.325195312 c 0
 242.12173024 451.325195312 249.721027221 448.792720484 255.913477666 445.077941337 c 0
 260.286873403 442.454391997 l 1
 233.9296875 327.287109375 l 0
 233.9296875 327.287109375 328.01953125 326.474609375 337.362304688 326.474609375 c 0
 346.091796875 326.474609375 347.1328125 314.150390625 347.1328125 311.103515625 c 0
 347.1328125 302.881835938 346.255859375 271.275390625 328.862304688 271.275390625 c 0
 222.762695312 271.275390625 l 2
 221.359375 271.275390625 220.420223411 270.339261931 220.206054688 269.451171875 c 2
 189.856605733 143.601592052 l 2
EndSplineSet
Validated: 1
EndChar

StartChar: B
Encoding: 66 66 48
GlifName: B_
Width: 616
VWidth: 0
Flags: W
HStem: -2 30<131.378 288.85> 0 20<-9.5 18.0515> 361 41<219.638 354.266> 700 34<287.783 422.45> 710 20<157.799 182.864>
VStem: 431.461 91.3322<145.243 301.161> 473.036 83.6416<503.803 659.002>
LayerCount: 2
Fore
SplineSet
212.002929688 359.33984375 m 1xa4
 135.172099137 55.21875 l 2
 134.654279405 52.5478515625 131.375 38.7490234375 131.375 36.8388671875 c 0
 131.375 29.8115234375 135.380859375 29 141.671875 29 c 0
 157.653320312 29 173.310546875 28 188.642578125 28 c 0
 356.526367188 28 431.460802515 123.081054688 431.460802515 243.940429688 c 0
 431.460802515 316.993164062 343.46875 361 259.533203125 361 c 0
 243.231445312 361 222.219726562 359.848632812 212.002929688 359.33984375 c 1xa4
556.677734375 585.2265625 m 0x32
 556.677734375 483.217773438 482.583007812 418.801757812 395.15234375 390.651367188 c 1
 459.881835938 375.8984375 522.79296875 323.447265625 522.79296875 235.920898438 c 0
 522.79296875 68.1953125 379.671694067 -2 260.577233173 -2 c 0xb4
 192.524711706 -2 161.282241693 0 65.9658203125 0 c 0
 -15 0 l 1
 -9.5 20 l 1
 -4.0341796875 20 l 0
 4.0859375 20 11.072265625 19.9921875 18.39453125 21.78515625 c 1
 34.79296875 25.1669921875 44.6962890625 46.6171875 47.15625 57.056640625 c 1
 77.1728515625 172.709960938 104.145507812 288.18359375 131.284179688 403.7421875 c 0
 151.560053192 490.078447432 190.849609375 663.2421875 190.849609375 663.2421875 c 1
 191.6484375 666.80078125 195 683.499023438 195 687 c 0
 195 699.966796875 190.611328125 706.005859375 183.1328125 708.345703125 c 1
 177.436523438 709.873046875 169.63671875 710 161.329101562 710 c 0
 151.970703125 710 l 1
 157.799190469 730 l 1
 188.555439986 730 l 0x6c
 250.834475314 730 303.018064542 734 364.95664359 734 c 0
 485.001953125 734 556.677734375 673.322265625 556.677734375 585.2265625 c 0x32
302.560546875 698.0546875 m 1
 293.288085938 697.03125 290.852539062 695 288.416992188 686.647460938 c 2
 247.873321142 517.655273438 l 1
 219.63787516 402 l 1
 254.314468548 402 l 0
 377.53619734 402 473.036132812 472.696289062 473.036132812 591.899414062 c 0x32
 473.036132812 653.010742188 436.466796875 700 346.16796875 700 c 0
 330.986328125 700 303.73828125 698.09765625 302.560546875 698.0546875 c 1
EndSplineSet
Validated: 1
EndChar

StartChar: C
Encoding: 67 67 49
GlifName: C_
Width: 736
VWidth: 0
Flags: W
HStem: -10 46<241.869 441.197> 701 41<391.422 581.896>
VStem: 52.3896 101.309<129.492 396.772>
LayerCount: 2
Fore
SplineSet
511.452225098 742 m 0
 643.432270939 742 688.955078125 657 710.391601562 657 c 0
 727.96875 657 732.809570312 684 749.391601562 684 c 0
 755.2109375 684 760.2265625 679.325195312 760.2265625 670.500976562 c 0
 760.2265625 668.63671875 760.078125 665.924804688 759.631835938 663.588867188 c 1
 716.3125 462.138671875 l 1
 714.764648438 455.264648438 708.134765625 450.732421875 700.786132812 450.732421875 c 0
 695.865234375 450.732421875 688.391601562 456.616210938 688.391601562 466 c 0
 688.391601562 565.634765625 647.8359375 701 488.783203125 701 c 0
 269.002929688 701 153.698242188 442.790039062 153.698242188 237.337890625 c 0
 153.698242188 57.2353515625 275.991210938 36 332.1640625 36 c 0
 500.129999002 36 618.373046875 181.74609375 631 200 c 1
 662.4609375 188.655273438 l 1
 658.634890721 181.823249036 554.585834993 -10 324.95082898 -10 c 0
 220.067943534 -10 52.3896484375 37.263671875 52.3896484375 241.982421875 c 0
 52.3896484375 504.516601562 235.938433108 742 511.452225098 742 c 0
EndSplineSet
Validated: 1
EndChar

StartChar: E
Encoding: 69 69 50
GlifName: E_
Width: 618
VWidth: 0
Flags: W
HStem: 0 19.4355<22.6953 65.3927 186.788 344.075> 378 33<258.979 433.151> 710.564 19.4355<189.965 225.89 339.04 484.941>
VStem: 451.291 13.3457<318 340.267> 486.61 16.3408<443.22 470> 578.941 17.3652<577.498 633.189>
LayerCount: 2
Fore
SplineSet
452.3359375 353.229492188 m 0
 448.84765625 364.404296875 442.875 371.765625 434.43359375 373.090820312 c 0
 407.075195312 377.38671875 379.259765625 378 347.306640625 378 c 0
 317.6796875 378 273.265625 375.240234375 247.482421875 372.690429688 c 1
 172.881835938 49.9423828125 l 1
 172.4296875 48.0908203125 172.209960938 46.2734375 172.209960938 44.40625 c 0
 172.209960938 35.8056640625 182.33984375 29.0048828125 192.375 27.8916015625 c 0
 210.075195312 25.927734375 212.833007812 25 230.194335938 25 c 0
 290.364257812 25 344.7265625 26.0712890625 387.172851562 35.80078125 c 1
 447.216796875 50.2509765625 480.352559338 90.0244140625 506.73828125 148.783203125 c 0
 508.443359375 152.71875 l 1
 529.252929688 154.64453125 l 1
 474.353515625 0 l 1
 17.1953125 0 l 1
 22.6953125 19.435546875 l 1
 28.1611328125 19.435546875 l 0
 38.166015625 19.435546875 39.6455078125 19.470703125 48.7529296875 21.2578125 c 1
 64.837890625 24.580078125 73.90625 36.1435546875 76.33984375 46.490234375 c 0
 76.4150390625 46.80859375 l 1
 76.51953125 47.1181640625 l 0
 82.1357421875 63.6494140625 129.260944242 250.382275468 165.660437944 411.663085938 c 0
 193.757101035 536.155273438 219.858398438 647.321289062 224.890625 672.079101562 c 0
 228.657226562 690.850585938 l 0
 228.657226562 698.1328125 225.16015625 706.232421875 213.67578125 708.78515625 c 0
 213.5078125 708.822265625 l 1
 213.342773438 708.866210938 l 0
 207.333007812 710.48828125 203.846679688 710.564453125 195.487304688 710.564453125 c 0
 185.173828125 710.564453125 l 1
 189.96484375 730 l 1
 615.0625 730 l 1
 596.306640625 575.54296875 l 1
 578.94140625 577.498046875 l 1
 579.165039062 584.232421875 l 0
 579.248046875 586.751953125 579.291015625 589.20703125 579.291015625 591.59765625 c 0
 579.291015625 643.844726562 560.4921875 677.013671875 513.76171875 694.423828125 c 1
 486.770507812 703.819335938 447.069335938 705 401.440429688 705 c 0
 382.017578125 705 364.102539062 704.060546875 344.448242188 702.1171875 c 1
 330.681640625 700.501953125 323.751953125 691.43359375 321.475585938 682.87890625 c 1
 258.979492188 415.26171875 l 1
 287.564453125 413.263671875 326.654296875 411 354.578125 411 c 0
 390.163085938 411 416.928294662 411.373642345 446.782226562 416.909179688 c 0
 462.053871327 419.74085895 470.51171875 426.150390625 476.693359375 438.901367188 c 0
 481.446289062 449.1953125 484 459 486.610351562 470 c 1
 502.951171875 470 l 1
 464.63671875 318 l 1
 451.291015625 318 l 1
 452.896242818 325.703238784 453.908948941 333.626615604 453.908948941 340.594303132 c 0
 453.908948941 345.385297946 453.430145233 349.724446398 452.3359375 353.229492188 c 0
EndSplineSet
Validated: 1
EndChar

StartChar: F
Encoding: 70 70 51
GlifName: F_
Width: 608
VWidth: 0
Flags: W
HStem: 0 20<17.5 47.0501 178.568 205.702> 360 32.9258<249.98 438.038> 710.588 19.4121<185.228 223.046 337.404 496.696>
VStem: 438.029 13.3086<300 327.566> 473.293 16.6436<429.145 452> 597.743 18.4189<577.466 636.823>
LayerCount: 2
Fore
SplineSet
238.319335938 354.670898438 m 1
 216.178710938 258.196289062 194.650097944 154.109588961 170.165039062 56.9794921875 c 0
 169.658330912 54.9694250727 168.471679688 48.2744140625 168.471679688 46.6201171875 c 0
 168.471679688 39.8525390625 168.892781768 27.5320051738 178.243164062 23.4921875 c 0
 185.184570312 20.4931640625 191.080078125 20 201.788085938 20 c 2
 210.536132812 20 l 1
 205.702148438 0 l 1
 13 0 l 1
 17.5 20 l 1
 22.9658203125 20 l 0
 31.0859375 20 40.072265625 20.9921875 47.39453125 22.787109375 c 1
 64.0478515625 27.224609375 72.751953125 45.88671875 75.2900390625 56.576171875 c 0
 81.0029296875 74.310546875 121.196289062 241.565429688 158.08203125 397.241210938 c 0
 189.253338235 528.799294894 220.33984375 671.5546875 220.3671875 671.67578125 c 1
 220.748046875 673.237304688 225.083984375 692.142578125 225.083984375 692.888671875 c 0
 225.083984375 700.162109375 221.553710938 706.267578125 210.168945312 708.799804688 c 1
 201.952148438 710.526367188 201.118164062 710.587890625 190.748046875 710.587890625 c 0
 181.44921875 710.587890625 l 1
 185.227539062 730 l 1
 633.810546875 730 l 1
 616.162109375 575.571289062 l 1
 597.743164062 577.465820312 l 1
 597.969726562 584.234375 l 0
 598.065429688 587.10546875 598.114257812 589.907226562 598.114257812 592.635742188 c 0
 598.114257812 645.009765625 581.532226562 680.828125 534.075195312 694.259765625 c 1
 498.479492188 703.895507812 448.416992188 705 391.438476562 705 c 0
 371.998046875 705 362.16015625 704.064453125 342.415039062 702.106445312 c 0
 326.538085938 700.532226562 316.1015625 678.66796875 313.498046875 668.037109375 c 1
 249.98046875 396.326171875 l 1
 285.663085938 394.096679688 330.8046875 392.92578125 367.926757812 392.92578125 c 0
 413.961914062 392.92578125 443.470703125 394.19921875 459.39453125 418.90234375 c 0
 465.534649757 428.427698696 469 437 473.29296875 452 c 1
 489.936523438 452 l 1
 451.337890625 300 l 1
 438.029296875 300 l 1
 438.968635326 310.352904433 440.076171875 322.377929688 440.076171875 337.229492188 c 0
 440.076171875 349.2421875 430.775390625 352.608398438 421.215820312 354.088867188 c 0
 394.212890625 358.26953125 366.091796875 360 334.209960938 360 c 0
 304.471679688 360 264.63671875 357.284179688 238.319335938 354.670898438 c 1
EndSplineSet
Validated: 1
EndChar

StartChar: G
Encoding: 71 71 52
GlifName: G_
Width: 760
VWidth: 0
Flags: W
HStem: -10 46<224.212 408.713> 289 20<526.146 560.579 675.592 714.276> 701 41<376.749 563.469>
VStem: 28.0381 103.656<133.946 387.978>
LayerCount: 2
Fore
SplineSet
708.810546875 289 m 2
 679.604496475 289 660.137866601 271.150787783 655.615234375 252.008789062 c 2
 633.607421875 167.037109375 l 1
 627.301757812 141.384765625 618.448858138 134.321289062 599.4010767 113.421875 c 1
 548.632148415 58.298828125 435.814543829 -10 303.389698403 -10 c 0
 202.359983914 -10 28.0380859375 36.73828125 28.0380859375 243.392578125 c 0
 28.0380859375 505.3203125 214.057314037 742 488.85652749 742 c 0
 620.83360415 742 666.374023438 657 687.810546875 657 c 0
 706.369140625 657 707.352539062 684 727.810546875 684 c 0
 736.383789062 684 741.481445312 676.6484375 741.481445312 669.293945312 c 0
 741.481445312 668.157226562 741.421875 667.37109375 741.201171875 665.998046875 c 1
 700 470 l 2
 698.54296875 462.967773438 694.291992188 453 684 453 c 0
 677.397460938 453 667.810546875 459.884765625 667.810546875 468 c 0
 667.810546875 567.634765625 629.254882812 701 470.188476562 701 c 0
 251.603515625 701 131.694335938 445.551757812 131.694335938 241.036132812 c 0
 131.694335938 57.5341796875 259.09765625 36 315.75390625 36 c 0
 400.435546875 36 529.535062102 107.31640625 545.69800522 172.711914062 c 1
 564.244140625 252.225585938 l 1
 564.716796875 254.159179688 565.91796875 263.815429688 565.91796875 265.501953125 c 0
 565.91796875 281.165039062 550.74179221 289 532.041015625 289 c 2
 523.350585938 289 l 1
 526.146106587 309 l 1
 718.776367188 309 l 1
 714.276367188 289 l 1
 708.810546875 289 l 2
EndSplineSet
Validated: 1
EndChar

StartChar: K
Encoding: 75 75 53
GlifName: K_
Width: 619
VWidth: 0
Flags: W
HStem: -0 20<24.5 51.4975 185.602 212.431 387.156 415.487 554.227 584.431> 710 20<192.5 217.781 349.935 380.775 524.5 549.641 643.825 675.431>
LayerCount: 2
Fore
SplineSet
435.90234375 50.119140625 m 0
 435.90234375 55.220703125 434.207631615 64.1928613025 429.538085938 74.220703125 c 0
 385.5625 168.658203125 335.455078125 273.344726562 288.063476562 366.708007812 c 5
 274.970703125 356.669921875 257.3203125 347.33984375 246 344 c 5
 179 64 l 2
 177.667308329 58.4305422702 178.09765625 49.4677734375 178.09765625 43.203125 c 0
 178.09765625 35.3056640625 176.914368924 25.8793629457 185.227539062 22.890625 c 0
 193.205379107 20.0224444061 201.471679688 20 207.965820312 20 c 0
 216.629882812 20 l 1
 212.430664062 0 l 1
 20 0 l 1
 24.5 20 l 1
 29.9658203125 20 l 0
 36.15234375 20 44.4306640625 20.96875 51.845703125 21.875 c 1
 68.7802734375 25.7294921875 78.689453125 45.7900390625 82.142578125 57.0048828125 c 1
 112.1796875 172.73828125 139.131835938 288.125976562 166.137695312 403.732421875 c 0
 187.150390625 494.884765625 209.102539062 585.767578125 228.125 676.96875 c 1
 228.596679688 678.969726562 229.784179688 685.598632812 229.784179688 687.31640625 c 0
 229.784179688 693.10277606 228.2890625 699.874023438 218.041992188 705.3046875 c 0
 212.52563988 708.228201765 203.966796875 710 196.965820312 710 c 0
 188 710 l 1
 192.5 730 l 1
 385.400390625 730 l 1
 380.775390625 710 l 1
 374.965820312 710 l 0
 367.885742188 710 358.02734375 708.796875 349.536132812 706.176757812 c 0
 336 702 325.131835938 684.590820312 322.786132812 674.427734375 c 0
 255.784179688 391.430664062 l 1
 272.078125 399.227539062 291.849609375 412.415039062 317.828125 440.754882812 c 1
 530.8671875 653.796875 l 1
 549.883789062 673.869140625 557.508789062 681.014648438 557.508789062 688.725585938 c 0
 557.508789062 693.627929688 556.512728806 698.962862544 549.814453125 704.095703125 c 0
 546.174510748 706.884964845 537.96875 710 529.965820312 710 c 0
 520.166992188 710 l 1
 524.5 730 l 1
 679.930664062 730 l 1
 675.430664062 710 l 1
 669.965820312 710 l 0
 663.584960938 710 652.202148438 709.122070312 643.411132812 706.208984375 c 1
 631.533203125 702.881835938 617.314453125 682.829101562 602.095703125 666.928710938 c 1
 352.26171875 415.624023438 l 1
 374.298828125 374.77734375 l 1
 454.26953125 241.620117188 515.342773438 109.25390625 541.405273438 49.361328125 c 0
 548.849119577 32.2509853835 559.833984375 20 579.965820312 20 c 2
 588.930664062 20 l 1
 584.430664062 -0 l 1
 382.53125 0 l 1
 387.15625 20 l 1
 392.965820312 20 l 2
 399.19140625 20 408.247070312 20.8076171875 415.84375 22.9111328125 c 0
 427 26 435.90234375 37.125 435.90234375 50.119140625 c 0
EndSplineSet
Validated: 1
EndChar

StartChar: Y
Encoding: 89 89 55
GlifName: Y_
Width: 603
VWidth: 0
Flags: W
HStem: 0 20<124.5 154.003 281.237 312.742> 710 20<100.5 135.678 248.66 282.775 535.156 569.007 644.716 685.431>
LayerCount: 2
Fore
SplineSet
154.39453125 23.78515625 m 0
 170 29 179.712890625 46.6875 182.153320312 57.0478515625 c 0
 199.1953125 125.78125 217.16796875 193.262695312 233.147460938 260.763671875 c 0
 242.905273438 301.862304688 253.184570312 345.392578125 261.723632812 384.930664062 c 1
 213.596679688 508.671875 165.438476562 636.96875 140.546875 690.610351562 c 1
 133.5 707.176757812 128.604492188 710 104.965820312 710 c 0
 96 710 l 1
 100.5 730 l 1
 287.400390625 730 l 1
 282.775390625 710 l 1
 276.965820312 710 l 0
 253.171875 710 238.19921875 695.211914062 238.19921875 677.791015625 c 0
 238.19921875 672.625976562 239.97265625 665.391601562 243.521484375 655.455078125 c 1
 333.61328125 431.012695312 l 1
 541.80078125 651.724609375 l 0
 559.682617188 671.271484375 571.553710938 683.87890625 571.553710938 692.006835938 c 0
 571.553710938 702.407226562 560.7421875 710 539.965820312 710 c 0
 531.182617188 710 l 1
 535.15625 730 l 1
 689.930664062 730 l 1
 685.430664062 710 l 1
 678.965820312 710 l 0
 647.868164062 710 632.798828125 690.883789062 623.229492188 679.806640625 c 1
 357.284179688 391.950195312 l 1
 344.563476562 346.952148438 336.243164062 302.263671875 325.67578125 256.681640625 c 0
 309.993164062 189.036132812 296.763671875 136.348632812 279.840820312 69.0654296875 c 1
 279.840820312 69.0654296875 275.146484375 52.572265625 275.146484375 46.6005859375 c 0
 275.146484375 31.677734375 285.697265625 20 307.186523438 20 c 0
 316.708007812 20 l 1
 312.7421875 0 l 1
 120 0 l 1
 124.5 20 l 1
 129.965820312 20 l 0
 138.0859375 20 146.040039062 20.9931640625 154.39453125 23.78515625 c 0
EndSplineSet
EndChar

StartChar: Z
Encoding: 90 90 56
GlifName: Z_
Width: 693
VWidth: 0
Flags: W
HStem: 0 33<163.558 462.967> 700 30<325.237 606.928>
LayerCount: 2
Fore
SplineSet
698.697265625 671.640625 m 2
 162.072265625 39.01953125 l 1
 193.75 35.060546875 227.000976562 33 263.862304688 33 c 0
 306.10546875 33 388.6328125 33.0595703125 437.251953125 39.9296875 c 0
 501.7421875 48.716796875 540.318038275 98.2410541838 569.429802339 166.744140625 c 1
 593.758789062 168.592773438 l 1
 525.969726562 0 l 1
 64.3701171875 0 l 0
 56.720703125 0 37.3701171875 3.435546875 37.3701171875 23.525390625 c 0
 37.3701171875 33.232421875 44.9111328125 41.5439453125 48.9541015625 46.498046875 c 1
 606.927734375 696.734375 l 1
 579.469726562 697.907226562 525.186523438 700 484.749023438 700 c 0
 428.041992188 700 384.211914062 698.956054688 343.907226562 690.168945312 c 0
 274.615234375 675.137695312 237.031252871 637.670060448 209.004882812 577.294921875 c 1
 187.350585938 575.25 l 1
 255.659179688 726.8828125 l 0
 259.296875 732.171875 266.62109375 734 272.990234375 734 c 0
 284.359375 734 302.356445312 730 307 730 c 0
 714.392578125 730 l 1
 714.392578125 730 715.202148438 720.745117188 715.370117188 716.1171875 c 0
 715.370117188 700.814453125 709.326171875 683.546875 698.697265625 671.640625 c 2
EndSplineSet
Validated: 1
EndChar

StartChar: zero
Encoding: 48 48 57
GlifName: zero
Width: 480
VWidth: 0
Flags: W
HStem: -7 34<145.418 221.024> 607 33<283.119 358.333>
VStem: 33.2607 75.1367<80.0196 327.263> 395.47 74.1768<305.976 554.445>
LayerCount: 2
Fore
SplineSet
326.708007812 607 m 0
 236.405273438 607 108.397460938 368.51171875 108.397460938 184.48828125 c 0
 108.397460938 92.275390625 135.006835938 27 177.061523438 27 c 0
 267.698242188 27 395.469726562 256.498046875 395.469726562 450.965820312 c 0
 395.469726562 542.305664062 368.447265625 607 326.708007812 607 c 0
33.2607421875 205.35546875 m 0
 33.2607421875 423.268554688 185.169921875 640 332.204101562 640 c 4
 424.830078125 640 469.646484375 550.6328125 469.646484375 430.529296875 c 0
 469.646484375 212.721679688 321.123046875 -7 171.565429688 -7 c 0
 79.38671875 -7 33.2607421875 84.208984375 33.2607421875 205.35546875 c 0
EndSplineSet
EndChar

StartChar: one
Encoding: 49 49 58
GlifName: one
Width: 480
VWidth: 0
Flags: W
HStem: 0 20<120.5 150.29 250.149 272.775>
VStem: 115 292.157
LayerCount: 2
Fore
SplineSet
267.965820312 20 m 0
 276.400390625 20 l 1
 272.775390625 0 l 1
 115 0 l 1
 120.5 20 l 1
 125.965820312 20 l 0
 143.993164062 20 156.299804688 32.708984375 159.139648438 45.2021484375 c 1
 290.147460938 524.111328125 l 4
 291.782226562 530.989257812 294.624023438 542.375 294.624023438 545.584960938 c 4
 294.624023438 549.8359375 293.69921875 558.978515625 288.965820312 558.978515625 c 4
 279.557617188 558.978515625 256.567382812 556.048828125 256.567382812 556.048828125 c 4
 247.271484375 555.263671875 l 5
 253.840820312 577.373046875 l 5
 257.3359375 578.7578125 l 4
 293.865234375 593.234375 346.446289062 618.5390625 382.440429688 639.047851562 c 4
 384.973632812 640.524414062 388.827148438 643 393.965820312 643 c 4
 401.19921875 643 407.157226562 641.6171875 407.157226562 639.780273438 c 4
 407.157226562 639.522460938 407.057617188 639.262695312 406.870117188 639 c 4
 406.834960938 639 l 5
 250 46 l 1
 249.668945312 44.4287109375 248.3125 39.3837890625 248.3125 38.2841796875 c 0
 248.3125 32.0029296875 251.346679688 20 267.965820312 20 c 0
EndSplineSet
EndChar

StartChar: two
Encoding: 50 50 59
GlifName: two
Width: 480
VWidth: 0
Flags: W
HStem: 0 58<142.02 312.279> 597 45<245.079 361.3>
VStem: 383.051 80.7627<443.627 576.297>
LayerCount: 2
Fore
SplineSet
168.258789062 528.115234375 m 4
 162.68359375 522.685546875 l 5
 143.750976562 538.638671875 l 5
 147.295898438 543.170898438 l 4
 147.381835938 543.282226562 223.447265625 642 332.380859375 642 c 4
 408.790039062 642 463.813476562 604.555664062 463.813476562 540.86328125 c 4
 463.813476562 446.047851562 411.139648438 384.77734375 320.555664062 276.037109375 c 4
 243.524414062 183.565429688 183.59375 97.158203125 142.01953125 58 c 5
 259.525390625 58 l 4
 305.715820312 58 332.97265625 75.5224609375 348.783203125 105.284179688 c 4
 351.116210938 109.674804688 l 5
 369.107421875 105.368164062 l 5
 312.279296875 0 l 5
 35 0 l 5
 37.1748046875 8.4951171875 l 4
 40.1435546875 20.09375 45.1396484375 41.5615234375 45.1396484375 41.5615234375 c 4
 45.5908203125 43.4990234375 l 5
 47.0361328125 44.8984375 l 4
 171.724609375 164.872070312 232.034179688 256.474609375 295.5625 340.47265625 c 4
 344.002929688 404.521484375 383.05078125 458.890625 383.05078125 524.995117188 c 4
 383.05078125 568.869140625 348.94921875 597 300.764648438 597 c 4
 245.072265625 597 208.509765625 567.3125 168.258789062 528.115234375 c 4
EndSplineSet
EndChar

StartChar: hyphen
Encoding: 45 45 60
GlifName: hyphen
Width: 388
VWidth: 0
Flags: W
HStem: 267.9 60.1992<65.2899 330.951>
VStem: 55.7158 277.942<268.529 328.1>
LayerCount: 2
Fore
SplineSet
64.0383774742 268.400887046 m 6
 57.4627662838 271.030642267 55.7158203125 280.995117188 55.7158203125 287.604492188 c 4
 55.7158203125 300.227539062 60.118611411 328.099609375 77.1376953125 328.099609375 c 4
 323.887695312 328.099609375 l 4
 333.418919531 328.099609375 333.657742277 316.158980775 333.657742277 313.72942717 c 4
 333.657742277 305.635154229 331.891118658 267.900390625 313.387695312 267.900390625 c 4
 65.289851315 267.900390625 l 5
 64.0383774742 268.400887046 l 6
EndSplineSet
Validated: 1
EndChar

StartChar: backslash
Encoding: 92 92 61
GlifName: backslash
Width: 398
VWidth: 0
Flags: W
VStem: 36.4025 326.347
LayerCount: 2
Fore
SplineSet
359.390188901 -102.21428172 m 2
 349.544099261 -107.319661533 338.219485436 -110.052364588 327.000000706 -110.052364588 c 0
 302.095899333 -110.052364588 284.190034096 -93.7463167727 275.394472024 -59.7916144747 c 1
 275.394472024 -59.7916144747 125.431427846 422.57897393 36.4024715086 673.660637308 c 0
 36 674.795697405 l 1
 36 676 l 0
 36 693.164058056 48.1150440921 703.25617942 63.9999991844 703.25617942 c 0
 78.6068396799 703.25617942 96.1808601059 695.746893363 114.465553045 681.525465522 c 0
 116.286215194 680.109394961 l 1
 116.908444425 677.88838229 l 0
 188.877645152 420.998318586 261.812545396 185.209843268 362.749959892 -93.6172720239 c 0
 364.83930037 -99.3888165142 l 1
 359.390188901 -102.21428172 l 2
EndSplineSet
Validated: 1
EndChar

StartChar: parenleft
Encoding: 40 40 62
GlifName: parenleft
Width: 376
VWidth: 0
Flags: W
VStem: 33.3714 61.8763<3.84841 276.497>
LayerCount: 2
Fore
SplineSet
341.310563469 752.134734865 m 2
 305.825437652 711.274135533 201.946762047 647.186103785 125.494763352 315.197999163 c 0
 103.197115613 218.792611217 95.2476856124 145.943402226 95.2476856124 90.2403962976 c 0
 95.2476856124 -32.0221887423 132.460550957 -70.4273682465 144.108598492 -100.711714056 c 0
 144.902698699 -102.776335205 l 1
 130.181760057 -161.660089773 l 1
 121.370053784 -149.280641527 l 1
 120.39682632 -147.913367002 33.3714029369 -25.2582461736 33.3714029369 168.145010838 c 0
 33.3714029369 214.720317658 38.4314260692 265.405379547 50.9542599355 319.397510839 c 0
 123.001392064 631.957487273 337.791568555 792.785598991 339.941049599 794.399945186 c 1
 354.566757283 805.384436355 l 1
 342.448105777 753.444598067 l 1
 341.310563469 752.134734865 l 2
EndSplineSet
Validated: 1
EndChar

StartChar: parenright
Encoding: 41 41 63
GlifName: parenright
Width: 382
VWidth: 0
Flags: W
VStem: 281.859 62.2414<375.334 649.41>
LayerCount: 2
Fore
SplineSet
233.861325706 756.187141277 m 1
 244.827131678 803.179706372 l 1
 253.817647885 792.806317993 l 1
 255.056670688 791.376715065 344.100187839 687.899851258 344.100187839 488.375200311 c 0
 344.100187839 437.230337211 338.251214498 379.828937628 323.5943731 316.243589167 c 0
 258.928731171 37.4422704248 37.1399006517 -150.234266852 36.7535336793 -150.562103604 c 0
 20.1534642416 -164.647450529 l 1
 36.3287057158 -99.9464846325 l 1
 37.3809730508 -98.7029337083 l 0
 72.9214489819 -56.7018278873 176.834070646 10.6436270556 248.00373009 318.346254155 c 0
 273.082773115 427.251844318 281.85874779 507.395481833 281.85874779 567.156790205 c 0
 281.85874779 689.75167852 246.088859969 725.211176039 234.663731029 754.154410976 c 0
 233.861325706 756.187141277 l 1
EndSplineSet
Validated: 1
EndChar

StartChar: three
Encoding: 51 51 64
GlifName: three
Width: 480
VWidth: 0
Flags: W
HStem: -7 24<93.7761 201.941> 515.581 21G<122.636 160.785> 594 46<240.749 340.075>
VStem: 344.884 72.8184<139.77 263.899> 351.496 95.7012<494.555 582.59>
LayerCount: 2
Fore
SplineSet
137.938476562 515.581054688 m 5xe8
 122.635742188 530.578125 l 5
 125.32421875 533.440429688 219.559570312 640 329.256835938 640 c 4
 404.653320312 640 447.197265625 610.201171875 447.197265625 560.27734375 c 4xe8
 447.197265625 480.641601562 361.6171875 427.399414062 291.1953125 379.18359375 c 5
 359.095703125 369.31640625 417.702148438 312.95703125 417.702148438 234.666992188 c 4
 417.702148438 83.521484375 273.529296875 -7 128.85546875 -7 c 4
 75.18359375 -7 0 12.4716796875 0 41.91796875 c 4
 0 46.7998046875 2.0595703125 50.2578125 2.99609375 52.130859375 c 4
 6.9765625 60.1015625 21.5380859375 66 34.2568359375 66 c 4
 45.478515625 66 56.3046875 57.8515625 66.20703125 47.9501953125 c 4
 80.03125 34.125 107.14453125 17 136.362304688 17 c 4
 234.409179688 17 344.883789062 99.9462890625 344.883789062 206.893554688 c 4xf0
 344.883789062 240.567382812 318.958007812 277.477539062 294.23828125 291.5859375 c 4
 272.827148438 303.805664062 244.223632812 311 218.870117188 311 c 4
 183.873046875 311 142.849609375 288 128.85546875 288 c 4
 119.993164062 288 114.256835938 292.8671875 114.256835938 300 c 4
 114.256835938 306.45703125 119.220703125 311.458984375 122.53125 313.504882812 c 4
 129.384765625 317.682617188 351.49609375 446.725585938 351.49609375 535.9609375 c 4
 351.49609375 567.008789062 331.7890625 594 296.3046875 594 c 4
 247.596679688 594 183.630859375 560.293945312 137.938476562 515.581054688 c 5xe8
EndSplineSet
EndChar

StartChar: four
Encoding: 52 52 65
GlifName: four
Width: 480
VWidth: 0
Flags: W
HStem: 0 21G<228.832 288.981> 271 47.9092<154.235 282.562> 278.119 47.1367<373.026 433.33>
LayerCount: 2
Fore
SplineSet
291.813476562 316.04296875 m 5xc0
 352.711914062 513.465820312 l 5
 317.62109375 476.880859375 282.2421875 435.798828125 243 397.749023438 c 4
 212.883789062 368.548828125 178.026367188 341.133789062 154.235351562 318.909179688 c 5
 204.720703125 318.434570312 265.236328125 316.369140625 291.813476562 316.04296875 c 5xc0
67.24609375 300.395507812 m 4
 178.375 409.465820312 306.297851562 517.204101562 408.8046875 625.775390625 c 4
 417.064453125 636.19921875 426.978515625 642 438.196289062 642 c 4
 441.203125 642 443.80078125 641.649414062 446 641.022460938 c 4
 452.33203125 639.217773438 455.364257812 635.118164062 455.364257812 630.477539062 c 4
 455.364257812 629.598632812 455.255859375 628.701171875 455.040039062 627.795898438 c 6
 373.026367188 325.255859375 l 5
 385.965820312 325.598632812 399.805664062 326.088867188 413 326.874023438 c 4
 428.352539062 327.788085938 432.830078125 329.100585938 443.997070312 331.043945312 c 5
 439.965820312 322.826171875 433.711914062 314.578125 433.711914062 302.2734375 c 4
 433.711914062 292.998046875 434.983398438 284.083007812 437.559570312 278.119140625 c 5
 363.750976562 278.119140625 l 5xa0
 293.830078125 7.5234375 l 5
 292.725585938 1.923828125 291.962890625 0 286 0 c 4
 229.196289062 0 l 4
 228.466796875 0 227.73046875 0.0087890625 227 0.0263671875 c 6
 224.872070312 0.078125 220.787109375 0.09375 219 0.162109375 c 4
 214.946289062 0.3173828125 213.771484375 1.759765625 213.771484375 5.2763671875 c 4
 213.771484375 5.9794921875 215.788085938 13 216 14 c 6
 234.254882812 99.265625 264.362304688 185.678710938 282.561523438 271 c 5
 71.1962890625 271 l 4
 63.126953125 271 59 278.340820312 59 284.202148438 c 4
 59 292.0703125 64.1201171875 297.326171875 67.24609375 300.395507812 c 4
EndSplineSet
EndChar

StartChar: semicolon
Encoding: 59 59 66
GlifName: semicolon
Width: 325
VWidth: 0
Flags: W
HStem: -84 24<51.2608 84.0775> 348 116<184.057 255.842>
VStem: 103 93.31<-34.4425 71.7805> 163.357 112.902<368.754 443.374>
LayerCount: 2
Fore
SplineSet
232 464 m 0xd0
 258.45262697 464 276.2595368 443.335738631 276.2595368 417.562313213 c 0
 276.2595368 377.035879002 239.296284539 348 208 348 c 0
 181.557398896 348 163.357148836 366.981152867 163.357148836 392.778146554 c 0
 163.357148836 432.737504104 197.847544051 464 232 464 c 0xd0
151 98 m 0
 179.061731857 98 196.310045232 76.086941014 196.310045232 51.9434992596 c 0
 196.310045232 -33.2114577607 128.205724544 -84 71 -84 c 0
 51.26076927 -84 l 1
 41.66076927 -60 l 1
 52 -60 l 0
 66.8309484746 -60 103 -41.8850713833 103 -27 c 0xe0
 103 -7.5564099659 78.41015625 -0.889410776439 78.41015625 26.8505859375 c 0
 78.41015625 67.6981908342 117.064751261 98 151 98 c 0
EndSplineSet
Validated: 1
EndChar

StartChar: colon
Encoding: 58 58 67
GlifName: colon
Width: 294
VWidth: 0
Flags: W
HStem: -18 116<68.417 139.73> 348 116<152.147 223.887>
VStem: 48.0002 112.573<3.13905 77.5817> 131.736 112.837<368.336 443.544>
LayerCount: 2
Fore
SplineSet
116.313476562 98 m 0xe0
 142.766103532 98 160.573013362 77.335738631 160.573013362 51.5623132131 c 0
 160.573013362 12.0326207265 124.516862115 -18 92.3134765625 -18 c 0
 65.2132744959 -18 48.0002388658 2.47524991649 48.0002388658 27.9925000352 c 0
 48.0002388658 67.6210722289 82.8650884989 98 116.313476562 98 c 0xe0
200.313476562 464 m 0
 226.766103532 464 244.573013362 443.335738631 244.573013362 417.562313213 c 0
 244.573013362 377.299486404 208.635056448 348 177.313476562 348 c 0
 150.783948147 348 131.735773397 367.064744235 131.735773397 393.263915839 c 0xd0
 131.735773397 433.030163333 166.474631925 464 200.313476562 464 c 0
EndSplineSet
EndChar

StartChar: five
Encoding: 53 53 68
GlifName: five
Width: 480
VWidth: 0
Flags: W
HStem: -9 38<84.4751 240.191> 340 70<168.292 312.225> 554.475 56.5254<231.916 442.355>
VStem: 354.723 70.8271<162.384 296.672>
LayerCount: 2
Fore
SplineSet
400.392578125 611 m 0
 417.872070312 611 434.07421875 612.955078125 446.856445312 615.829101562 c 0
 450.034179688 616.543945312 455.450195312 618 459.392578125 618 c 0
 465.850585938 618 475.545898438 614.952148438 475.545898438 605.62109375 c 0
 475.545898438 595.26171875 453.6484375 572.68359375 444.395507812 557.762695312 c 0
 442.35546875 554.474609375 l 1
 231.916015625 554.474609375 l 1
 148.432617188 380.591796875 l 1
 195.249023438 400.3515625 239.469726562 410 279.060546875 410 c 0
 371.430664062 410 425.549804688 357.78125 425.549804688 267.174804688 c 0
 425.549804688 122.147460938 302.032226562 -9 162.737304688 -9 c 0
 118.198242188 -9 63.41796875 12.7353515625 22.546875 51.94921875 c 0
 19.4033203125 54.9638671875 18 59.1416015625 18 62.607421875 c 0
 18 70.654296875 26.1796875 79 33.392578125 79 c 0
 38.173828125 79 41.4013671875 75.890625 42.3427734375 74.9501953125 c 0
 42.83203125 74.4599609375 l 1
 43.216796875 73.8828125 l 0
 68.7421875 48.5947265625 126.1640625 29 161.6796875 29 c 0
 269.553710938 29 354.72265625 126.674804688 354.72265625 217.000976562 c 0
 354.72265625 285.76953125 321.014648438 340 242.760742188 340 c 0
 200.159179688 340 136.557617188 321.186523438 73.82421875 285.899414062 c 0
 55.2392578125 275.444335938 l 1
 214.00390625 611 l 1
 400.392578125 611 l 0
EndSplineSet
EndChar

StartChar: equal
Encoding: 61 61 69
GlifName: equal
Width: 403
VWidth: 0
Flags: W
HStem: 211.4 60.1992<60.7148 326.245> 324.4 60.1992<84.8652 350.396>
VStem: 50.1406 303.092
LayerCount: 2
Fore
SplineSet
83.61328125 324.901367188 m 6
 75.3134765625 328.219726562 74.291015625 337.495117188 74.291015625 344.10546875 c 4
 74.291015625 356.727539062 79.693359375 384.599609375 96.712890625 384.599609375 c 4
 343.462890625 384.599609375 l 4
 353.995117188 384.599609375 353.232421875 372.657226562 353.232421875 370.228515625 c 4
 353.232421875 362.133789062 351.466796875 324.400390625 332.962890625 324.400390625 c 4
 84.865234375 324.400390625 l 5
 83.61328125 324.901367188 l 6
59.462890625 211.901367188 m 2
 51.1630859375 215.219726562 50.140625 224.495117188 50.140625 231.104492188 c 0
 50.140625 243.727539062 55.54296875 271.599609375 72.5625 271.599609375 c 0
 319.3125 271.599609375 l 0
 329.84375 271.599609375 329.083007812 259.658203125 329.083007812 257.228515625 c 0
 329.083007812 249.134765625 327.31640625 211.400390625 308.8125 211.400390625 c 0
 60.71484375 211.400390625 l 1
 59.462890625 211.901367188 l 2
EndSplineSet
Validated: 1
EndChar

StartChar: asterisk
Encoding: 42 42 70
GlifName: asterisk
Width: 383
VWidth: 0
Flags: W
LayerCount: 2
Fore
SplineSet
206.005262203 640.718512124 m 2
 207.768516372 649.536423205 216.344871766 656.625 225.424804688 656.625 c 2
 228.575195312 656.625 l 0
 236.807455303 656.625 244.1367977 650.186796 244.1367977 641.027360084 c 0
 244.1367977 639.955970064 244.070288985 639.118852422 243.862704927 637.874312689 c 1
 223.450239489 533.954894708 l 1
 319.031159548 580.354513008 l 1
 321.884864409 581.781365439 324.546043103 583.125 328.325195312 583.125 c 0
 335.82003549 583.125 345.56274414 577.940484205 345.56274414 567.068847656 c 0
 345.56274414 557.578728673 341.227358508 551.095644308 333.221684808 546.531914124 c 1
 237.347540301 488.047972625 l 1
 305.550282257 430.265718066 l 0
 307.595743894 428.532776229 311.568481445 424.805392433 311.568481445 418.870788577 c 0
 311.568481445 411.821178282 308.193880806 406.521929085 304.98224263 403.233823333 c 0
 301.463557472 399.631359957 295.983059794 394.825195312 288.424804688 394.825195312 c 0
 286.944027989 394.825195312 283.762066828 394.868438537 280.461717762 396.972403393 c 0
 204.496157113 445.400271676 l 1
 175.482152355 338.048633972 l 1
 175.482152355 338.048633972 161.768724133 322.375 155.075195312 322.375 c 0
 151.924804688 322.375 l 0
 143.692544697 322.375 136.3632023 328.813204 136.3632023 337.972639916 c 0
 136.3632023 339.029425949 136.434743158 339.91131705 136.63327593 341.101591132 c 1
 156.10889304 444.044878046 l 1
 58.383514025 396.578438506 l 0
 55.6209041296 395.236604308 52.6156099779 394.825195312 50.0751953125 394.825195312 c 0
 40.4391677238 394.825195312 34.9375 404.157966096 34.9375 411.799804688 c 0
 34.9375 413.850932172 35.1379465428 417.068576907 35.943802909 420.212615034 c 0
 37.7353286413 427.202229369 43.773618169 429.930573761 45.4064898462 430.916762394 c 0
 143.046535228 489.887411655 l 1
 74.9375979218 546.65277716 l 0
 71.861132107 549.222241409 68.6973321023 553.350030188 68.6973321023 559.016264824 c 0
 68.6973321023 572.842109269 80.4473512887 583.125 91.025390625 583.125 c 0
 92.9864102842 583.125 96.3407642863 582.868034051 99.4047213384 581.336767741 c 0
 99.7132256907 581.182587277 l 1
 177.020181379 532.507903152 l 1
 206.005262203 640.718512124 l 2
EndSplineSet
Validated: 1
EndChar

StartChar: numbersign
Encoding: 35 35 71
GlifName: numbersign
Width: 716
VWidth: 0
Flags: W
HStem: 227 59<46.8251 161.271 249.039 342.271 429.039 566.517> 486 59<157.103 280.318 367.04 461.271 546.04 673.23>
LayerCount: 2
Fore
SplineSet
403.154296875 737 m 2
 432.154296875 737 l 0
 435.796961108 737 447.345703125 736.146977372 447.345703125 725.083007812 c 0
 447.345703125 722.484374048 446.762535362 719.812914737 445.523262002 717.095471947 c 0
 367.040162158 545 l 1
 482.653046977 545 l 1
 563.46435664 722.200703119 l 1
 567.549219173 732.4275532 574.161752615 737 583.154296875 737 c 0
 611.154296875 737 l 0
 615.300768187 737 626.308558074 735.646919745 626.308558074 724.719602343 c 0
 626.308558074 722.628525495 625.904982084 720.125267791 624.523262002 717.095471947 c 0
 546.040162158 545 l 1
 668.154296875 545 l 0
 670.628860302 545 683.30859375 545.617972102 683.30859375 534.46875 c 0
 683.30859375 529.116918551 680.620529014 525.206603221 679.374641474 522.789499562 c 0
 673.395507812 501.829101562 l 1
 669.915039062 494.868164062 662.612304688 486 652.154296875 486 c 0
 525.65625 486 l 1
 429.038561624 286 l 1
 562.154296875 286 l 0
 567.483844365 286 576.30859375 283.405925212 576.30859375 274.46875 c 0
 576.30859375 270.162471755 574.496649237 267.971165083 573.379311491 265.798563912 c 0
 563.397460938 240.833984375 l 1
 559.379882812 232.799804688 551.23046875 227 542.154296875 227 c 0
 405.65625 227 l 1
 306.523650537 17.0963240663 l 0
 304.059396328 11.6908632192 299.731167833 3 289.154296875 3 c 0
 259.154296875 3 l 0
 253.343996545 3 243.909179688 5.70374254821 243.909179688 15.2451171875 c 0
 243.909179688 17.8855386338 244.525271037 20.1405240645 245.784943213 22.9036759341 c 0
 342.270507812 227 l 1
 225.676757812 227 l 1
 127.535404173 17.1222457279 l 0
 124.691130457 10.8153779246 119.316849417 3 109.154296875 3 c 0
 78.154296875 3 l 0
 72.0344776294 3 63 6.21678466054 63 16 c 0
 63 19.150266199 63.8832793563 20.925832635 64.7849432131 22.9036759341 c 0
 161.270507812 227 l 1
 53.154296875 227 l 0
 48.2119140625 227 38 229.186523438 38 239.500976562 c 0
 38 244.055664062 39.9287109375 247.259765625 40.931640625 249.206054688 c 0
 49.9121642583 272.168210609 l 1
 53.9273152815 280.198512655 62.0782366732 286 71.154296875 286 c 0
 184.632241572 286 l 1
 280.318359375 486 l 1
 162.154296875 486 l 0
 157.770507812 486 146.962890625 487.611328125 146.962890625 498.165039062 c 0
 146.962890625 502.923828125 148.978515625 506.35546875 149.931640625 508.206054688 c 0
 156.912164258 531.168210609 l 1
 160.927315281 539.198512655 169.078236673 545 178.154296875 545 c 0
 301.653046977 545 l 1
 382.361999583 721.976257524 l 1
 386.984933313 733.185421105 394.429943561 737 403.154296875 737 c 2
345.65625 486 m 1
 249.038561624 286 l 1
 364.652385067 286 l 1
 461.270507812 486 l 1
 345.65625 486 l 1
EndSplineSet
Validated: 1
EndChar

StartChar: six
Encoding: 54 54 72
GlifName: six
Width: 480
VWidth: 0
Flags: W
HStem: -8 29<157.925 259.474> 350.66 56.6484<239.266 343.029>
VStem: 32.2529 81.4941<83.177 299.001> 375.649 80.6602<161.268 316.66>
LayerCount: 2
Fore
SplineSet
496.258789062 633 m 4
 496.258789062 622.623046875 491.993164062 611.810546875 479.404296875 608.213867188 c 4
 287.188476562 560.288085938 113.747070312 390.21875 113.747070312 168.204101562 c 4
 113.747070312 92.5078125 137.13671875 21 200.743164062 21 c 4
 292.721679688 21 375.649414062 121.114257812 375.649414062 249.556640625 c 4
 375.649414062 315.104492188 333.59765625 350.66015625 281.6796875 350.66015625 c 4
 238.513671875 350.66015625 222.571289062 336.793945312 198.583984375 316.798828125 c 4
 198.36328125 316.61328125 l 5
 198.122070312 316.446289062 l 4
 194.7734375 314.12109375 190.858398438 313.079101562 187.223632812 313.079101562 c 4
 180.9765625 313.079101562 172.954101562 317.2578125 172.954101562 324.606445312 c 4
 172.954101562 330.036132812 175.923828125 333.923828125 180.439453125 338.112304688 c 5
 206.73828125 364.2109375 246.587890625 407.30859375 323.548828125 407.30859375 c 4
 380.830078125 407.30859375 456.309570312 368.921875 456.309570312 269.41015625 c 4
 456.309570312 119.633789062 341.297851562 -8 193.25390625 -8 c 4
 93.150390625 -8 32.2529296875 77.087890625 32.2529296875 183.166015625 c 4
 32.2529296875 455.791992188 291.315429688 598.258789062 486.143554688 636.852539062 c 4
 492.344726562 638.14453125 l 5
 494.248046875 632.102539062 l 4
 494.29296875 632.112304688 496.258789062 632.509765625 496.258789062 633 c 4
EndSplineSet
EndChar

StartChar: nine
Encoding: 57 57 73
GlifName: nine
Width: 480
VWidth: 0
Flags: W
HStem: 252.96 51.04<165.922 285.47> 612 29<253.478 361.959>
VStem: 70.7148 71.8604<327.172 483.153> 407.191 73.8193<350.42 570.178>
LayerCount: 2
Fore
SplineSet
42 1.4345703125 m 0
 42 11.83984375 47.03515625 20.6708984375 58.6181640625 23.90625 c 0
 240.291851856 81.31640625 407.19140625 253.004882812 407.19140625 484.337890625 c 0
 407.19140625 556.923828125 381.495117188 612 310.106445312 612 c 0
 235.166015625 612 142.575195312 536.481445312 142.575195312 401.520507812 c 0
 142.575195312 330.51171875 177.947265625 304 216.5234375 304 c 0
 260.733398438 304 302.583007812 322.541992188 325.146484375 342.556640625 c 0
 329.875 346.75 333.549804688 347.759765625 337.98828125 347.759765625 c 0
 343.106445312 347.759765625 348.6015625 343.072265625 348.6015625 337.3515625 c 0
 348.6015625 331.0234375 345.086914062 325.375976562 342.551757812 322.303710938 c 0
 342.39453125 322.118164062 l 1
 342.22265625 321.943359375 l 0
 314.479492188 293.821289062 277.291992188 252.959960938 197.671875 252.959960938 c 0
 142.491210938 252.959960938 70.71484375 283.845703125 70.71484375 381.728515625 c 0
 70.71484375 530.30078125 196.012851984 641 316.560517297 641 c 0
 419.758789062 641 481.010742188 585.192382812 481.010742188 475.202148438 c 0
 481.010742188 186.737304688 237.721375658 31.1865234375 52.4541015625 -14.7734375 c 0
 46.2099609375 -16.40234375 l 1
 44.080078125 -10.310546875 l 0
 44.0478515625 -10.2216796875 42 -5.005859375 42 1.4345703125 c 0
EndSplineSet
EndChar

StartChar: exclam
Encoding: 33 33 74
GlifName: exclam
Width: 324
VWidth: 0
Flags: W
HStem: -18 116<55.417 126.73>
VStem: 35.0002 112.573<3.13905 77.5817>
LayerCount: 2
Fore
SplineSet
103.313476562 98 m 4
 129.766103532 98 147.573013362 77.335738631 147.573013362 51.5623132131 c 4
 147.573013362 12.0326207265 111.516862115 -18 79.3134765625 -18 c 4
 52.2132744959 -18 35.0002388658 2.47524991649 35.0002388658 27.9925000352 c 4
 35.0002388658 67.6210722289 69.8650884989 98 103.313476562 98 c 4
255.013671875 765.375 m 6
 257.11328125 765.375 l 4
 281.28658519 765.375 292.621849182 748.780014834 292.621849182 728.961763275 c 4
 292.621849182 723.006413998 291.760091758 716.900556264 290.140232171 710.420866813 c 5
 158.876904945 220.021478453 l 4
 154.370242815 203.122281326 144.172574152 189.625 127.963867188 189.625 c 4
 113.807072146 189.625 105.370509551 199.966151208 105.370509551 213.560922693 c 4
 105.370509551 216.608715381 105.731992025 219.860346568 106.394811179 223.174031413 c 5
 200.920063335 713.654671315 l 5
 200.956949268 713.808367468 l 4
 207.672452889 741.79050006 227.325027384 765.375 255.013671875 765.375 c 6
EndSplineSet
Validated: 1
EndChar

StartChar: percent
Encoding: 37 37 75
GlifName: percent
Width: 808
VWidth: 0
Flags: W
HStem: 3.60547 30.2314<503.749 572.795> 264.167 30.207<149.135 217.9> 351.478 30.335<578.751 646.298> 568.94 31.7471<363.834 553.128> 601.554 34.2939<217.065 303.598>
VStem: 57.9766 70.6182<308.3 488.466> 316.862 53.3781<419.475 579.956> 409.086 72.9756<48.9099 226.771> 669.575 52.6191<155.99 336.133>
LayerCount: 2
Fore
SplineSet
409.0859375 122.696289062 m 0
 409.0859375 272.090820312 522.25390625 381.8125 622.83203125 381.8125 c 0
 687.147460938 381.8125 722.194335938 340.40625 722.194335938 270.212890625 c 0
 722.194335938 121.831054688 621.678710938 3.60546875 519.206054688 3.60546875 c 0
 450.670898438 3.60546875 409.0859375 47.677734375 409.0859375 122.696289062 c 0
613.956054688 351.477539062 m 0
 563.315429688 351.477539062 482.061523438 237.782226562 482.061523438 124.478515625 c 0
 482.061523438 69.7548828125 503.373046875 33.8369140625 532.965820312 33.8369140625 c 0
 594.139648438 33.8369140625 669.575195312 146.53125 669.575195312 261.79296875 c 0
 669.575195312 314.778320312 649.169921875 351.477539062 613.956054688 351.477539062 c 0
267.949346972 635.84765625 m 0
 293.724892155 635.84765625 316.078360182 628.948242188 331.422219694 618.037109375 c 1
 393.363632179 609.768554688 428.350133858 600.6875 458.694838074 600.6875 c 0
 601.630117965 600.6875 571.947265625 662.998046875 643.545898438 662.998046875 c 0
 649.80078125 662.998046875 656.947265625 662.90625 661.946289062 657.891601562 c 0
 672.6875 647.354492188 l 0
 674.561523438 645.513671875 678.572265625 642.305664062 678.572265625 636.563476562 c 0
 678.572265625 631.077148438 675.575195312 627.306640625 673.782226562 625.147460938 c 0
 135.329101562 -8.607421875 l 0
 132.228515625 -12.4287109375 127.791992188 -13.904296875 124.124023438 -13.904296875 c 0
 117.872070312 -13.904296875 112.739257812 -10.580078125 110.005859375 -8.76171875 c 1
 105.749023438 -5.0986328125 l 1
 105.435546875 -4.8828125 l 0
 101.55859375 -2.2216796875 99.453125 2.001953125 99.453125 6.0380859375 c 0
 99.453125 11.1279296875 101.963867188 15.0849609375 104.358398438 17.966796875 c 0
 598.455213245 604.985351562 l 1
 567.371009455 587.381835938 528.780834545 568.940429688 453.793761769 568.940429688 c 0
 421.030803148 568.940429688 391.988546341 575.032226562 362.728374243 580.71484375 c 1
 368.22064666 564.478515625 370.240398566 549.689453125 370.240398566 530.774414062 c 0
 370.240398566 382.391601562 266.397709394 264.166992188 163.751953125 264.166992188 c 0
 97.6181640625 264.166992188 57.9765625 307.208007812 57.9765625 380.4296875 c 0
 57.9765625 526.157226562 164.751953125 635.84765625 267.949346972 635.84765625 c 0
216.1875 596.514648438 m 1
 176.243164062 567.5546875 128.594726562 470.422851562 128.594726562 384.203125 c 0
 128.594726562 330.038085938 148.76953125 294.374023438 178.020507812 294.374023438 c 0
 239.193359375 294.374023438 316.862249908 407.064453125 316.862249908 522.329101562 c 0
 316.862249908 556.372070312 306.66796875 589.408203125 292.426757812 600.8671875 c 1
 284.06640625 601.374023438 277.754882812 601.553710938 270.376953125 601.553710938 c 0
 253.18359375 601.553710938 234.908203125 599.935546875 216.1875 596.514648438 c 1
EndSplineSet
Validated: 1
EndChar

StartChar: seven
Encoding: 55 55 76
GlifName: seven
Width: 480
VWidth: 0
Flags: W
HStem: 0 21G<11 119.558> 558 64<114.759 390.662>
LayerCount: 2
Fore
SplineSet
390.662109375 558 m 5
 133.489257812 558 l 4
 122.428710938 558 104.337890625 534.412109375 104.283203125 534.349609375 c 4
 102.194335938 532 l 5
 99.05078125 532 l 4
 92.6416015625 532 90 542 90 542 c 4
 91.20703125 545.430664062 l 5
 117.796875 608.181640625 l 5
 118.048828125 608.6015625 l 4
 122.147460938 615.43359375 127.595703125 622 134.61328125 622 c 4
 476.05078125 622 l 4
 484.759765625 622 490.296875 615.37109375 490.296875 608.0703125 c 4
 490.296875 597.444335938 481.131835938 588.702148438 478.549804688 585.49609375 c 4
 326.887695312 400.30078125 150.206054688 164.162109375 88.9091796875 0 c 5
 11 0 l 5
 73.2470703125 164.171875 249.947265625 407.443359375 390.662109375 558 c 5
EndSplineSet
EndChar

StartChar: eight
Encoding: 56 56 77
GlifName: eight
Width: 480
VWidth: 0
Flags: W
HStem: -8 28<160.01 267.797> 619 24<294.805 389.909>
VStem: 42 79.0381<53.9637 199.833> 152.442 76.8594<428.865 552.215> 358.897 75.3894<112.139 242.924> 423.978 63.3516<472.391 596.252>
LayerCount: 2
Fore
SplineSet
121.038085938 121.481445312 m 0xf8
 121.038085938 57.4208984375 154.48828125 20 207.630859375 20 c 0
 291.708984375 20 358.896733663 92.969726562 358.896733663 172.485351562 c 0
 358.896733663 229.42578125 314.799804688 283.85546875 265.23828125 323.051757812 c 1
 176.203125 259.569335938 121.038085938 219.247070312 121.038085938 121.481445312 c 0xf8
229.301740212 483.454101562 m 0
 229.301740212 437.8046875 263.096679688 416.068359375 299.322265625 386.293945312 c 1
 349.061523438 425.129882812 423.977539062 463.869140625 423.977539062 525.71484375 c 0xf4
 423.977539062 575.748046875 403.8828125 619 347.875 619 c 0
 261.397460938 619 229.301740212 553.227539062 229.301740212 483.454101562 c 0
487.329101562 536.4140625 m 0
 487.329101562 452.528320312 390.19140625 403.092773438 336.152606377 365.26171875 c 1
 388.8203125 316.530273438 434.286132812 266.017578125 434.286132812 192.3515625 c 0xf8
 434.286132812 87.8115234375 329.920032191 -8 198.118956907 -8 c 0
 118.827148438 -8 42 39.1767578125 42 119.467773438 c 0
 42 224.10546875 131.783203125 278.450195312 225.991045433 341.201171875 c 1
 188.18268049 373.40234375 152.442382812 406.171875 152.442382812 467.690429688 c 0
 152.442382812 551.799804688 209.025699727 643 361.24115412 643 c 0
 430.099609375 643 487.329101562 598.495117188 487.329101562 536.4140625 c 0
EndSplineSet
EndChar

StartChar: question
Encoding: 63 63 78
GlifName: question
Width: 578
VWidth: 0
Flags: W
HStem: -17 116<149.417 220.73> 743.575 32.7998<290.33 386.609>
VStem: 129 112.573<4.13905 78.5817> 137.209 95.8647<634.039 696.681> 182.062 50.5781<202.198 299.154> 433.215 84.9213<560.893 698.683>
LayerCount: 2
Fore
SplineSet
195.915039062 332.84765625 m 1xcc
 195.931640625 333.521484375 l 1
 196.076171875 334.178710938 l 0
 208.599609375 391.098632812 271.34375 441.690429688 312.837890625 475.088867188 c 1
 388.245117188 535.196289062 433.21484375 554.012695312 433.21484375 633.541992188 c 0
 433.21484375 687.13671875 393.056640625 743.575195312 338.213867188 743.575195312 c 0
 282.4609375 743.575195312 242.7705046 685.045085158 233.073884801 663.712882337 c 1
 220.61213753 634.256502302 192.612331621 616.575195312 172.313476562 616.575195312 c 0
 151.526021435 616.575195312 137.209164339 634.979513892 137.209164339 656.310898962 c 0xd4
 137.209164339 728.309070765 263.41665997 776.375 337.763671875 776.375 c 0
 414.241052745 776.375 518.136179393 725.971516574 518.136179393 626.959236661 c 0
 518.136179393 516.524746333 431.575111221 491.083503973 365.478049905 444.489948346 c 0
 323.260237924 414.938068935 283.575204881 386.833632163 268.695969749 345.694394581 c 0
 245.470464226 281.478071848 234.697274918 204.399212648 232.640625 196.163085938 c 1
 182.0625 203.166992188 l 1
 186.884765625 247.80859375 195.915039062 332.84765625 195.915039062 332.84765625 c 1xcc
197.313476562 99 m 0
 223.766103532 99 241.573013362 78.335738631 241.573013362 52.5623132131 c 0
 241.573013362 13.0326207264 205.516862115 -17 173.313476562 -17 c 0
 146.213274495 -17 129.000238865 3.47524991646 129.000238865 28.9925000352 c 0xe4
 129.000238865 68.621072229 163.865088498 99 197.313476562 99 c 0
EndSplineSet
EndChar

StartChar: quotesingle
Encoding: 39 39 79
GlifName: quotesingle
Width: 141
VWidth: 0
Flags: W
HStem: 489.85 188.301<54.1891 78.0611>
VStem: 46.5924 73.9359<586.563 671.287>
LayerCount: 2
Fore
SplineSet
88.2197265625 678.150390625 m 2
 92.419921875 678.150390625 l 0
 109.874012805 678.150390625 120.528320312 665.955492666 120.528320312 649.44921875 c 0
 120.528320312 642.690389756 117.728399276 634.835819204 115.882761635 629.104315116 c 0
 76.2010216634 505.879871883 l 1
 73.5503795448 494.847983622 65.8102032394 489.849609375 56.7197265625 489.849609375 c 0
 43.0703125 489.849609375 l 0
 34.1098001657 489.849609375 28.4619140625 496.769922185 28.4619140625 504.458007812 c 0
 28.4619140625 505.757239021 28.6112973587 507.274864893 28.7986807639 508.402396072 c 1
 46.5924172992 637.251773966 l 1
 50.0749385551 660.298537355 70.3399074632 678.150390625 88.2197265625 678.150390625 c 2
EndSplineSet
Validated: 1
EndChar

StartChar: quotedbl
Encoding: 34 34 80
GlifName: quotedbl
Width: 268
VWidth: 0
Flags: W
HStem: 489.85 188.301<59.1891 83.0611 172.189 196.061>
VStem: 51.5924 73.9359<586.563 671.287> 164.592 73.9359<586.563 671.287>
LayerCount: 2
Fore
SplineSet
206.219726562 678.150390625 m 2
 210.419921875 678.150390625 l 0
 227.874012805 678.150390625 238.528320312 665.955492666 238.528320312 649.44921875 c 0
 238.528320312 642.690389756 235.728399276 634.835819204 233.882761635 629.104315116 c 0
 194.201021663 505.879871883 l 1
 191.550379544 494.847983622 183.810203239 489.849609375 174.719726562 489.849609375 c 0
 161.0703125 489.849609375 l 0
 152.109800166 489.849609375 146.461914062 496.769922184 146.461914062 504.458007812 c 0
 146.461914062 505.757239028 146.611297359 507.274864891 146.798680763 508.402396069 c 1
 164.592417299 637.251773966 l 1
 168.074938555 660.298537355 188.339907463 678.150390625 206.219726562 678.150390625 c 2
93.2197265625 678.150390625 m 2
 97.419921875 678.150390625 l 0
 114.874012805 678.150390625 125.528320312 665.955492666 125.528320312 649.44921875 c 0
 125.528320312 642.690389756 122.728399276 634.835819204 120.882761635 629.104315116 c 0
 81.2010216634 505.879871883 l 1
 78.5503795448 494.847983622 70.8102032394 489.849609375 61.7197265625 489.849609375 c 0
 48.0703125 489.849609375 l 0
 39.1098001657 489.849609375 33.4619140625 496.769922185 33.4619140625 504.458007812 c 0
 33.4619140625 505.757239021 33.6112973587 507.274864893 33.7986807639 508.402396072 c 1
 51.5924172992 637.251773966 l 1
 55.0749385551 660.298537355 75.3399074632 678.150390625 93.2197265625 678.150390625 c 2
EndSplineSet
Validated: 1
EndChar

StartChar: underscore
Encoding: 95 95 81
GlifName: underscore
Width: 429
VWidth: 0
Flags: W
HStem: -11 56<55.1457 366.066>
VStem: 52.8156 315.519<-11 45>
LayerCount: 2
Fore
SplineSet
65.271484375 -11 m 2
 54.2064427427 -11 52.8156105274 0.679410044496 52.8156105274 5.9855905719 c 0
 52.8156105274 17.9279754289 57.2714606223 45 74.7216796875 45 c 0
 356.12109375 45 l 0
 367.232815383 45 368.335102102 32.8518512753 368.335102102 27.4407281125 c 0
 368.335102102 15.6288823623 363.55076814 -11 346.670898438 -11 c 0
 65.271484375 -11 l 2
EndSplineSet
Validated: 1
EndChar

StartChar: bracketleft
Encoding: 91 91 82
GlifName: bracketleft
Width: 438
VWidth: 0
Flags: W
HStem: -110.15 50.2002<98.6709 227.217> 706.95 43.2002<273.704 413.966>
LayerCount: 2
Fore
SplineSet
273.704101562 706.950195312 m 1
 98.6708984375 -59.9501953125 l 1
 215.879882812 -59.9501953125 l 0
 227.458984375 -59.9501953125 228.09375 -73.076171875 228.09375 -78.6455078125 c 0
 228.09375 -92.146484375 223.255097478 -110.150390625 207.379882812 -110.150390625 c 0
 46.73046875 -110.150390625 l 0
 34.3797739934 -110.150390625 25.0775086738 -103.210914587 25.0775086738 -90.3567797099 c 0
 25.0775086738 -87.2901194865 25.4822224795 -84.1981784941 26.2472170015 -80.6288364161 c 1
 212.096826376 723.671944834 l 1
 215.859488121 741.227922696 228.010782024 750.150390625 246.23046875 750.150390625 c 0
 402.6796875 750.150390625 l 0
 413.641690668 750.150390625 414.141758504 738.05143699 414.141758504 733.501551658 c 0
 414.141758504 721.158108997 411.78515625 706.950195312 395.1796875 706.950195312 c 0
 273.704101562 706.950195312 l 1
EndSplineSet
Validated: 1
EndChar

StartChar: bracketright
Encoding: 93 93 83
GlifName: bracketright
Width: 441
VWidth: 0
Flags: W
HStem: -110.15 50.2002<23.7942 164.921> 705.95 44.2002<211.88 341.984>
LayerCount: 2
Fore
SplineSet
341.984375 705.950195312 m 1
 223.737304688 705.950195312 l 0
 212.232421875 705.950195312 211.815429688 719.202148438 211.815429688 724.381835938 c 0
 211.815429688 736.760742188 213.082226395 750.150390625 230.237304688 750.150390625 c 0
 387.737304688 750.150390625 l 0
 402.114419447 750.150390625 413.460183634 743.776795757 413.460183634 729.399099723 c 0
 413.460183634 726.584660411 413.100082507 723.799450915 412.420800959 720.629049095 c 1
 226.570215022 -83.6717321544 l 1
 222.880763946 -100.891458538 211.242280738 -110.150390625 195.587890625 -110.150390625 c 0
 34.9375 -110.150390625 l 0
 23.4314350153 -110.150390625 23.0156154599 -96.8970456406 23.0156154599 -91.7164212724 c 0
 23.0156154599 -79.3370187448 26.283203125 -59.9501953125 43.4375 -59.9501953125 c 4
 164.920898438 -59.9501953125 l 5
 341.984375 705.950195312 l 1
EndSplineSet
Validated: 1
EndChar

StartChar: bar
Encoding: 124 124 84
GlifName: bar
Width: 314
VWidth: 0
Flags: W
VStem: 88.2139 116.786
LayerCount: 2
Fore
SplineSet
154.675138531 -68.4723801602 m 2
 150.631617864 -82.6284639042 130.368605477 -84.0498046875 118.544921875 -84.0498046875 c 0
 109.026093353 -84.0498046875 88.2138671875 -83.4115592795 88.2138671875 -68.1162109375 c 4
 138.590301882 756.750055198 l 5
 141.01453758 771.299979597 162.927590854 772.049804688 174.89453125 772.049804688 c 0
 184.850406414 772.049804688 204.920898438 771.763671875 205 757 c 2
 154.884975315 -67.7377562214 l 1
 154.675138531 -68.4723801602 l 2
EndSplineSet
Validated: 1
EndChar

StartChar: asciitilde
Encoding: 126 126 85
GlifName: asciitilde
Width: 540
VWidth: 0
Flags: W
HStem: 222.7 83.2998<294.573 395.339> 294.1 81.2002<134.932 231.765>
LayerCount: 2
Fore
SplineSet
198.1015625 375.299804688 m 0x40
 279.848858529 375.299804688 280.532358648 306 354.551757812 306 c 0
 409.174429898 306 463.920623369 358.5 479.500976562 358.5 c 0
 485.839302391 358.5 495.063280529 354.874891929 495.063280529 345.428140118 c 0
 495.063280529 344.422609105 494.933880097 343.418702879 494.692380169 342.452703171 c 0
 487.357779336 313.113162871 396.757394455 222.700195312 328.301757812 222.700195312 c 0x80
 245.414682271 222.700195312 247.403370717 294.099609375 178.151367188 294.099609375 c 0
 136.076926893 294.099609375 85.3460403276 251.049804688 59.5009765625 251.049804688 c 0
 51.930592599 251.049804688 44.5992170103 256.83651874 44.5992170103 265.939490128 c 0
 44.5992170103 267.782391489 44.8858441208 269.650414484 45.4205645939 271.522184847 c 0
 48.7413180947 283.147911172 133.518849866 375.299804688 198.1015625 375.299804688 c 0x40
EndSplineSet
Validated: 1
EndChar

StartChar: dieresis
Encoding: 168 168 86
GlifName: dieresis
Width: 433
VWidth: 0
Flags: W
HStem: 614.7 110.6<147.115 217.257 365.514 435.657>
VStem: 128.581 107.21<633.356 706.643> 346.981 107.21<633.357 706.644>
LayerCount: 2
Fore
SplineSet
412.135742188 725.299804688 m 0
 437.292178731 725.299804688 454.190744594 706.7532163 454.190744594 682.268358678 c 0
 454.190744594 643.488978006 420.540840309 614.700195312 389.036132812 614.700195312 c 0
 363.879107575 614.700195312 346.980543483 633.247561005 346.980543483 657.732987012 c 0
 346.980543483 696.512234684 380.630905613 725.299804688 412.135742188 725.299804688 c 0
193.735351562 725.299804688 m 0
 218.892376799 725.299804688 235.790940892 706.752438995 235.790940892 682.267012989 c 0
 235.790940892 643.487765316 202.140578761 614.700195312 170.635742188 614.700195312 c 0
 145.479305644 614.700195312 128.58073978 633.246783701 128.58073978 657.731641323 c 0
 128.58073978 696.511021994 162.230644066 725.299804688 193.735351562 725.299804688 c 0
EndSplineSet
Validated: 1
EndChar

StartChar: grave
Encoding: 96 96 93
GlifName: grave
Width: 283
VWidth: 0
Flags: W
HStem: 524.891 226.109
VStem: 55.9996 92.2026<692.065 734.748>
LayerCount: 2
Fore
SplineSet
203.833093029 528.676048485 m 2
 162.236645306 564.185211174 74.9454513801 647.029287997 63.5535776272 664.117098626 c 0
 58.6700477745 671.442393405 55.9996362553 680.024301395 55.9996362553 689.172165856 c 0
 55.9996362553 722.774509758 86.69200767 751 115.377929688 751 c 0
 128.010827251 751 140.617485964 746.26009505 148.202281748 734.882901374 c 0
 159.40174996 718.083699056 208.66022712 602.116235068 230.824700445 549.727479936 c 0
 232.873973999 544.883742446 l 1
 208.267258004 524.890785701 l 1
 203.833093029 528.676048485 l 2
EndSplineSet
Validated: 1
EndChar

StartChar: acute
Encoding: 180 180 94
GlifName: acute
Width: 295
VWidth: 0
Flags: W
HStem: 524.975 225.928
VStem: 20.378 225.993
LayerCount: 2
Fore
SplineSet
41.8429087942 524.975369707 m 1
 20.3780020451 546.440276456 l 1
 23.7210521755 551.246898139 l 0
 59.9345634004 603.314513491 142.253079835 719.543290846 158.490844952 735.77998832 c 0
 168.550290008 745.838771963 181.725310308 750.903593683 194.869635556 750.903593683 c 0
 208.013694135 750.903593683 221.188667119 745.838757501 231.247460376 735.779964244 c 0
 241.306581427 725.721406728 246.371459964 712.546750691 246.371459964 699.402576757 c 0
 246.371459964 686.258030048 241.306314739 673.082601052 231.246622468 663.022908782 c 0
 215.04647282 646.822759133 99.5362742307 563.78154442 46.6246134336 528.191678276 c 0
 41.8429087942 524.975369707 l 1
EndSplineSet
Validated: 1
EndChar

StartChar: less
Encoding: 60 60 114
GlifName: less
Width: 513
VWidth: 0
Flags: W
LayerCount: 2
Fore
SplineSet
164.085468036 313.146090518 m 1
 381.823191014 154.968910596 l 1
 363.560853934 72.1796491654 l 1
 41.2939851649 300.885168937 l 1
 45.7390623634 324.592247329 l 1
 474.344153956 553.45904381 l 1
 455.099454134 471.348324572 l 1
 164.085468036 313.146090518 l 1
EndSplineSet
Validated: 1
EndChar

StartChar: greater
Encoding: 62 62 115
GlifName: greater
Width: 509
VWidth: 0
Flags: W
LayerCount: 2
Fore
SplineSet
345.914531964 314.853909482 m 1
 128.183900421 473.025937778 l 1
 145.422727178 551.832002949 l 1
 467.706014835 323.114831063 l 1
 463.260937637 299.407752671 l 1
 34.6400157738 70.5325031327 l 1
 54.9037617849 156.65342368 l 1
 345.914531964 314.853909482 l 1
EndSplineSet
Validated: 1
EndChar

StartChar: asciicircum
Encoding: 94 94 116
GlifName: asciicircum
Width: 458
VWidth: 0
Flags: W
HStem: 547.434 223.851
LayerCount: 2
Fore
SplineSet
431.369898243 571.723266802 m 6
 424.126358473 558.443256747 413.018698435 551.027278683 402.23877909 547.434343597 c 4
 398.311237808 546.125298471 l 5
 273.269384107 661.788819317 l 5
 95.4587843033 546.368599287 l 5
 92.2612209102 547.434343597 l 4
 80.0718550399 551.497045637 72.775390625 561.926655253 72.775390625 575.075195312 c 4
 72.775390625 578.279473132 l 5
 296.313921053 771.285505933 l 5
 433.449144075 575.535271215 l 5
 431.369898243 571.723266802 l 6
EndSplineSet
Validated: 1
EndChar

StartChar: divide
Encoding: 247 247 137
GlifName: divide
Width: 368
VWidth: 0
Flags: W
HStem: 142.1 89.6006<125.884 189.612> 267.95 60.2002<55.29 320.82> 363.35 88.5508<174.586 238.947>
VStem: 114.522 86.8125<153.412 220.239> 163.873 86.8115<374.662 440.917>
LayerCount: 2
Fore
SplineSet
163.873046875 398.27734375 m 0xe8
 163.873046875 429.361328125 190.723632812 451.900390625 216.237304688 451.900390625 c 0
 235.873046875 451.900390625 250.684570312 437.383789062 250.684570312 417.487304688 c 0
 250.684570312 386.715820312 222.686523438 363.349609375 198.387695312 363.349609375 c 0
 177.828125 363.349609375 163.873046875 378.657226562 163.873046875 398.27734375 c 0xe8
114.522460938 177.02734375 m 4xf0
 114.522460938 207.87109375 141.227539062 231.700195312 166.887695312 231.700195312 c 4
 186.805664062 231.700195312 201.334960938 216.2109375 201.334960938 196.3046875 c 4
 201.334960938 165.5 173.38671875 142.099609375 149.037109375 142.099609375 c 4
 128.478515625 142.099609375 114.522460938 157.407226562 114.522460938 177.02734375 c 4xf0
55.2900390625 267.950195312 m 1
 54.0380859375 268.451171875 l 2
 45.73828125 271.770507812 44.7158203125 281.044921875 44.7158203125 287.655273438 c 0
 44.7158203125 300.276367188 50.1181640625 328.150390625 67.1376953125 328.150390625 c 0
 313.887695312 328.150390625 l 0
 324.418945312 328.150390625 323.658203125 316.208984375 323.658203125 313.780273438 c 0
 323.658203125 305.685546875 321.890625 267.950195312 303.387695312 267.950195312 c 0
 55.2900390625 267.950195312 l 1
EndSplineSet
Validated: 1
EndChar

StartChar: dollar
Encoding: 36 36 142
GlifName: dollar
Width: 536
VWidth: 0
Flags: W
HStem: 568.509 29.7607<401.795 424.905>
VStem: 40.6455 64.2988<89.7909 176.82> 141.646 80.113<429.479 529.158> 351.49 78.1559<128.652 239.504> 362.56 55.1804<613.764 671> 430.904 57.7607<498.714 564.059>
LayerCount: 2
Fore
SplineSet
287.834401177 274.633789062 m 1xf4
 260.325808571 196.603515625 234.422311405 121.497070312 215.486792154 67.431640625 c 1
 302.916853752 73.080078125 351.489575541 118.680664062 351.489575541 175 c 0
 351.489575541 227.486328125 329.670538457 245.694335938 287.834401177 274.633789062 c 1xf4
416.361328125 645.594726562 m 0
 412.142578125 631.526367188 406.376953125 612.69921875 401.794921875 598.26953125 c 1
 453.967773438 590.54296875 488.665039062 574.578125 488.665039062 530.0859375 c 0
 488.665039062 499.333984375 458.815429688 495.481445312 450.645507812 495.481445312 c 0
 439.717773438 495.481445312 426.196289062 503.5078125 426.196289062 516.647460938 c 0
 426.196289062 525.34375 430.904296875 533.76171875 430.904296875 538.170898438 c 0
 430.904296875 549.079101562 427.155273438 564.013671875 392.833007812 568.508789062 c 1
 371.16015625 505.681640625 344.227382479 432.19921875 319.559379518 364.5390625 c 1
 385.333984375 317.423828125 429.645507812 279.463867188 429.645507812 207.073242188 c 0xf4
 429.645507812 84.0380859375 307.062041516 38.8798828125 201.494296756 37.4013671875 c 1
 188.4315631 0.646484375 178.815648873 -25.7060546875 178.486881771 -26.6083984375 c 0
 178.194760683 -27.4111328125 l 1
 177.698468943 -28.1240234375 l 0
 168.785111166 -40.9404296875 154.9453125 -47 142.645507812 -47 c 0
 133.581054688 -47 124.942382812 -44.5771484375 119.1796875 -37.3740234375 c 0
 116.694335938 -34.2685546875 l 1
 118.090820312 -30.544921875 l 0
 125.9609375 -9.5625 134.484375 22.9453125 141.491210938 44.673828125 c 1
 77.5654296875 58.8134765625 40.6455078125 98.9375 40.6455078125 128.973632812 c 0
 40.6455078125 149.5703125 51.3916015625 183.96484375 86.6455078125 183.96484375 c 0
 102.672851562 183.96484375 109.12890625 173.350585938 109.12890625 161.760742188 c 0
 109.12890625 149.67578125 104.944335938 135.685546875 104.944335938 122.743164062 c 0
 104.944335938 104.208984375 111.810546875 86.7587890625 157.208007812 81.4892578125 c 1
 187.187692662 162.217773438 216.201912953 240.708984375 241.892863235 313.360351562 c 1
 185.155409396 353.546875 141.645507812 404.426757812 141.645507812 466.922851562 c 0
 141.645507812 543.612304688 234.57203655 610.55078125 341.704042618 612.844726562 c 1
 348.53067162 632.4375 356.645146279 653.534179688 362.559813033 671 c 0
 362.671845134 671 l 1
 362.818429193 671 l 0
 367.868250003 673.549804688 382.482421875 675 393.645507812 675 c 0
 407.2890625 675 417.740234375 665.356445312 417.740234375 653.125 c 0xec
 417.740234375 650.177734375 416.8984375 647.390625 416.361328125 645.594726562 c 0
273.751861287 399.087890625 m 1
 293.265340539 456.397460938 314.796444651 519.549804688 333.709976293 576.67578125 c 1
 262.338198287 571.87890625 221.758495793 521.442382812 221.758495793 491 c 0
 221.758495793 452.400390625 240.03543381 426.438476562 273.751861287 399.087890625 c 1
EndSplineSet
Validated: 1
EndChar

StartChar: cent
Encoding: 162 162 143
GlifName: cent
Width: 505
VWidth: 0
Flags: W
HStem: 63.6811 55.9693<229.535 319.322> 468.95 120.035<381.258 428.668> 561.96 36.3164<247.705 298.061>
VStem: 29.4105 91.7334<175.561 389.995>
LayerCount: 2
Fore
SplineSet
393.818981651 177.964762983 m 1xd0
 407.325303159 144.19660373 l 1
 403.520415672 140.935231476 l 0
 337.994405648 84.7693890559 285.250436172 64.7338115583 213.071968908 63.6811367519 c 1
 168.962092663 -82.2998046875 l 1
 103.906853396 -82.2998046875 l 1
 150.742828543 70.9811185187 l 1
 78.1402930614 91.8437169628 29.4105295843 154.124986775 29.4105295843 253.74883243 c 0
 29.4105295843 464.059555071 161.22855633 591.618861059 308.649867336 598.276846866 c 1xb0
 339.151889005 700.299804688 l 1
 404.155523797 700.299804688 l 1
 370.975390656 588.98494261 l 1
 415.123289727 576.608878312 478.238636661 552.668463057 478.238636661 509.034498058 c 0
 478.238636661 480.612995662 445.413535087 468.950195312 423.115234375 468.950195312 c 0
 375.995647065 468.950195312 371.562048887 516.223489984 355.792324555 539.440246095 c 1
 229.534703079 120.584605938 l 1
 234.952945464 119.943249774 238.527620093 119.650390626 243.565429688 119.650390625 c 0
 281.629129667 119.650390625 330.750012908 134.751423315 386.608845954 173.024551511 c 0
 393.818981651 177.964762983 l 1xd0
298.061469164 561.960442328 m 1
 205.903494497 553.193678273 121.143916492 421.668052631 121.143916492 274.276173026 c 0
 121.143916492 216.552390562 137.144264102 167.886669608 171.371928966 141.671925556 c 1
 298.061469164 561.960442328 l 1
EndSplineSet
Validated: 1
EndChar

StartChar: cedilla
Encoding: 184 184 145
GlifName: cedilla
Width: 292
VWidth: 0
Flags: W
HStem: -163.4 40.25<83.1141 154.829>
VStem: 160.345 63.6373<-118.819 -60.7833>
LayerCount: 2
Fore
SplineSet
174.422937826 35.400390625 m 1
 233.874342887 35.400390625 l 1
 187.640014779 -25.8870443103 l 1
 212.808143771 -32.2319744639 223.98227868 -52.8979334979 223.98227868 -73.2746065487 c 0
 223.98227868 -138.048865673 162.464482501 -163.400390625 124.275390625 -163.400390625 c 0
 87.5645571131 -163.400390625 63.683293471 -147.469258096 52.9138143506 -125.930299857 c 0
 50.8663876796 -121.835446515 l 1
 75.9151004729 -91.7779230338 l 1
 80.9583102502 -100.351192036 l 0
 89.9670127611 -115.665651159 107.577017779 -123.150390625 121.125 -123.150390625 c 0
 141.303818988 -123.150390625 160.344970845 -106.916369102 160.344970845 -86.2086455881 c 0
 160.344970845 -71.0731619344 149.924968774 -60.5 135.825195312 -60.5 c 0
 129.028375943 -60.5 118.644323975 -61.7299254114 112.235569308 -65.7356764974 c 0
 97 -63 l 5
 174.422937826 35.400390625 l 1
EndSplineSet
Validated: 1
EndChar

StartChar: braceleft
Encoding: 123 123 147
GlifName: braceleft
Width: 369
VWidth: 0
Flags: W
HStem: -124.175 29.75<107.004 138.654> 749.425 29.75<298.86 340.254>
VStem: 28.7222 67.3769<-89.1091 53.1982> 109.682 65.3223<170.203 294.863>
LayerCount: 2
Fore
SplineSet
334.515625 749.424804688 m 2
 310.177162506 749.424804688 270.447685201 727.267145511 256.293900937 664.583145605 c 0
 241.728369756 600.079894449 227.079786267 474.321589632 216.390716784 426.220776958 c 1
 203.771997562 372.141270253 180.427800394 340.694704224 149.553583742 327.15096796 c 1
 167.112366084 315.664954153 175.004165688 296.924834545 175.004165688 270.249431518 c 0
 175.004165688 257.357706132 173.067966114 242.500840642 169.140716784 225.669995708 c 1
 158.45867233 177.600795666 114.385323849 51.7304985636 99.8437056253 -12.6668543946 c 0
 97.2357020904 -24.2163615786 96.0990548768 -34.3343577521 96.0990548768 -43.0986747964 c 0
 96.0990548768 -81.4494926746 116.89418042 -94.424804688 136.065429688 -94.424804688 c 0
 144.604264669 -94.424804688 l 1
 138.65352682 -124.174804688 l 1
 132.915039062 -124.174804688 l 0
 110.086828974 -124.174804688 28.7221568929 -118.429888388 28.7221568929 -40.1368836709 c 0
 28.7221568929 -30.5969106728 29.9739875582 -20.0354085531 32.6398889046 -8.52385382362 c 0
 53.870006691 84.8890593417 88.5289515907 151.090924807 107.191611515 234.034365753 c 0
 108.937533769 241.672864412 109.68188546 248.366809161 109.68188546 254.249556877 c 0
 109.68188546 300.870346404 59.578970165 298.330176654 59.578970165 326.277784736 c 0
 59.578970165 327.393981955 59.6739269143 328.31872061 59.932806681 329.548354359 c 1
 66.7524457132 358.529838254 134.099260672 354.471257579 150.241189128 424.084321008 c 1
 168.923092392 507.113286142 167.890580415 573.352357496 189.095521363 666.654492101 c 0
 213.373404881 771.488148158 310.841113764 779.174804688 337.665039062 779.174804688 c 0
 346.203354897 779.174804688 l 1
 340.254461669 749.424804688 l 1
 334.515625 749.424804688 l 2
EndSplineSet
Validated: 1
EndChar

StartChar: braceright
Encoding: 125 125 148
GlifName: braceright
Width: 372
VWidth: 0
Flags: W
HStem: -124.175 29.75<29.311 70.7056> 749.425 29.75<230.912 262.561>
VStem: 194.561 65.3571<360.952 484.797> 273.466 67.3769<601.842 743.422>
LayerCount: 2
Fore
SplineSet
224.96116502 749.424804688 m 1
 230.911902867 779.174804688 l 1
 236.650390625 779.174804688 l 0
 259.478600713 779.174804688 340.843272794 773.429888388 340.843272794 695.13688367 c 0
 340.843272794 685.596910672 339.591442129 675.035408553 336.925540783 663.523853823 c 0
 315.695548678 570.111493659 281.036267847 503.907957563 262.374045248 420.966460242 c 1
 260.64519829 413.510700957 259.918371527 407.030379142 259.918371527 401.254955123 c 0
 259.918371527 354.628294013 311.033533909 356.250033387 311.033533909 329.572513839 c 0
 311.033533909 328.560204925 310.881951467 327.350344941 310.682465277 326.502586609 c 1
 304.228692432 295.841162083 235.373228905 301.131167263 219.329261491 230.937993781 c 0
 200.635620476 147.856861946 201.67824593 81.6625878632 180.469908324 -11.6544921011 c 0
 156.192024807 -116.488148158 58.7243159231 -124.174804688 31.900390625 -124.174804688 c 0
 23.36207479 -124.174804688 l 1
 29.3109680191 -94.424804688 l 1
 35.0498046875 -94.424804688 l 0
 59.3882671805 -94.424804688 99.117744486 -72.2671455115 113.27152875 -9.58314560535 c 0
 127.837059973 54.9201057296 142.485643342 180.678410009 153.174712967 228.779223312 c 1
 165.798399263 282.880017198 189.22541259 315.112056978 219.991905093 328.813000407 c 1
 202.568160051 339.98511141 194.561264 358.467111713 194.561264 384.929361503 c 0
 194.561264 397.720577727 196.498509478 412.503641744 200.424712904 429.330004292 c 1
 211.106757358 477.399204334 255.180105838 603.269501436 269.721724063 667.666854395 c 0
 272.329727598 679.216361578 273.466374811 689.334357751 273.466374811 698.098674795 c 0
 273.466374811 736.449492675 252.671249268 749.424804688 233.5 749.424804688 c 0
 224.96116502 749.424804688 l 1
EndSplineSet
Validated: 1
EndChar

StartChar: ampersand
Encoding: 38 38 149
GlifName: ampersand
Width: 1023
VWidth: 0
Flags: W
HStem: -17.4961 76.0225<336.468 551.296> 323.402 74.8779<783.135 880.006> 461.088 57.6025<249.486 339.209>
VStem: 133.594 61.3584<228.151 375.592> 450.812 73.4219<546.652 699.893> 727.502 46.368<238.284 347.617>
LayerCount: 2
Fore
SplineSet
194.952148438 302.627929688 m 0
 194.952148438 282.15022744 203.048999716 238.350078443 209.343541561 227.136820206 c 1
 244.775942292 251.033141947 450.811523438 447.439727619 450.811523438 615.608398438 c 0
 450.811523438 666.235736482 465.586747274 710.734375 494.919921875 710.734375 c 0
 521.684885393 710.734375 524.233398438 674.090097687 524.233398438 653.694335938 c 0
 524.233398438 420.688572409 236.067068561 208.828279066 231.945195891 183.299702281 c 1
 232.314602226 163.803968352 293.6484375 58.5263671875 440.098632812 58.5263671875 c 4
 599.615234375 58.5263671875 727.501908463 177.980956624 727.501908463 346.213459113 c 0
 727.501908463 376.292042281 722.667760146 397.107457569 645.958884407 425.921375315 c 1
 643.476808132 415.575646242 639.4831643 398.746600309 629.010793916 383.816822638 c 0
 617.981913702 368.095482687 593.023526072 351.909179688 573.66796875 351.909179688 c 0
 566.813587234 351.909179688 555.205078125 354.83652033 555.205078125 367.392578125 c 0
 555.205078125 414.433428144 627.409613489 476.485351562 669.047851562 476.485351562 c 0
 743.098091194 476.485351562 769.785801062 398.280273438 853.887695312 398.280273438 c 0
 869.598591796 398.280273438 883.902061548 404.802015807 898.271139727 411.665121992 c 0
 904.182887905 414.488751663 l 1
 915.774813462 393.850772255 l 1
 911.845442973 390.097976056 l 0
 902.433184467 381.108676614 876.8197403 323.40234375 844.833984375 323.40234375 c 0
 814.864795433 323.40234375 785.516206923 343.292409104 773.869858488 347.788541053 c 1
 771.556106657 186.225231431 687.624864777 -17.49609375 449.811523438 -17.49609375 c 4
 245.067375648 -17.49609375 133.59375 135.713601294 133.59375 265.622070312 c 0
 133.59375 390.417499593 214.497759532 518.690429688 325.182617188 518.690429688 c 0
 353.236290344 518.690429688 387.900390625 496.950597291 387.900390625 467.079101562 c 0
 387.900390625 443.140262733 372.669676826 415.047851562 340.662109375 415.047851562 c 0
 320.864899575 415.047851562 313.042669211 430.459463269 307.164861646 444.491660181 c 0
 301.898728593 457.073458015 297.897628868 461.087890625 286.11328125 461.087890625 c 0
 235.269463428 461.087890625 194.952148438 372.462326998 194.952148438 302.627929688 c 0
EndSplineSet
Validated: 1
EndChar

StartChar: ae
Encoding: 230 230 150
GlifName: ae
Width: 801
VWidth: 0
Flags: W
HStem: -11.0029 40.25<108.214 255.056> -10.4502 48.6504<486.668 638.974> 467.247 44.6504<220.92 346.483 580.69 733.302>
VStem: 7 89.2188<41.3272 146.019> 739.392 89.2188<354.246 462.165>
LayerCount: 2
Fore
SplineSet
114.3046875 425.331054688 m 0xb8
 193.05859375 509.393554688 223.596679688 511.897460938 289.250976562 511.897460938 c 0
 354.5390625 511.897460938 419.733030931 474.581054688 451.518197617 425.928710938 c 1
 503.045100804 477.346679688 563.551757812 512.450195312 681.887695312 512.450195312 c 0
 772.15234375 512.450195312 828.610351562 486.767578125 828.610351562 427.643554688 c 0
 828.610351562 247.065429688 540.461914062 243.323242188 457.6953125 224.775390625 c 1
 453.477539062 202.130859375 447.341796875 179.196289062 447.341796875 159.791015625 c 0
 447.341796875 77.74609375 492.215820312 38.2001953125 549.67578125 38.2001953125 c 0
 600.178710938 38.2001953125 666.852539062 67.1162109375 723.924804688 105.958007812 c 1
 736.520507812 73.1748046875 l 1
 672.858398438 18.03515625 620.840820312 -10.4501953125 534.029296875 -10.4501953125 c 3x78
 452.869140625 -10.4501953125 392.03515625 25.583984375 369.576171875 73.525390625 c 1
 306.298828125 16.88671875 226.501953125 -11.0029296875 152.697265625 -11.0029296875 c 0
 68.5224609375 -11.0029296875 7 14.4541015625 7 73.8037109375 c 0
 7 254.540039062 306.497070312 258.188476562 389.11328125 276.657226562 c 1
 392.377929688 298.140625 393.393554688 321.323242188 393.393554688 341.65625 c 0
 393.393554688 422.787109375 340.537109375 467.247070312 277.685546875 467.247070312 c 0
 184.78125 467.247070312 220.15625 377.36328125 142.491210938 377.36328125 c 0
 125.5234375 377.36328125 105.096679688 386.549804688 105.096679688 404.640625 c 0
 105.096679688 411.228515625 107.954101562 418.411132812 114.3046875 425.331054688 c 0xb8
666.973632812 472.200195312 m 0
 599.75 472.200195312 487.147460938 412.302734375 458.546875 265.61328125 c 1
 561.395507812 285.112304688 739.391601562 287.73046875 739.391601562 418.133789062 c 0
 739.391601562 460.702148438 713.987304688 472.200195312 666.973632812 472.200195312 c 0
363.159179688 139.446289062 m 1
 364.51953125 150.203125 371.846679688 200.890625 377.25390625 235.870117188 c 1
 274.0546875 216.3046875 96.21875 213.727539062 96.21875 86.3134765625 c 0
 96.21875 43.46484375 124.104492188 29.2470703125 170.63671875 29.2470703125 c 0xb8
 222.223632812 29.2470703125 307.103515625 57.349609375 363.159179688 139.446289062 c 1
EndSplineSet
EndChar

StartChar: germandbls
Encoding: 223 223 151
GlifName: germandbls
Width: 537
VWidth: 0
Flags: W
HStem: -190.4 62.2998<-212.707 -87.4211> -9 50<204.308 336.157> 692 43<267.383 366.175>
VStem: 127.829 75.9834<45.83 123.07> 213.258 87.4697<387.672 456.379> 382.637 71.9961<107.135 213.323> 385.647 55.5469<578.922 673.771>
LayerCount: 2
Fore
SplineSet
-85.90234375 -120.439453125 m 0xfa
 -30.060546875 -93.943359375 -15.6318359375 -58.2890625 1.8583984375 8.1025390625 c 1
 47.6005859375 226.653320312 l 1
 111.526367188 504.533203125 l 1
 139.397460938 621.7109375 194.26171875 735 322.642578125 735 c 0
 386.119140625 735 441.194335938 716.041992188 441.194335938 655.889648438 c 0xfa
 441.194335938 530.07421875 300.727539062 505.54296875 300.727539062 431.110351562 c 0
 300.727539062 397.404296875 332.72265625 380.607421875 383.059570312 328.7265625 c 1
 424.362304688 286.719726562 454.6328125 254.375976562 454.6328125 200.043945312 c 0
 454.6328125 90.4482421875 371.704101562 -9 253.40234375 -9 c 0
 193.422851562 -9 159.077148438 29.4462890625 147.88671875 43.552734375 c 0
 141.97265625 51.0107421875 127.829101562 65.2236328125 127.829101562 88.1279296875 c 0
 127.829101562 106.94921875 141.463867188 132 165.978515625 132 c 0
 191.859375 132 202.034179688 77.2646484375 203.8125 53.1142578125 c 1
 207.693359375 48.9228515625 233.377929688 41 278.323242188 41 c 0
 323.725585938 41 382.63671875 84.5419921875 382.63671875 153.465820312 c 0xfc
 382.63671875 201.987304688 340.420898438 241.505859375 301.203125 276.055664062 c 1
 260.750976562 312.49609375 213.2578125 347.826171875 213.2578125 396.126953125 c 0
 213.2578125 459.296875 273.47265625 492.0390625 309.71484375 521.326171875 c 0
 347.232421875 552.692382812 385.647460938 584.38671875 385.647460938 626.647460938 c 0
 385.647460938 661.116210938 355.130859375 692 319.55078125 692 c 0
 248.4609375 692 222.904296875 610.630859375 197.755859375 505.693359375 c 0
 89.603515625 44.97265625 l 1
 87.4287109375 31.82421875 82.43359375 20.4150390625 79.001953125 6.505859375 c 0
 65.7646484375 -47.1455078125 47.9384765625 -74.455078125 -2.4150390625 -117.2578125 c 1
 -35.7314453125 -145.272460938 -107.923828125 -190.400390625 -181.900390625 -190.400390625 c 0
 -202.8515625 -190.400390625 -223.724609375 -185.985351562 -244.486328125 -177.243164062 c 1
 -252.248046875 -173.91796875 -255.547851562 -167.243164062 -255.547851562 -161.025390625 c 0
 -255.547851562 -126.7890625 -209.885742188 -102.900390625 -185.05078125 -102.900390625 c 0
 -152.154296875 -102.900390625 -136.14453125 -128.100585938 -112.978515625 -128.100585938 c 0
 -106.051757812 -128.100585938 -96.0654296875 -125.369140625 -85.90234375 -120.439453125 c 0xfa
EndSplineSet
EndChar

StartChar: uniFB02
Encoding: 64258 64258 152
GlifName: uniF_B_02
Width: 638
VWidth: 0
Flags: W
HStem: -179.2 28.1504<-74.4491 -3.80376> -9.65039 63.3506<429.206 517.976> 451.158 40.832<127.638 160.223 253.468 421.537> 742.775 26.0498<387.105 474.084> 753.851 20G<632.359 637.506>
VStem: 397.194 84.5859<30.6758 153.874>
LayerCount: 2
Fore
SplineSet
-175.012695312 -105.618164062 m 0xf4
 -175.012695312 -104.028320312 -174.884765625 -102.6171875 -174.326171875 -100.94140625 c 0
 -169.7734375 -82.7333984375 -144.90234375 -73.849609375 -129.75 -73.849609375 c 0
 -69.630859375 -73.849609375 -103.512695312 -151.049804688 -42.9599609375 -151.049804688 c 0
 18.0478515625 -151.049804688 41.791015625 -78.9267578125 63.498046875 24.2685546875 c 0
 160.22265625 451.310546875 l 1
 125.598787742 450.089984684 121.333588427 448.19854057 104.677734375 445.415039062 c 1
 127.637748612 488.103515625 l 1
 170.929042889 488.103515625 l 1
 174.709736512 502.788085938 182.490234375 537.015625 185.186523438 547.333007812 c 1
 232.1796875 708.328125 327.248762498 768.825195312 445.629416794 768.825195312 c 0xf4
 469.21545964 768.825195312 500.737255475 763.081054688 526.161132812 747.958007812 c 1
 626.8515625 772.62890625 l 0
 628.994140625 773.180664062 630.967773438 773.850585938 633.75 773.850585938 c 0xec
 641.262695312 773.850585938 643.956054688 766.420898438 643.956054688 762.08984375 c 0
 643.956054688 758.025390625 643.026367188 753.43359375 641.623046875 747.435546875 c 0
 495.69921875 134.868164062 l 5
 490.37109375 112.009765625 481.780273438 80.9287109375 481.780273438 70.5107421875 c 4
 481.780273438 62.7470703125 484.611328125 53.7001953125 492.948242188 53.7001953125 c 4
 510.191417872 53.7001953125 529.664364607 62.0539277053 551.484375 78.4208984375 c 5
 567.07421875 58.9345703125 l 5
 547.386368066 20.3956619506 489.193827183 -9.650390625 444.498046875 -9.650390625 c 4
 413.913085938 -9.650390625 397.194335938 13.068359375 397.194335938 48.283203125 c 4
 397.194335938 73.9853515625 406.208007812 106.2421875 415.782226562 145.810546875 c 5
 535.014648438 653.072265625 l 1
 518.137254745 683.872070312 490.606445312 742.775390625 428.951171875 742.775390625 c 0
 367.223632812 742.775390625 294.407226562 656.107421875 265.7265625 537.616210938 c 0
 253.467773438 491.990234375 l 1
 406.198894374 491.990234375 l 0
 422.604922564 491.990234375 436.419418906 487.936523438 436.419418906 474.899414062 c 0
 436.419418906 467.9140625 430.500976562 460.142578125 427 455 c 0
 421.537109375 447.063476562 l 1
 412.156393488 447.063476562 291.631375785 450.786863087 244.791015625 451.158203125 c 1
 142.885742188 16.6806640625 l 0
 110.819335938 -123.776367188 59.2108976614 -179.200195312 -59.4501953125 -179.200195312 c 0
 -97.66015625 -179.200195312 -144.852539062 -165.87109375 -171.645507812 -116.751953125 c 1
 -171.645507812 -116.751953125 -175.012695312 -107.977539062 -175.012695312 -105.618164062 c 0xf4
EndSplineSet
LCarets2: 1 0
Ligature2: "'liga' fl" f l
EndChar

StartChar: uniFB00
Encoding: 64256 64256 153
GlifName: uniF_B_00
Width: 742
VWidth: 0
Flags: W
HStem: -179.2 28.1445<135.647 226.058> -140.2 28.1504<-96.2952 -24.0624> 450.99 41<101.484 137.843 491.523 617.893> 463.298 27.8018<228.576 401.836> 739.775 29.0498<349.459 432.233 611.935 684.853>
LayerCount: 2
Fore
SplineSet
44.779296875 63.1005859375 m 0xe8
 137.842773438 451.436523438 l 1
 100.525111749 450.218624855 100.165856742 448.322389799 82.654296875 445.548828125 c 1
 101.484375 488.174804688 l 1
 144.529296875 488.174804688 l 1
 148.2890625 502.840820312 157.01953125 537.028320312 159.701171875 547.333007812 c 1
 206.395507812 708.221679688 294.8359375 768.825195312 412.611328125 768.825195312 c 0
 445.376953125 768.825195312 493.262695312 755.298828125 524.067382812 720.736328125 c 1
 568.36328125 755.408203125 618.311523438 768.825195312 675.41796875 768.825195312 c 0
 714.096679688 768.825195312 760.1328125 753.033203125 785.194335938 700.774414062 c 1
 787.958038168 695.653871082 788.109728349 694.639798007 788.109728349 692.17631818 c 0
 788.109728349 688.934497866 787.871716515 687.980448228 786.938476562 684.3984375 c 0
 783.069335938 667.633789062 755.83984375 656.125 740.517578125 656.125 c 0
 679.875976562 656.125 714.879882812 739.775390625 655.014648438 739.775390625 c 0
 593.740234375 739.775390625 531.27734375 656.279296875 502.71875 537.616210938 c 0
 491.5234375 491.990234375 l 1
 598.642578125 491.990234375 l 0
 614.955078125 491.990234375 628.69140625 487.936523438 628.69140625 474.899414062 c 0
 628.69140625 468.077148438 625.666015625 462.133789062 623 457 c 1
 617.892578125 447.063476562 l 1
 613.34375 447.063476562 l 0
 608.0703125 447.063476562 538.11328125 450.1796875 495.434570312 450.990234375 c 1
 493.084960938 450.990234375 487.5078125 450.995117188 483.859375 450.998046875 c 1
 378.541015625 16.6806640625 l 0
 346.657226562 -123.776367188 288.393554688 -179.200195312 170.296875 -179.200195312 c 0
 118.034179688 -179.200195312 61.193359375 -150.95703125 28.9130859375 -113.604492188 c 1
 -1.5439453125 -132.24609375 -38.591796875 -140.200195312 -83.4501953125 -140.200195312 c 0
 -121.66015625 -140.200195312 -168.852539062 -126.87109375 -195.645507812 -77.751953125 c 1
 -195.645507812 -77.751953125 -199.012695312 -68.9775390625 -199.012695312 -66.6181640625 c 0
 -199.012695312 -43.9560546875 -167.559570312 -34.849609375 -153.75 -34.849609375 c 0
 -93.630859375 -34.849609375 -124.512695312 -112.049804688 -64.0625 -112.049804688 c 0
 -3.3994140625 -112.049804688 23.18359375 -40.0263671875 44.779296875 63.1005859375 c 0xe8
126.704101562 59.4853515625 m 1
 115.76171875 10.33984375 100.998046875 -29.625 82.845703125 -58.6962890625 c 1
 96.5224609375 -103.120117188 120.068359375 -151.055664062 188.330078125 -151.055664062 c 0
 188.790039062 -151.055664062 189.250976562 -151.053710938 189.71484375 -151.049804688 c 0
 250.448242188 -150.58984375 278.030273438 -77.6171875 299.60546875 27.6298828125 c 0
 401.8359375 463.1796875 l 1
 332.819335938 463.232421875 251.577148438 463.290039062 223.91796875 463.297851562 c 1xd8
 126.704101562 59.4853515625 l 1
228.576171875 491.099609375 m 1
 406.541015625 491.099609375 l 1
 410.700195312 507.703125 416.934570312 532.756835938 420.647460938 547.333007812 c 1
 434.71875 595.813476562 452.776367188 635.119140625 473.974609375 666.264648438 c 1
 460.609375 698.091796875 435.369140625 739.775390625 392.067382812 739.775390625 c 0
 330.793945312 739.775390625 269.330078125 656.279296875 240.771484375 537.616210938 c 0
 228.576171875 491.099609375 l 1
EndSplineSet
LCarets2: 1 0
Ligature2: "'liga' ff" f f
EndChar

StartChar: uniFB01
Encoding: 64257 64257 154
GlifName: uniF_B_01
Width: 541
VWidth: 0
Flags: W
HStem: -179.2 28.1504<-102.674 -32.4385> -10.2246 64.3496<346.044 432.716> 445.415 42.6885<100.317 138.023> 463.277 27.8223<229.63 408.162> 485.401 20G<486.11 494.038> 740.775 28.0498<351.035 425.84>
VStem: 313.008 85.1387<30.9409 156.02>
LayerCount: 2
Fore
SplineSet
35.97265625 24.2685546875 m 0xd6
 138.0234375 451.310546875 l 1
 103.258880831 450.089971961 99.9972323171 448.199124302 82.271484375 445.415039062 c 1
 100.317382812 488.103515625 l 1
 144.76953125 488.103515625 l 1xe6
 148.564453125 502.788085938 157.377929688 537.015625 160.083984375 547.333007812 c 1
 207.220703125 708.221679688 295.515926682 768.825195312 414.405249996 768.825195312 c 0
 436.713867188 768.825195312 534.859375 753.092773438 534.859375 688.87109375 c 0
 534.859375 665.873046875 519.310546875 638.125 483.517578125 638.125 c 0
 414.375108956 638.125 464.323242188 740.775390625 394.638671875 740.775390625 c 0
 332.829101562 740.775390625 268.396023492 654.778320312 239.930825211 537.616210938 c 0
 229.629882812 491.099609375 l 1xd6
 294.044921875 491.099609375 355.291637429 491.349609375 420.115234375 491.349609375 c 1
 448.428710938 491.729492188 479.27734375 505.401367188 492.943359375 505.401367188 c 0xce
 495.131835938 505.401367188 502.032226562 503.391601562 502.032226562 497.112304688 c 0
 502.032226562 483.353515625 477.508789062 413.362304688 468.538085938 376.672851562 c 0
 410.442707922 133.36328125 l 0
 404.266808804 108.595703125 398.146484375 81.1455078125 398.146484375 67.5302734375 c 0
 398.146484375 59.38671875 402.580078125 54.125 411.702148438 54.125 c 0
 428.145182274 54.125 445.95282284 61.5149046247 467.724609375 77.845703125 c 1
 483.3125 58.359375 l 1
 461.618111724 19.7925902743 403.187251836 -10.224609375 361.392578125 -10.224609375 c 0
 330.6953125 -10.224609375 313.0078125 12.9775390625 313.0078125 48.904296875 c 0
 313.0078125 75.2080078125 322.4609375 108.038085938 332.713867188 148.595703125 c 0
 386.535839608 381.266601562 l 0
 389.441435875 392.604492188 401.958984375 434.119140625 408.162109375 460.325195312 c 1
 343.309570312 461.517578125 256.840820312 463.061523438 224.920898438 463.27734375 c 1
 117.655273438 20.505859375 l 0
 85.4658203125 -122.713867188 29.6347789564 -179.200195312 -89.4501953125 -179.200195312 c 0
 -127.66015625 -179.200195312 -174.852539062 -165.87109375 -201.645507812 -116.751953125 c 1
 -201.645507812 -116.751953125 -205.012695312 -107.977539062 -205.012695312 -105.618164062 c 0
 -205.012695312 -82.9560546875 -173.559570312 -73.849609375 -159.75 -73.849609375 c 0
 -99.630859375 -73.849609375 -131.512695312 -151.049804688 -70.892578125 -151.049804688 c 0
 -9.658203125 -151.049804688 14.1865234375 -78.9189453125 35.97265625 24.2685546875 c 0xd6
EndSplineSet
LCarets2: 1 0
Ligature2: "'liga' fi" f i
EndChar

StartChar: uniFB03
Encoding: 64259 64259 155
GlifName: uniF_B_03
Width: 829
VWidth: 0
Flags: W
HStem: -179.2 28.1445<152.008 246.881> -140.2 28.1504<-79.6218 -7.4174> -10.2246 64.3496<627.868 713.729> 445.549 42.626<119.45 156.802> 463.298 27.8018<247.516 421.743 510.411 688.273> 485.401 20G<767.11 774.538> 742.775 26.0498<377.308 452.771 638.505 709.974>
VStem: 594.029 84.2969<30.415 156.02>
LayerCount: 2
Fore
SplineSet
773.943359375 505.401367188 m 0xe7
 775.131835938 505.401367188 783.032226562 503.391601562 783.032226562 497.112304688 c 0
 783.032226562 483.353515625 758.508789062 413.362304688 749.538085938 376.672851562 c 0
 692.485351562 133.36328125 l 0
 686.368164062 108.595703125 678.326171875 81.1455078125 678.326171875 67.5302734375 c 0
 678.326171875 59.38671875 682.716796875 54.125 691.751953125 54.125 c 0
 708.323776731 54.125 727.888867302 62.217022178 748.724609375 77.845703125 c 1
 764.3125 58.359375 l 1
 742.605841416 19.7707769698 685.39257996 -10.224609375 640.942382812 -10.224609375 c 0
 614.79296875 -10.224609375 594.278320312 12.291015625 594.029296875 48.5390625 c 1
 594.029296875 75.6767578125 603.337890625 107.818359375 613.546875 148.595703125 c 0
 666.806756506 381.266601562 l 0
 669.68456051 392.604492188 682.129882812 434.119140625 688.2734375 460.325195312 c 1
 625.61328125 461.489257812 553.608398438 463.078125 506.749023438 463.111328125 c 1
 398.450195312 20.5068359375 l 0
 366.48828125 -123.170898438 309.303710938 -179.200195312 190.247070312 -179.200195312 c 0
 137.995117188 -179.200195312 78.166015625 -150.95703125 45.8916015625 -113.604492188 c 1
 15.44140625 -132.24609375 -21.599609375 -140.200195312 -66.4501953125 -140.200195312 c 0
 -104.66015625 -140.200195312 -151.852539062 -126.87109375 -178.645507812 -77.751953125 c 1
 -178.645507812 -77.751953125 -182.012695312 -68.9775390625 -182.012695312 -66.6181640625 c 0
 -182.012695312 -43.9560546875 -149.559570312 -34.849609375 -135.75 -34.849609375 c 0
 -75.630859375 -34.849609375 -108.512695312 -112.049804688 -48.06640625 -112.049804688 c 0
 12.5849609375 -112.049804688 41.162109375 -40.0263671875 62.75390625 63.1005859375 c 0
 156.801757812 451.436523438 l 1
 123.491210938 450.21875 118.131835938 448.322265625 101.624023438 445.548828125 c 1
 119.450195312 488.174804688 l 1
 162.486328125 488.174804688 l 1xf3
 166.245117188 502.840820312 173.973864955 537.028320312 176.654640884 547.333007812 c 1
 223.340343742 708.221679688 313.76229888 768.825195312 431.514436237 768.825195312 c 0
 464.273836522 768.825195312 512.150663651 755.298828125 542.948739007 720.736328125 c 1
 587.236271861 755.408203125 637.173933047 768.825195312 694.409593738 768.825195312 c 0
 716.713867188 768.825195312 814.859375 753.092773438 814.859375 688.87109375 c 0
 814.859375 665.873046875 799.310546875 638.125 763.517578125 638.125 c 0
 694.379740999 638.125 749.323242188 742.775390625 679.87109375 742.775390625 c 0
 618.651367188 742.775390625 549.796875 654.779296875 521.604492188 537.616210938 c 0
 510.411132812 491.099609375 l 1xeb
 574.071289062 491.099609375 635.884294738 491.349609375 700.114257812 491.349609375 c 1
 728.4296875 491.729492188 760.27734375 505.401367188 773.943359375 505.401367188 c 0xe7
143.6640625 59.4853515625 m 1
 132.723632812 10.33984375 117.962890625 -29.625 99.814453125 -58.6962890625 c 1
 113.487304688 -103.120117188 137.028320312 -151.055664062 205.27734375 -151.055664062 c 0
 270.573242188 -151.055664062 296.509765625 -78.380859375 318.529296875 27.6298828125 c 0
 421.743164062 463.1796875 l 1
 376.791992188 463.211914062 l 0
 321.546875 463.252929688 266.384765625 463.291015625 243.859375 463.297851562 c 1xeb
 143.6640625 59.4853515625 l 1
439.549804688 547.333007812 m 1
 453.6171875 595.813476562 471.672340246 635.119140625 492.865794493 666.264648438 c 1
 479.503708681 698.091796875 460.268554688 742.775390625 416.975585938 742.775390625 c 0
 355.713867188 742.775390625 287.262022795 656.279296875 258.708873383 537.616210938 c 0
 247.516086578 491.099609375 l 1
 425.4453125 491.099609375 l 1
 429.603515625 507.703125 435.836914062 532.756835938 439.549804688 547.333007812 c 1
EndSplineSet
LCarets2: 2 0 0
Ligature2: "'liga' ffi" f f i
EndChar

StartChar: uniFB04
Encoding: 64260 64260 156
GlifName: uniF_B_04
Width: 870
VWidth: 0
Flags: W
HStem: -179.2 28.1445<129.089 221.448> -140.2 28.1504<-104.821 -32.796> -9.65039 51.3506<661.419 755.292> 447.063 44.9268<99.1514 131.449 489.447 634.08> 463.298 27.8018<226.999 395.943> 742.775 26.0498<356.609 431.035 617.342 710.317>
VStem: 628.161 81.9229<41.7683 153.376>
LayerCount: 2
Fore
SplineSet
42.5380859375 63.1005859375 m 0xf6
 131.44921875 451.436523438 l 1
 99.2011830624 450.218655067 91.8417342509 448.322170186 76.365234375 445.548828125 c 1
 99.1513671875 488.174804688 l 1
 142.115234375 488.174804688 l 1
 145.8671875 502.840820312 154.581054688 537.028320312 157.2578125 547.333007812 c 1
 203.864257812 708.221679688 293.132279437 768.825195312 410.684332815 768.825195312 c 0
 443.388068453 768.825195312 491.183543462 755.298828125 521.929286847 720.736328125 c 1
 566.141566496 755.408203125 615.9943738 768.825195312 673.132779877 768.825195312 c 0
 696.70617214 768.825195312 728.888372551 763.047851562 754.973632812 747.646484375 c 1
 857.8515625 772.62890625 l 0
 859.994140625 773.181640625 861.967773438 773.850585938 864.75 773.850585938 c 0
 872.262695312 773.850585938 874.956054688 766.420898438 874.956054688 762.08984375 c 0
 874.956054688 758.025390625 874.026367188 753.43359375 872.623046875 747.435546875 c 0
 725.8984375 133.868164062 l 1
 720.610351562 111.009765625 710.083984375 69.9287109375 710.083984375 59.5107421875 c 0
 710.083984375 53.7470703125 715.87109375 41.7001953125 725.153320312 41.7001953125 c 0
 743.65234375 41.7001953125 760.686523438 47.5703125 780.484375 68.4208984375 c 1
 798.07421875 58.9345703125 l 1
 762 0 718.466347159 -9.650390625 677.092773438 -9.650390625 c 0
 645.74609375 -9.650390625 628.161132812 13.0673828125 628.161132812 48.28125 c 0
 628.161132812 73.982421875 637.107421875 106.237304688 646.608398438 145.803710938 c 1
 764.709960938 651.784179688 l 1
 752.588496527 694.500976562 724.974609375 742.775390625 658.633789062 742.775390625 c 0
 597.4765625 742.775390625 529.125 656.279296875 500.62109375 537.616210938 c 0
 489.447265625 491.990234375 l 1
 618.742119397 491.990234375 l 0
 635.023952485 491.990234375 648.733871854 487.936523438 648.733871854 474.899414062 c 0
 648.733871854 467.634765625 641.9375 460.26953125 640 456 c 0
 634.080078125 447.063476562 l 1
 629.422851562 447.063476562 l 2
 623.126321215 447.063476562 522.920655309 450.960328296 477.799804688 450.998046875 c 1
 376.6640625 16.6806640625 l 0
 344.840820312 -123.776367188 287.69140625 -179.200195312 169.818359375 -179.200195312 c 0
 117.655273438 -179.200195312 58.927734375 -150.95703125 26.708984375 -113.604492188 c 1
 -3.6904296875 -132.24609375 -39.6689453125 -140.200195312 -84.4501953125 -140.200195312 c 0
 -122.66015625 -140.200195312 -170.852539062 -126.87109375 -197.645507812 -77.751953125 c 1
 -197.645507812 -77.751953125 -201.012695312 -68.9775390625 -201.012695312 -66.6181640625 c 0
 -201.012695312 -43.9560546875 -168.559570312 -34.849609375 -154.75 -34.849609375 c 0
 -94.630859375 -34.849609375 -134.512695312 -112.049804688 -74.0966796875 -112.049804688 c 0
 -13.548828125 -112.049804688 20.9833984375 -40.0263671875 42.5380859375 63.1005859375 c 0xf6
404.637695312 491.099609375 m 1xee
 419.505859375 557.163085938 440.174804688 620.954101562 471.936523438 665.25390625 c 1
 458.587890625 697.1015625 439.40625 742.775390625 396.185546875 742.775390625 c 0
 335.02734375 742.775390625 266.677032519 656.279296875 238.172400509 537.616210938 c 0
 226.998632444 491.099609375 l 1
 404.637695312 491.099609375 l 1xee
296.877929688 27.6298828125 m 0
 395.943359375 463.1796875 l 1
 327.056640625 463.232421875 245.963867188 463.290039062 218.357421875 463.297851562 c 1
 124.314453125 59.4853515625 l 1
 113.392578125 10.33984375 98.65625 -29.625 80.5390625 -58.6962890625 c 1
 94.189453125 -103.120117188 112.6796875 -151.055664062 180.8125 -151.055664062 c 0
 243.002929688 -151.055664062 275.208984375 -78.2802734375 296.877929688 27.6298828125 c 0
EndSplineSet
LCarets2: 2 0 0
Ligature2: "'liga' ffl" f f l
EndChar

StartChar: uni02B9
Encoding: 697 697 157
GlifName: uni02B_9
Width: 190
VWidth: 0
Flags: W
HStem: 494 180<75.8242 123.959>
VStem: 64 72<559.812 671.317>
LayerCount: 2
Fore
SplineSet
98 674 m 2
 102 674 l 0
 123.575665284 674 136 656.615152816 136 636 c 0
 136 628.644983318 l 1
 123.964081861 510.291788285 l 1
 123.964081861 510.291788285 116.666056561 494 107 494 c 0
 93 494 l 0
 82.8708782569 494 76.7236642676 500.706748291 75.8775991694 511.848591486 c 1
 64 628.644983318 l 1
 64 634 l 0
 64 654.631474702 77.9012019561 674 98 674 c 2
EndSplineSet
Validated: 1
EndChar

StartChar: uni02BA
Encoding: 698 698 158
GlifName: uni02B_A_
Width: 306
VWidth: 0
Flags: W
HStem: 494 180<75.8242 123.959 191.824 239.959>
VStem: 64 73<559.812 671.198> 180 73<559.812 671.198>
LayerCount: 2
Fore
SplineSet
214 674 m 2
 218 674 l 0
 239.032518313 674 253 658.184604933 253 637 c 0
 253 635.269145265 252.619151267 630.366243306 251.883382856 627.498248073 c 1
 239.964081861 510.291788285 l 1
 239.964081861 510.291788285 232.666056561 494 223 494 c 0
 209 494 l 0
 198.870878257 494 192.723664268 500.706748291 191.877599169 511.848591486 c 1
 180 628.644983318 l 1
 180 634 l 0
 180 654.631474702 193.901201956 674 214 674 c 2
98 674 m 2
 102 674 l 0
 123.032518313 674 137 658.184604933 137 637 c 0
 137 635.269145265 136.619151267 630.366243306 135.883382856 627.498248073 c 1
 123.964081861 510.291788285 l 1
 123.964081861 510.291788285 116.666056561 494 107 494 c 0
 93 494 l 0
 82.8708782569 494 76.7236642676 500.706748291 75.8775991694 511.848591486 c 1
 64 628.644983318 l 1
 64 634 l 0
 64 654.631474702 77.9012019561 674 98 674 c 2
EndSplineSet
Validated: 1
EndChar

StartChar: quotedblleft
Encoding: 8220 8220 159
GlifName: quotedblleft
Width: 390
VWidth: 0
Flags: W
HStem: 546 249.954
VStem: 87.873 64.0781<570.239 673.903> 265.966 64.0215<571.548 684.968>
LayerCount: 2
Fore
SplineSet
331.951819219 679.561065626 m 0
 330.874288229 674.174398327 329.987304688 670.513877181 329.987304688 666.326171875 c 0
 329.987304688 645.438708821 377.611328125 647.668491329 377.611328125 610.216796875 c 0
 377.611328125 572.423406591 344.830891913 546 312 546 c 0
 287.664363422 546 265.965820312 562.04492048 265.965820312 591.0234375 c 0
 265.965820312 700.616879168 347.773998326 781.816210824 412.573674156 795.954033335 c 2
 415.335129485 796.556520382 l 1
 414.984555753 793.751930531 l 1
 411.984555753 769.751930531 l 1
 411.807434734 768.334962373 l 1
 410.409726308 768.042418749 l 2
 368.626935414 759.297183446 339.853880795 711.169311929 331.951819219 679.561065626 c 0
154.951827776 678.561099853 m 0
 153.751881253 672.561367236 151.951171875 669.189268467 151.951171875 664.697265625 c 0
 151.951171875 644.486069157 199.587890625 646.344934027 199.587890625 609.059570312 c 0
 199.587890625 571.344420046 166.738547243 545 134 545 c 0
 110.142519589 545 87.873046875 561.317002398 87.873046875 589.368164062 c 0
 87.873046875 607.937374231 90.8444402366 624.677264381 95.0620869352 640.494911458 c 0
 116.219593495 727.139938323 179.71413556 782.766497641 235.57366585 794.954031523 c 2
 238.335131065 795.556533024 l 1
 237.984555753 792.751930531 l 1
 234.984555753 768.751930531 l 1
 234.807434734 767.334962373 l 1
 233.409726308 767.042418749 l 2
 191.626935414 758.297183446 162.853889352 710.169346155 154.951827776 678.561099853 c 0
EndSplineSet
EndChar

StartChar: second
Encoding: 8243 8243 160
GlifName: second
Width: 306
VWidth: 0
Flags: W
HStem: 501 166<81.875 117.771 197.875 233.771>
VStem: 71 59<560.167 666.305> 187 59<560.167 666.305>
LayerCount: 2
Fore
SplineSet
214 667 m 6
 218 667 l 6
 235 667 246 655 246 637 c 4
 246 635 246 632 245 629 c 6
 233 511 l 6
 233 505 229 501 223 501 c 6
 209 501 l 6
 203 501 199 505 199 511 c 6
 187 629 l 6
 187 631 187 633 187 634 c 4
 187 652 199 667 214 667 c 6
98 667 m 6
 102 667 l 6
 119 667 130 655 130 637 c 4
 130 635 130 632 129 629 c 6
 117 511 l 6
 117 505 113 501 107 501 c 6
 93 501 l 6
 87 501 83 505 83 511 c 6
 71 629 l 6
 71 631 71 633 71 634 c 4
 71 652 83 667 98 667 c 6
EndSplineSet
Validated: 1
EndChar

StartChar: quotedblright
Encoding: 8221 8221 161
GlifName: quotedblright
Width: 393
VWidth: 0
Flags: W
HStem: 488.046 249.954
VStem: 152.05 65.0771<609.108 712.761> 330.05 65.0771<609.877 712.761>
LayerCount: 2
Fore
SplineSet
150.048155983 604.438835183 m 0
 151.182255796 610.111308312 152.049804688 613.703846079 152.049804688 618.32421875 c 0
 152.049804688 638.494546743 105.387695312 636.68854363 105.387695312 673.774414062 c 0
 105.387695312 711.57333621 138.164003405 738 171 738 c 0
 194.857480411 738 217.126953125 721.682997602 217.126953125 693.631835938 c 0
 217.126953125 675.062625769 214.155559763 658.322735619 209.937913065 642.505088542 c 0
 188.780406505 555.860061677 125.28586444 500.233502359 69.4263341504 488.045968477 c 2
 66.6648689349 487.443466976 l 1
 67.0154442466 490.248069469 l 1
 70.0154442466 514.248069469 l 1
 70.1925652662 515.665037627 l 1
 71.5902736918 515.957581251 l 2
 113.373064586 524.702816554 142.146094407 572.830588881 150.048155983 604.438835183 c 0
328.048155983 604.438835183 m 0
 329.182255796 610.111308312 330.049804688 613.703846079 330.049804688 618.32421875 c 0
 330.049804688 638.494546743 283.387695312 636.68854363 283.387695312 673.774414062 c 0
 283.387695312 711.57333621 316.164003405 738 349 738 c 0
 372.857480411 738 395.126953125 721.682997602 395.126953125 693.631835938 c 0
 395.126953125 675.061924454 392.156084426 658.324703288 387.937214967 642.50247043 c 0
 366.778652429 556.860669682 303.300918139 500.236786802 247.42633415 488.045968477 c 2
 244.664868935 487.443466976 l 1
 245.015444247 490.248069469 l 1
 248.015444247 514.248069469 l 1
 248.192565266 515.665037627 l 1
 249.590273692 515.957581251 l 2
 291.373064586 524.702816554 320.146094407 572.830588881 328.048155983 604.438835183 c 0
EndSplineSet
EndChar

StartChar: minute
Encoding: 8242 8242 162
GlifName: minute
Width: 190
VWidth: 0
Flags: W
HStem: 501 166<81.875 118.014>
VStem: 71 58<560.167 666.32>
LayerCount: 2
Fore
SplineSet
98 667 m 6
 102 667 l 6
 119 667 129 654 129 636 c 4
 129 634 129 631 129 629 c 6
 117 511 l 6
 117 505 113 501 107 501 c 6
 93 501 l 6
 87 501 83 505 83 511 c 6
 71 629 l 6
 71 631 71 633 71 634 c 4
 71 652 83 667 98 667 c 6
EndSplineSet
Validated: 1
EndChar

